<svg xmlns="http://www.w3.org/2000/svg" xmlns:xlink="http://www.w3.org/1999/xlink" width="800" zoomAndPan="magnify" viewBox="0 0 600 262.499992" height="350" preserveAspectRatio="xMidYMid meet" version="1.0"><defs><filter x="0%" y="0%" width="100%" height="100%" id="08e0bd9c87"><feColorMatrix values="0 0 0 0 1 0 0 0 0 1 0 0 0 0 1 0 0 0 1 0" color-interpolation-filters="sRGB"/></filter><g/><clipPath id="15a9a8ee09"><path d="M 0.570312 0 L 599.429688 0 L 599.429688 262 L 0.570312 262 Z M 0.570312 0 " clip-rule="nonzero"/></clipPath><clipPath id="0f21c06445"><path d="M 193 129 L 591 129 L 591 228.273438 L 193 228.273438 Z M 193 129 " clip-rule="nonzero"/></clipPath><clipPath id="e04c266d13"><path d="M 558.125 205.65625 L 193.019531 228.273438 L 230.476562 131.777344 L 590.082031 129.113281 Z M 558.125 205.65625 " clip-rule="nonzero"/></clipPath><linearGradient x1="44.799997" gradientTransform="matrix(2.422724, 0, 0, 2.421525, 84.482217, 39.250596)" y1="57.580002" x2="208.689989" gradientUnits="userSpaceOnUse" y2="57.580002" id="92fab8433a"><stop stop-opacity="1" stop-color="rgb(31.399536%, 31.399536%, 31.399536%)" offset="0"/><stop stop-opacity="1" stop-color="rgb(31.236267%, 31.236267%, 31.236267%)" offset="0.015625"/><stop stop-opacity="1" stop-color="rgb(30.911255%, 30.911255%, 30.911255%)" offset="0.03125"/><stop stop-opacity="1" stop-color="rgb(30.586243%, 30.586243%, 30.586243%)" offset="0.046875"/><stop stop-opacity="1" stop-color="rgb(30.26123%, 30.26123%, 30.26123%)" offset="0.0625"/><stop stop-opacity="1" stop-color="rgb(29.936218%, 29.936218%, 29.936218%)" offset="0.078125"/><stop stop-opacity="1" stop-color="rgb(29.611206%, 29.611206%, 29.611206%)" offset="0.09375"/><stop stop-opacity="1" stop-color="rgb(29.286194%, 29.286194%, 29.286194%)" offset="0.109375"/><stop stop-opacity="1" stop-color="rgb(28.961182%, 28.961182%, 28.961182%)" offset="0.125"/><stop stop-opacity="1" stop-color="rgb(28.636169%, 28.636169%, 28.636169%)" offset="0.140625"/><stop stop-opacity="1" stop-color="rgb(28.311157%, 28.311157%, 28.311157%)" offset="0.15625"/><stop stop-opacity="1" stop-color="rgb(27.986145%, 27.986145%, 27.986145%)" offset="0.171875"/><stop stop-opacity="1" stop-color="rgb(27.661133%, 27.661133%, 27.661133%)" offset="0.1875"/><stop stop-opacity="1" stop-color="rgb(27.336121%, 27.336121%, 27.336121%)" offset="0.203125"/><stop stop-opacity="1" stop-color="rgb(27.011108%, 27.011108%, 27.011108%)" offset="0.21875"/><stop stop-opacity="1" stop-color="rgb(26.686096%, 26.686096%, 26.686096%)" offset="0.234375"/><stop stop-opacity="1" stop-color="rgb(26.361084%, 26.361084%, 26.361084%)" offset="0.25"/><stop stop-opacity="1" stop-color="rgb(26.036072%, 26.036072%, 26.036072%)" offset="0.265625"/><stop stop-opacity="1" stop-color="rgb(25.71106%, 25.71106%, 25.71106%)" offset="0.28125"/><stop stop-opacity="1" stop-color="rgb(25.386047%, 25.386047%, 25.386047%)" offset="0.296875"/><stop stop-opacity="1" stop-color="rgb(25.061035%, 25.061035%, 25.061035%)" offset="0.3125"/><stop stop-opacity="1" stop-color="rgb(24.736023%, 24.736023%, 24.736023%)" offset="0.328125"/><stop stop-opacity="1" stop-color="rgb(24.411011%, 24.411011%, 24.411011%)" offset="0.34375"/><stop stop-opacity="1" stop-color="rgb(24.085999%, 24.085999%, 24.085999%)" offset="0.359375"/><stop stop-opacity="1" stop-color="rgb(23.760986%, 23.760986%, 23.760986%)" offset="0.375"/><stop stop-opacity="1" stop-color="rgb(23.435974%, 23.435974%, 23.435974%)" offset="0.390625"/><stop stop-opacity="1" stop-color="rgb(23.110962%, 23.110962%, 23.110962%)" offset="0.40625"/><stop stop-opacity="1" stop-color="rgb(22.78595%, 22.78595%, 22.78595%)" offset="0.421875"/><stop stop-opacity="1" stop-color="rgb(22.460938%, 22.460938%, 22.460938%)" offset="0.4375"/><stop stop-opacity="1" stop-color="rgb(22.135925%, 22.135925%, 22.135925%)" offset="0.453125"/><stop stop-opacity="1" stop-color="rgb(21.810913%, 21.810913%, 21.810913%)" offset="0.46875"/><stop stop-opacity="1" stop-color="rgb(21.485901%, 21.485901%, 21.485901%)" offset="0.484375"/><stop stop-opacity="1" stop-color="rgb(21.160889%, 21.160889%, 21.160889%)" offset="0.5"/><stop stop-opacity="1" stop-color="rgb(20.835876%, 20.835876%, 20.835876%)" offset="0.515625"/><stop stop-opacity="1" stop-color="rgb(20.510864%, 20.510864%, 20.510864%)" offset="0.53125"/><stop stop-opacity="1" stop-color="rgb(20.185852%, 20.185852%, 20.185852%)" offset="0.546875"/><stop stop-opacity="1" stop-color="rgb(19.86084%, 19.86084%, 19.86084%)" offset="0.5625"/><stop stop-opacity="1" stop-color="rgb(19.535828%, 19.535828%, 19.535828%)" offset="0.578125"/><stop stop-opacity="1" stop-color="rgb(19.210815%, 19.210815%, 19.210815%)" offset="0.59375"/><stop stop-opacity="1" stop-color="rgb(18.885803%, 18.885803%, 18.885803%)" offset="0.609375"/><stop stop-opacity="1" stop-color="rgb(18.560791%, 18.560791%, 18.560791%)" offset="0.625"/><stop stop-opacity="1" stop-color="rgb(18.235779%, 18.235779%, 18.235779%)" offset="0.640625"/><stop stop-opacity="1" stop-color="rgb(17.910767%, 17.910767%, 17.910767%)" offset="0.65625"/><stop stop-opacity="1" stop-color="rgb(17.585754%, 17.585754%, 17.585754%)" offset="0.671875"/><stop stop-opacity="1" stop-color="rgb(17.260742%, 17.260742%, 17.260742%)" offset="0.6875"/><stop stop-opacity="1" stop-color="rgb(16.93573%, 16.93573%, 16.93573%)" offset="0.703125"/><stop stop-opacity="1" stop-color="rgb(16.610718%, 16.610718%, 16.610718%)" offset="0.71875"/><stop stop-opacity="1" stop-color="rgb(16.285706%, 16.285706%, 16.285706%)" offset="0.734375"/><stop stop-opacity="1" stop-color="rgb(15.960693%, 15.960693%, 15.960693%)" offset="0.75"/><stop stop-opacity="1" stop-color="rgb(15.635681%, 15.635681%, 15.635681%)" offset="0.765625"/><stop stop-opacity="1" stop-color="rgb(15.310669%, 15.310669%, 15.310669%)" offset="0.78125"/><stop stop-opacity="1" stop-color="rgb(14.985657%, 14.985657%, 14.985657%)" offset="0.796875"/><stop stop-opacity="1" stop-color="rgb(14.660645%, 14.660645%, 14.660645%)" offset="0.8125"/><stop stop-opacity="1" stop-color="rgb(14.335632%, 14.335632%, 14.335632%)" offset="0.828125"/><stop stop-opacity="1" stop-color="rgb(14.01062%, 14.01062%, 14.01062%)" offset="0.84375"/><stop stop-opacity="1" stop-color="rgb(13.685608%, 13.685608%, 13.685608%)" offset="0.859375"/><stop stop-opacity="1" stop-color="rgb(13.360596%, 13.360596%, 13.360596%)" offset="0.875"/><stop stop-opacity="1" stop-color="rgb(13.035583%, 13.035583%, 13.035583%)" offset="0.890625"/><stop stop-opacity="1" stop-color="rgb(12.710571%, 12.710571%, 12.710571%)" offset="0.90625"/><stop stop-opacity="1" stop-color="rgb(12.385559%, 12.385559%, 12.385559%)" offset="0.921875"/><stop stop-opacity="1" stop-color="rgb(12.060547%, 12.060547%, 12.060547%)" offset="0.9375"/><stop stop-opacity="1" stop-color="rgb(11.735535%, 11.735535%, 11.735535%)" offset="0.953125"/><stop stop-opacity="1" stop-color="rgb(11.410522%, 11.410522%, 11.410522%)" offset="0.96875"/><stop stop-opacity="1" stop-color="rgb(11.08551%, 11.08551%, 11.08551%)" offset="0.984375"/><stop stop-opacity="1" stop-color="rgb(10.760498%, 10.760498%, 10.760498%)" offset="1"/></linearGradient><clipPath id="a11740729a"><path d="M 230 53 L 591 53 L 591 132 L 230 132 Z M 230 53 " clip-rule="nonzero"/></clipPath><clipPath id="18f5cb82be"><path d="M 590.082031 62.351562 L 590.082031 129.113281 L 230.476562 131.777344 L 230.476562 53.246094 Z M 590.082031 62.351562 " clip-rule="nonzero"/></clipPath><linearGradient x1="60.259995" gradientTransform="matrix(2.422724, 0, 0, 2.421525, 84.482217, 39.250596)" y1="21.99" x2="208.689989" gradientUnits="userSpaceOnUse" y2="21.99" id="104c17438c"><stop stop-opacity="1" stop-color="rgb(37.599182%, 37.599182%, 37.599182%)" offset="0"/><stop stop-opacity="1" stop-color="rgb(37.428284%, 37.428284%, 37.428284%)" offset="0.015625"/><stop stop-opacity="1" stop-color="rgb(37.086487%, 37.086487%, 37.086487%)" offset="0.03125"/><stop stop-opacity="1" stop-color="rgb(36.743164%, 36.743164%, 36.743164%)" offset="0.046875"/><stop stop-opacity="1" stop-color="rgb(36.401367%, 36.401367%, 36.401367%)" offset="0.0625"/><stop stop-opacity="1" stop-color="rgb(36.05957%, 36.05957%, 36.05957%)" offset="0.078125"/><stop stop-opacity="1" stop-color="rgb(35.717773%, 35.717773%, 35.717773%)" offset="0.09375"/><stop stop-opacity="1" stop-color="rgb(35.374451%, 35.374451%, 35.374451%)" offset="0.109375"/><stop stop-opacity="1" stop-color="rgb(35.032654%, 35.032654%, 35.032654%)" offset="0.125"/><stop stop-opacity="1" stop-color="rgb(34.690857%, 34.690857%, 34.690857%)" offset="0.140625"/><stop stop-opacity="1" stop-color="rgb(34.347534%, 34.347534%, 34.347534%)" offset="0.15625"/><stop stop-opacity="1" stop-color="rgb(34.005737%, 34.005737%, 34.005737%)" offset="0.171875"/><stop stop-opacity="1" stop-color="rgb(33.66394%, 33.66394%, 33.66394%)" offset="0.1875"/><stop stop-opacity="1" stop-color="rgb(33.322144%, 33.322144%, 33.322144%)" offset="0.203125"/><stop stop-opacity="1" stop-color="rgb(32.978821%, 32.978821%, 32.978821%)" offset="0.21875"/><stop stop-opacity="1" stop-color="rgb(32.637024%, 32.637024%, 32.637024%)" offset="0.234375"/><stop stop-opacity="1" stop-color="rgb(32.295227%, 32.295227%, 32.295227%)" offset="0.25"/><stop stop-opacity="1" stop-color="rgb(31.95343%, 31.95343%, 31.95343%)" offset="0.265625"/><stop stop-opacity="1" stop-color="rgb(31.610107%, 31.610107%, 31.610107%)" offset="0.28125"/><stop stop-opacity="1" stop-color="rgb(31.268311%, 31.268311%, 31.268311%)" offset="0.296875"/><stop stop-opacity="1" stop-color="rgb(30.926514%, 30.926514%, 30.926514%)" offset="0.3125"/><stop stop-opacity="1" stop-color="rgb(30.584717%, 30.584717%, 30.584717%)" offset="0.328125"/><stop stop-opacity="1" stop-color="rgb(30.241394%, 30.241394%, 30.241394%)" offset="0.34375"/><stop stop-opacity="1" stop-color="rgb(29.899597%, 29.899597%, 29.899597%)" offset="0.359375"/><stop stop-opacity="1" stop-color="rgb(29.5578%, 29.5578%, 29.5578%)" offset="0.375"/><stop stop-opacity="1" stop-color="rgb(29.216003%, 29.216003%, 29.216003%)" offset="0.390625"/><stop stop-opacity="1" stop-color="rgb(28.872681%, 28.872681%, 28.872681%)" offset="0.40625"/><stop stop-opacity="1" stop-color="rgb(28.530884%, 28.530884%, 28.530884%)" offset="0.421875"/><stop stop-opacity="1" stop-color="rgb(28.189087%, 28.189087%, 28.189087%)" offset="0.4375"/><stop stop-opacity="1" stop-color="rgb(27.84729%, 27.84729%, 27.84729%)" offset="0.453125"/><stop stop-opacity="1" stop-color="rgb(27.503967%, 27.503967%, 27.503967%)" offset="0.46875"/><stop stop-opacity="1" stop-color="rgb(27.16217%, 27.16217%, 27.16217%)" offset="0.484375"/><stop stop-opacity="1" stop-color="rgb(26.820374%, 26.820374%, 26.820374%)" offset="0.5"/><stop stop-opacity="1" stop-color="rgb(26.478577%, 26.478577%, 26.478577%)" offset="0.515625"/><stop stop-opacity="1" stop-color="rgb(26.135254%, 26.135254%, 26.135254%)" offset="0.53125"/><stop stop-opacity="1" stop-color="rgb(25.793457%, 25.793457%, 25.793457%)" offset="0.546875"/><stop stop-opacity="1" stop-color="rgb(25.45166%, 25.45166%, 25.45166%)" offset="0.5625"/><stop stop-opacity="1" stop-color="rgb(25.109863%, 25.109863%, 25.109863%)" offset="0.578125"/><stop stop-opacity="1" stop-color="rgb(24.766541%, 24.766541%, 24.766541%)" offset="0.59375"/><stop stop-opacity="1" stop-color="rgb(24.424744%, 24.424744%, 24.424744%)" offset="0.609375"/><stop stop-opacity="1" stop-color="rgb(24.082947%, 24.082947%, 24.082947%)" offset="0.625"/><stop stop-opacity="1" stop-color="rgb(23.74115%, 23.74115%, 23.74115%)" offset="0.640625"/><stop stop-opacity="1" stop-color="rgb(23.397827%, 23.397827%, 23.397827%)" offset="0.65625"/><stop stop-opacity="1" stop-color="rgb(23.05603%, 23.05603%, 23.05603%)" offset="0.671875"/><stop stop-opacity="1" stop-color="rgb(22.714233%, 22.714233%, 22.714233%)" offset="0.6875"/><stop stop-opacity="1" stop-color="rgb(22.372437%, 22.372437%, 22.372437%)" offset="0.703125"/><stop stop-opacity="1" stop-color="rgb(22.029114%, 22.029114%, 22.029114%)" offset="0.71875"/><stop stop-opacity="1" stop-color="rgb(21.687317%, 21.687317%, 21.687317%)" offset="0.734375"/><stop stop-opacity="1" stop-color="rgb(21.34552%, 21.34552%, 21.34552%)" offset="0.75"/><stop stop-opacity="1" stop-color="rgb(21.002197%, 21.002197%, 21.002197%)" offset="0.765625"/><stop stop-opacity="1" stop-color="rgb(20.6604%, 20.6604%, 20.6604%)" offset="0.78125"/><stop stop-opacity="1" stop-color="rgb(20.318604%, 20.318604%, 20.318604%)" offset="0.796875"/><stop stop-opacity="1" stop-color="rgb(19.976807%, 19.976807%, 19.976807%)" offset="0.8125"/><stop stop-opacity="1" stop-color="rgb(19.633484%, 19.633484%, 19.633484%)" offset="0.828125"/><stop stop-opacity="1" stop-color="rgb(19.291687%, 19.291687%, 19.291687%)" offset="0.84375"/><stop stop-opacity="1" stop-color="rgb(18.94989%, 18.94989%, 18.94989%)" offset="0.859375"/><stop stop-opacity="1" stop-color="rgb(18.608093%, 18.608093%, 18.608093%)" offset="0.875"/><stop stop-opacity="1" stop-color="rgb(18.264771%, 18.264771%, 18.264771%)" offset="0.890625"/><stop stop-opacity="1" stop-color="rgb(17.922974%, 17.922974%, 17.922974%)" offset="0.90625"/><stop stop-opacity="1" stop-color="rgb(17.581177%, 17.581177%, 17.581177%)" offset="0.921875"/><stop stop-opacity="1" stop-color="rgb(17.23938%, 17.23938%, 17.23938%)" offset="0.9375"/><stop stop-opacity="1" stop-color="rgb(16.896057%, 16.896057%, 16.896057%)" offset="0.953125"/><stop stop-opacity="1" stop-color="rgb(16.55426%, 16.55426%, 16.55426%)" offset="0.96875"/><stop stop-opacity="1" stop-color="rgb(16.212463%, 16.212463%, 16.212463%)" offset="0.984375"/><stop stop-opacity="1" stop-color="rgb(15.870667%, 15.870667%, 15.870667%)" offset="1"/></linearGradient><clipPath id="2043db61c9"><path d="M 142.410156 147.734375 L 167.046875 147.734375 L 167.046875 210.960938 L 142.410156 210.960938 Z M 142.410156 147.734375 " clip-rule="nonzero"/></clipPath><linearGradient x1="29" gradientTransform="matrix(2.422724, 0, 0, 2.421525, 84.482217, 39.250596)" y1="70.910008" x2="29" gradientUnits="userSpaceOnUse" y2="44.800003" id="b7f61a665a"><stop stop-opacity="1" stop-color="rgb(21.537781%, 21.537781%, 21.537781%)" offset="0"/><stop stop-opacity="1" stop-color="rgb(21.435547%, 21.435547%, 21.435547%)" offset="0.03125"/><stop stop-opacity="1" stop-color="rgb(21.231079%, 21.231079%, 21.231079%)" offset="0.0625"/><stop stop-opacity="1" stop-color="rgb(21.026611%, 21.026611%, 21.026611%)" offset="0.09375"/><stop stop-opacity="1" stop-color="rgb(20.822144%, 20.822144%, 20.822144%)" offset="0.125"/><stop stop-opacity="1" stop-color="rgb(20.617676%, 20.617676%, 20.617676%)" offset="0.15625"/><stop stop-opacity="1" stop-color="rgb(20.413208%, 20.413208%, 20.413208%)" offset="0.1875"/><stop stop-opacity="1" stop-color="rgb(20.20874%, 20.20874%, 20.20874%)" offset="0.21875"/><stop stop-opacity="1" stop-color="rgb(20.004272%, 20.004272%, 20.004272%)" offset="0.25"/><stop stop-opacity="1" stop-color="rgb(19.799805%, 19.799805%, 19.799805%)" offset="0.28125"/><stop stop-opacity="1" stop-color="rgb(19.593811%, 19.593811%, 19.593811%)" offset="0.3125"/><stop stop-opacity="1" stop-color="rgb(19.389343%, 19.389343%, 19.389343%)" offset="0.34375"/><stop stop-opacity="1" stop-color="rgb(19.184875%, 19.184875%, 19.184875%)" offset="0.375"/><stop stop-opacity="1" stop-color="rgb(18.980408%, 18.980408%, 18.980408%)" offset="0.40625"/><stop stop-opacity="1" stop-color="rgb(18.77594%, 18.77594%, 18.77594%)" offset="0.4375"/><stop stop-opacity="1" stop-color="rgb(18.571472%, 18.571472%, 18.571472%)" offset="0.46875"/><stop stop-opacity="1" stop-color="rgb(18.367004%, 18.367004%, 18.367004%)" offset="0.5"/><stop stop-opacity="1" stop-color="rgb(18.162537%, 18.162537%, 18.162537%)" offset="0.53125"/><stop stop-opacity="1" stop-color="rgb(17.958069%, 17.958069%, 17.958069%)" offset="0.5625"/><stop stop-opacity="1" stop-color="rgb(17.753601%, 17.753601%, 17.753601%)" offset="0.59375"/><stop stop-opacity="1" stop-color="rgb(17.549133%, 17.549133%, 17.549133%)" offset="0.625"/><stop stop-opacity="1" stop-color="rgb(17.344666%, 17.344666%, 17.344666%)" offset="0.65625"/><stop stop-opacity="1" stop-color="rgb(17.140198%, 17.140198%, 17.140198%)" offset="0.6875"/><stop stop-opacity="1" stop-color="rgb(16.93573%, 16.93573%, 16.93573%)" offset="0.71875"/><stop stop-opacity="1" stop-color="rgb(16.731262%, 16.731262%, 16.731262%)" offset="0.75"/><stop stop-opacity="1" stop-color="rgb(16.526794%, 16.526794%, 16.526794%)" offset="0.78125"/><stop stop-opacity="1" stop-color="rgb(16.322327%, 16.322327%, 16.322327%)" offset="0.8125"/><stop stop-opacity="1" stop-color="rgb(16.117859%, 16.117859%, 16.117859%)" offset="0.84375"/><stop stop-opacity="1" stop-color="rgb(15.913391%, 15.913391%, 15.913391%)" offset="0.875"/><stop stop-opacity="1" stop-color="rgb(15.7547%, 15.7547%, 15.7547%)" offset="1"/></linearGradient><clipPath id="b9d7a783ba"><path d="M 97 50 L 231 50 L 231 228.273438 L 97 228.273438 Z M 97 50 " clip-rule="nonzero"/></clipPath><clipPath id="bff8b552ef"><path d="M 97.808594 52.496094 L 97.808594 129.113281 L 127.050781 205.65625 L 142.410156 210.984375 L 142.410156 151.078125 L 166.394531 154.757812 L 166.394531 220.285156 L 193.019531 228.273438 L 230.984375 131.777344 L 230.984375 50.558594 Z M 97.808594 52.496094 " clip-rule="nonzero"/></clipPath><linearGradient x1="32.98" gradientTransform="matrix(2.422724, 0, 0, 2.421525, 84.482217, 39.250596)" y1="78.060002" x2="32.98" gradientUnits="userSpaceOnUse" y2="4.670003" id="5bac9c075f"><stop stop-opacity="1" stop-color="rgb(25.099182%, 25.099182%, 25.099182%)" offset="0"/><stop stop-opacity="1" stop-color="rgb(25.073242%, 25.073242%, 25.073242%)" offset="0.125"/><stop stop-opacity="1" stop-color="rgb(24.94812%, 24.94812%, 24.94812%)" offset="0.1875"/><stop stop-opacity="1" stop-color="rgb(24.749756%, 24.749756%, 24.749756%)" offset="0.25"/><stop stop-opacity="1" stop-color="rgb(24.551392%, 24.551392%, 24.551392%)" offset="0.3125"/><stop stop-opacity="1" stop-color="rgb(24.353027%, 24.353027%, 24.353027%)" offset="0.375"/><stop stop-opacity="1" stop-color="rgb(24.154663%, 24.154663%, 24.154663%)" offset="0.4375"/><stop stop-opacity="1" stop-color="rgb(23.884583%, 23.884583%, 23.884583%)" offset="0.5"/><stop stop-opacity="1" stop-color="rgb(23.599243%, 23.599243%, 23.599243%)" offset="0.515625"/><stop stop-opacity="1" stop-color="rgb(23.374939%, 23.374939%, 23.374939%)" offset="0.53125"/><stop stop-opacity="1" stop-color="rgb(23.149109%, 23.149109%, 23.149109%)" offset="0.546875"/><stop stop-opacity="1" stop-color="rgb(22.924805%, 22.924805%, 22.924805%)" offset="0.5625"/><stop stop-opacity="1" stop-color="rgb(22.698975%, 22.698975%, 22.698975%)" offset="0.578125"/><stop stop-opacity="1" stop-color="rgb(22.47467%, 22.47467%, 22.47467%)" offset="0.59375"/><stop stop-opacity="1" stop-color="rgb(22.24884%, 22.24884%, 22.24884%)" offset="0.609375"/><stop stop-opacity="1" stop-color="rgb(22.024536%, 22.024536%, 22.024536%)" offset="0.625"/><stop stop-opacity="1" stop-color="rgb(21.798706%, 21.798706%, 21.798706%)" offset="0.640625"/><stop stop-opacity="1" stop-color="rgb(21.572876%, 21.572876%, 21.572876%)" offset="0.65625"/><stop stop-opacity="1" stop-color="rgb(21.348572%, 21.348572%, 21.348572%)" offset="0.671875"/><stop stop-opacity="1" stop-color="rgb(21.122742%, 21.122742%, 21.122742%)" offset="0.6875"/><stop stop-opacity="1" stop-color="rgb(20.889282%, 20.889282%, 20.889282%)" offset="0.703125"/><stop stop-opacity="1" stop-color="rgb(20.635986%, 20.635986%, 20.635986%)" offset="0.710938"/><stop stop-opacity="1" stop-color="rgb(20.373535%, 20.373535%, 20.373535%)" offset="0.71875"/><stop stop-opacity="1" stop-color="rgb(20.111084%, 20.111084%, 20.111084%)" offset="0.726563"/><stop stop-opacity="1" stop-color="rgb(19.847107%, 19.847107%, 19.847107%)" offset="0.734375"/><stop stop-opacity="1" stop-color="rgb(19.584656%, 19.584656%, 19.584656%)" offset="0.742188"/><stop stop-opacity="1" stop-color="rgb(19.322205%, 19.322205%, 19.322205%)" offset="0.75"/><stop stop-opacity="1" stop-color="rgb(19.059753%, 19.059753%, 19.059753%)" offset="0.757813"/><stop stop-opacity="1" stop-color="rgb(18.795776%, 18.795776%, 18.795776%)" offset="0.765625"/><stop stop-opacity="1" stop-color="rgb(18.533325%, 18.533325%, 18.533325%)" offset="0.773438"/><stop stop-opacity="1" stop-color="rgb(18.270874%, 18.270874%, 18.270874%)" offset="0.78125"/><stop stop-opacity="1" stop-color="rgb(18.008423%, 18.008423%, 18.008423%)" offset="0.789063"/><stop stop-opacity="1" stop-color="rgb(17.744446%, 17.744446%, 17.744446%)" offset="0.796875"/><stop stop-opacity="1" stop-color="rgb(17.481995%, 17.481995%, 17.481995%)" offset="0.804688"/><stop stop-opacity="1" stop-color="rgb(17.219543%, 17.219543%, 17.219543%)" offset="0.8125"/><stop stop-opacity="1" stop-color="rgb(16.957092%, 16.957092%, 16.957092%)" offset="0.820313"/><stop stop-opacity="1" stop-color="rgb(16.693115%, 16.693115%, 16.693115%)" offset="0.828125"/><stop stop-opacity="1" stop-color="rgb(16.430664%, 16.430664%, 16.430664%)" offset="0.835938"/><stop stop-opacity="1" stop-color="rgb(16.168213%, 16.168213%, 16.168213%)" offset="0.84375"/><stop stop-opacity="1" stop-color="rgb(15.905762%, 15.905762%, 15.905762%)" offset="0.851563"/><stop stop-opacity="1" stop-color="rgb(15.641785%, 15.641785%, 15.641785%)" offset="0.859375"/><stop stop-opacity="1" stop-color="rgb(15.370178%, 15.370178%, 15.370178%)" offset="0.867188"/><stop stop-opacity="1" stop-color="rgb(15.05127%, 15.05127%, 15.05127%)" offset="0.875"/><stop stop-opacity="1" stop-color="rgb(14.69574%, 14.69574%, 14.69574%)" offset="0.882813"/><stop stop-opacity="1" stop-color="rgb(14.34021%, 14.34021%, 14.34021%)" offset="0.890625"/><stop stop-opacity="1" stop-color="rgb(13.98468%, 13.98468%, 13.98468%)" offset="0.898438"/><stop stop-opacity="1" stop-color="rgb(13.62915%, 13.62915%, 13.62915%)" offset="0.90625"/><stop stop-opacity="1" stop-color="rgb(13.273621%, 13.273621%, 13.273621%)" offset="0.914063"/><stop stop-opacity="1" stop-color="rgb(12.918091%, 12.918091%, 12.918091%)" offset="0.921875"/><stop stop-opacity="1" stop-color="rgb(12.562561%, 12.562561%, 12.562561%)" offset="0.929688"/><stop stop-opacity="1" stop-color="rgb(12.207031%, 12.207031%, 12.207031%)" offset="0.9375"/><stop stop-opacity="1" stop-color="rgb(11.851501%, 11.851501%, 11.851501%)" offset="0.945313"/><stop stop-opacity="1" stop-color="rgb(11.495972%, 11.495972%, 11.495972%)" offset="0.953125"/><stop stop-opacity="1" stop-color="rgb(11.140442%, 11.140442%, 11.140442%)" offset="0.960938"/><stop stop-opacity="1" stop-color="rgb(10.784912%, 10.784912%, 10.784912%)" offset="0.96875"/><stop stop-opacity="1" stop-color="rgb(10.603333%, 10.603333%, 10.603333%)" offset="1"/></linearGradient><clipPath id="1593c3c012"><path d="M 125 51 L 179 51 L 179 225 L 125 225 Z M 125 51 " clip-rule="nonzero"/></clipPath><clipPath id="95f9ab24a9"><path d="M 173.128906 51.550781 L 173.128906 109.765625 L 131.652344 106.542969 L 131.652344 53.054688 L 125.8125 53.054688 L 125.667969 201.976562 L 127.050781 205.65625 L 131.53125 207.230469 L 131.652344 112.429688 L 173.128906 115.625 L 173.128906 222.316406 L 178.992188 224.0625 L 178.992188 51.550781 Z M 173.128906 51.550781 " clip-rule="nonzero"/></clipPath><linearGradient x1="28.01" gradientTransform="matrix(2.422724, 0, 0, 2.421525, 84.482217, 39.250596)" y1="5.080003" x2="28.01" gradientUnits="userSpaceOnUse" y2="76.320005" id="3aafc678a6"><stop stop-opacity="1" stop-color="rgb(25.099182%, 25.099182%, 25.099182%)" offset="0"/><stop stop-opacity="1" stop-color="rgb(24.97406%, 24.97406%, 24.97406%)" offset="0.125"/><stop stop-opacity="1" stop-color="rgb(24.665833%, 24.665833%, 24.665833%)" offset="0.25"/><stop stop-opacity="1" stop-color="rgb(24.299622%, 24.299622%, 24.299622%)" offset="0.375"/><stop stop-opacity="1" stop-color="rgb(24.024963%, 24.024963%, 24.024963%)" offset="0.4375"/><stop stop-opacity="1" stop-color="rgb(23.788452%, 23.788452%, 23.788452%)" offset="0.46875"/><stop stop-opacity="1" stop-color="rgb(23.538208%, 23.538208%, 23.538208%)" offset="0.484375"/><stop stop-opacity="1" stop-color="rgb(23.330688%, 23.330688%, 23.330688%)" offset="0.5"/><stop stop-opacity="1" stop-color="rgb(23.123169%, 23.123169%, 23.123169%)" offset="0.515625"/><stop stop-opacity="1" stop-color="rgb(22.915649%, 22.915649%, 22.915649%)" offset="0.53125"/><stop stop-opacity="1" stop-color="rgb(22.706604%, 22.706604%, 22.706604%)" offset="0.546875"/><stop stop-opacity="1" stop-color="rgb(22.499084%, 22.499084%, 22.499084%)" offset="0.5625"/><stop stop-opacity="1" stop-color="rgb(22.291565%, 22.291565%, 22.291565%)" offset="0.578125"/><stop stop-opacity="1" stop-color="rgb(22.084045%, 22.084045%, 22.084045%)" offset="0.59375"/><stop stop-opacity="1" stop-color="rgb(21.876526%, 21.876526%, 21.876526%)" offset="0.609375"/><stop stop-opacity="1" stop-color="rgb(21.66748%, 21.66748%, 21.66748%)" offset="0.625"/><stop stop-opacity="1" stop-color="rgb(21.459961%, 21.459961%, 21.459961%)" offset="0.640625"/><stop stop-opacity="1" stop-color="rgb(21.252441%, 21.252441%, 21.252441%)" offset="0.65625"/><stop stop-opacity="1" stop-color="rgb(21.044922%, 21.044922%, 21.044922%)" offset="0.671875"/><stop stop-opacity="1" stop-color="rgb(20.793152%, 20.793152%, 20.793152%)" offset="0.6875"/><stop stop-opacity="1" stop-color="rgb(20.523071%, 20.523071%, 20.523071%)" offset="0.695313"/><stop stop-opacity="1" stop-color="rgb(20.280457%, 20.280457%, 20.280457%)" offset="0.703125"/><stop stop-opacity="1" stop-color="rgb(20.037842%, 20.037842%, 20.037842%)" offset="0.710938"/><stop stop-opacity="1" stop-color="rgb(19.795227%, 19.795227%, 19.795227%)" offset="0.71875"/><stop stop-opacity="1" stop-color="rgb(19.552612%, 19.552612%, 19.552612%)" offset="0.726563"/><stop stop-opacity="1" stop-color="rgb(19.309998%, 19.309998%, 19.309998%)" offset="0.734375"/><stop stop-opacity="1" stop-color="rgb(19.067383%, 19.067383%, 19.067383%)" offset="0.742188"/><stop stop-opacity="1" stop-color="rgb(18.824768%, 18.824768%, 18.824768%)" offset="0.75"/><stop stop-opacity="1" stop-color="rgb(18.582153%, 18.582153%, 18.582153%)" offset="0.757813"/><stop stop-opacity="1" stop-color="rgb(18.339539%, 18.339539%, 18.339539%)" offset="0.765625"/><stop stop-opacity="1" stop-color="rgb(18.096924%, 18.096924%, 18.096924%)" offset="0.773438"/><stop stop-opacity="1" stop-color="rgb(17.854309%, 17.854309%, 17.854309%)" offset="0.78125"/><stop stop-opacity="1" stop-color="rgb(17.611694%, 17.611694%, 17.611694%)" offset="0.789063"/><stop stop-opacity="1" stop-color="rgb(17.36908%, 17.36908%, 17.36908%)" offset="0.796875"/><stop stop-opacity="1" stop-color="rgb(17.126465%, 17.126465%, 17.126465%)" offset="0.804688"/><stop stop-opacity="1" stop-color="rgb(16.88385%, 16.88385%, 16.88385%)" offset="0.8125"/><stop stop-opacity="1" stop-color="rgb(16.641235%, 16.641235%, 16.641235%)" offset="0.820313"/><stop stop-opacity="1" stop-color="rgb(16.398621%, 16.398621%, 16.398621%)" offset="0.828125"/><stop stop-opacity="1" stop-color="rgb(16.156006%, 16.156006%, 16.156006%)" offset="0.835938"/><stop stop-opacity="1" stop-color="rgb(15.913391%, 15.913391%, 15.913391%)" offset="0.84375"/><stop stop-opacity="1" stop-color="rgb(15.670776%, 15.670776%, 15.670776%)" offset="0.851563"/><stop stop-opacity="1" stop-color="rgb(15.428162%, 15.428162%, 15.428162%)" offset="0.859375"/><stop stop-opacity="1" stop-color="rgb(15.144348%, 15.144348%, 15.144348%)" offset="0.867188"/><stop stop-opacity="1" stop-color="rgb(14.81781%, 14.81781%, 14.81781%)" offset="0.875"/><stop stop-opacity="1" stop-color="rgb(14.489746%, 14.489746%, 14.489746%)" offset="0.882812"/><stop stop-opacity="1" stop-color="rgb(14.160156%, 14.160156%, 14.160156%)" offset="0.890625"/><stop stop-opacity="1" stop-color="rgb(13.832092%, 13.832092%, 13.832092%)" offset="0.898438"/><stop stop-opacity="1" stop-color="rgb(13.504028%, 13.504028%, 13.504028%)" offset="0.90625"/><stop stop-opacity="1" stop-color="rgb(13.175964%, 13.175964%, 13.175964%)" offset="0.914062"/><stop stop-opacity="1" stop-color="rgb(12.8479%, 12.8479%, 12.8479%)" offset="0.921875"/><stop stop-opacity="1" stop-color="rgb(12.519836%, 12.519836%, 12.519836%)" offset="0.929688"/><stop stop-opacity="1" stop-color="rgb(12.191772%, 12.191772%, 12.191772%)" offset="0.9375"/><stop stop-opacity="1" stop-color="rgb(11.863708%, 11.863708%, 11.863708%)" offset="0.945312"/><stop stop-opacity="1" stop-color="rgb(11.535645%, 11.535645%, 11.535645%)" offset="0.953125"/><stop stop-opacity="1" stop-color="rgb(11.206055%, 11.206055%, 11.206055%)" offset="0.960938"/><stop stop-opacity="1" stop-color="rgb(10.877991%, 10.877991%, 10.877991%)" offset="0.96875"/><stop stop-opacity="1" stop-color="rgb(10.656738%, 10.656738%, 10.656738%)" offset="1"/></linearGradient><clipPath id="0a33fc2fb0"><path d="M 84.394531 39.25 L 236 39.25 L 236 54 L 84.394531 54 Z M 84.394531 39.25 " clip-rule="nonzero"/></clipPath><clipPath id="0fbd29205d"><path d="M 235 39.25 L 599.324219 39.25 L 599.324219 64 L 235 64 Z M 235 39.25 " clip-rule="nonzero"/></clipPath><clipPath id="81ddca0974"><path d="M 286 39.25 L 382 39.25 L 382 228.273438 L 286 228.273438 Z M 286 39.25 " clip-rule="nonzero"/></clipPath><clipPath id="9555d87623"><path d="M 409 39.25 L 502 39.25 L 502 228.273438 L 409 228.273438 Z M 409 39.25 " clip-rule="nonzero"/></clipPath><mask id="28bb93611b"><g filter="url(#08e0bd9c87)"><rect x="-60" width="720" fill="#000000" y="-26.249999" height="314.999991" fill-opacity="0.59"/></g></mask><clipPath id="3d7cab61e1"><path d="M 0.359375 0.351562 L 368.78125 0.351562 L 368.78125 29.8125 L 0.359375 29.8125 Z M 0.359375 0.351562 " clip-rule="nonzero"/></clipPath><clipPath id="55900660f0"><rect x="0" width="369" y="0" height="30"/></clipPath><mask id="408d794830"><g filter="url(#08e0bd9c87)"><rect x="-60" width="720" fill="#000000" y="-26.249999" height="314.999991" fill-opacity="0.59"/></g></mask><clipPath id="19648ae2f7"><path d="M 0.0507812 0.0351562 L 13.464844 0.0351562 L 13.464844 18.238281 L 0.0507812 18.238281 Z M 0.0507812 0.0351562 " clip-rule="nonzero"/></clipPath><clipPath id="b3bac0a93c"><rect x="0" width="14" y="0" height="19"/></clipPath><mask id="14ae6cf179"><g filter="url(#08e0bd9c87)"><rect x="-60" width="720" fill="#000000" y="-26.249999" height="314.999991" fill-opacity="0.59"/></g></mask><clipPath id="c38e7b7993"><path d="M 0.675781 0.640625 L 13.851562 0.640625 L 13.851562 18.847656 L 0.675781 18.847656 Z M 0.675781 0.640625 " clip-rule="nonzero"/></clipPath><clipPath id="2b669f4236"><rect x="0" width="14" y="0" height="19"/></clipPath><mask id="d5f2ff5cb4"><g filter="url(#08e0bd9c87)"><rect x="-60" width="720" fill="#000000" y="-26.249999" height="314.999991" fill-opacity="0.66"/></g></mask><clipPath id="d66744f396"><rect x="0" width="49" y="0" height="35"/></clipPath><mask id="417c0eb68b"><g filter="url(#08e0bd9c87)"><rect x="-60" width="720" fill="#000000" y="-26.249999" height="314.999991" fill-opacity="0.59"/></g></mask><clipPath id="a8a8bca697"><path d="M 0.683594 0.597656 L 4.515625 0.597656 L 4.515625 176.902344 L 0.683594 176.902344 Z M 0.683594 0.597656 " clip-rule="nonzero"/></clipPath><clipPath id="9441ac8311"><rect x="0" width="5" y="0" height="177"/></clipPath><mask id="e44a9aa26a"><g filter="url(#08e0bd9c87)"><rect x="-60" width="720" fill="#000000" y="-26.249999" height="314.999991" fill-opacity="0.59"/></g></mask><clipPath id="847f86581a"><path d="M 0.5 0.265625 L 19 0.265625 L 19 4.097656 L 0.5 4.097656 Z M 0.5 0.265625 " clip-rule="nonzero"/></clipPath><clipPath id="bb618a47c9"><rect x="0" width="20" y="0" height="5"/></clipPath><mask id="8ef8864190"><g filter="url(#08e0bd9c87)"><rect x="-60" width="720" fill="#000000" y="-26.249999" height="314.999991" fill-opacity="0.59"/></g></mask><clipPath id="c7835c07a3"><path d="M 0.5 0.921875 L 19 0.921875 L 19 4.753906 L 0.5 4.753906 Z M 0.5 0.921875 " clip-rule="nonzero"/></clipPath><clipPath id="bb92450201"><rect x="0" width="20" y="0" height="5"/></clipPath><mask id="34e50f60dc"><g filter="url(#08e0bd9c87)"><rect x="-60" width="720" fill="#000000" y="-26.249999" height="314.999991" fill-opacity="0.66"/></g></mask><clipPath id="6f78ec2e40"><rect x="0" width="58" y="0" height="32"/></clipPath><mask id="bbc1ab4e85"><g filter="url(#08e0bd9c87)"><rect x="-60" width="720" fill="#000000" y="-26.249999" height="314.999991" fill-opacity="0.59"/></g></mask><clipPath id="dc1f2a2965"><path d="M 0.214844 0.320312 L 155 0.320312 L 155 4.152344 L 0.214844 4.152344 Z M 0.214844 0.320312 " clip-rule="nonzero"/></clipPath><clipPath id="27d0324a3c"><rect x="0" width="156" y="0" height="5"/></clipPath><mask id="503a8dea1a"><g filter="url(#08e0bd9c87)"><rect x="-60" width="720" fill="#000000" y="-26.249999" height="314.999991" fill-opacity="0.59"/></g></mask><clipPath id="add579de34"><path d="M 0.363281 1 L 4.4375 1 L 4.4375 19.339844 L 0.363281 19.339844 Z M 0.363281 1 " clip-rule="nonzero"/></clipPath><clipPath id="64f58605af"><rect x="0" width="5" y="0" height="20"/></clipPath><mask id="3be6927f6d"><g filter="url(#08e0bd9c87)"><rect x="-60" width="720" fill="#000000" y="-26.249999" height="314.999991" fill-opacity="0.59"/></g></mask><clipPath id="7e57080f7e"><path d="M 0.171875 1 L 4.242188 1 L 4.242188 19.339844 L 0.171875 19.339844 Z M 0.171875 1 " clip-rule="nonzero"/></clipPath><clipPath id="a2dc5d4880"><rect x="0" width="5" y="0" height="20"/></clipPath><mask id="30a797ee5c"><g filter="url(#08e0bd9c87)"><rect x="-60" width="720" fill="#000000" y="-26.249999" height="314.999991" fill-opacity="0.66"/></g></mask><clipPath id="f08560ad08"><rect x="0" width="58" y="0" height="28"/></clipPath></defs><g clip-path="url(#15a9a8ee09)"><path fill="#ffffff" d="M 0.570312 0 L 599.429688 0 L 599.429688 262 L 0.570312 262 Z M 0.570312 0 " fill-opacity="1" fill-rule="nonzero"/><path fill="#ffffff" d="M 0.570312 0 L 599.429688 0 L 599.429688 262 L 0.570312 262 Z M 0.570312 0 " fill-opacity="1" fill-rule="nonzero"/></g><g clip-path="url(#0f21c06445)"><g clip-path="url(#e04c266d13)"><path fill="url(#92fab8433a)" d="M 193.019531 129.113281 L 193.019531 228.273438 L 590.082031 228.273438 L 590.082031 129.113281 Z M 193.019531 129.113281 " fill-rule="nonzero"/></g></g><g clip-path="url(#a11740729a)"><g clip-path="url(#18f5cb82be)"><path fill="url(#104c17438c)" d="M 230.476562 53.246094 L 230.476562 131.777344 L 590.082031 131.777344 L 590.082031 53.246094 Z M 230.476562 53.246094 " fill-rule="nonzero"/></g></g><g clip-path="url(#2043db61c9)"><path fill="url(#b7f61a665a)" d="M 142.410156 147.734375 L 142.410156 210.960938 L 167.046875 210.960938 L 167.046875 147.734375 Z M 142.410156 147.734375 " fill-rule="nonzero"/></g><g clip-path="url(#b9d7a783ba)"><g clip-path="url(#bff8b552ef)"><path fill="url(#5bac9c075f)" d="M 97.808594 50.558594 L 97.808594 228.273438 L 230.984375 228.273438 L 230.984375 50.558594 Z M 97.808594 50.558594 " fill-rule="nonzero"/></g></g><path fill="#282828" d="M 175.1875 49.664062 L 175.1875 112.210938 L 133.710938 108.992188 L 133.710938 49.664062 L 127.847656 49.664062 L 127.847656 205.804688 L 133.710938 207.957031 L 133.710938 114.851562 L 175.1875 118.070312 L 174.898438 222.875 L 181.027344 224.644531 L 181.027344 49.664062 Z M 175.1875 49.664062 " fill-opacity="1" fill-rule="nonzero"/><g clip-path="url(#1593c3c012)"><g clip-path="url(#95f9ab24a9)"><path fill="url(#3aafc678a6)" d="M 125.667969 51.550781 L 125.667969 224.0625 L 178.992188 224.0625 L 178.992188 51.550781 Z M 125.667969 51.550781 " fill-rule="nonzero"/></g></g><g clip-path="url(#0a33fc2fb0)"><path fill="#3b3b3b" d="M 84.480469 41.355469 L 235.660156 39.25 L 235.660156 53.902344 L 84.480469 53.996094 Z M 84.480469 41.355469 " fill-opacity="1" fill-rule="nonzero"/></g><g clip-path="url(#0fbd29205d)"><path fill="#2c2c2c" d="M 599.238281 51.890625 L 599.238281 63.222656 L 235.660156 53.902344 L 235.660156 39.25 Z M 599.238281 51.890625 " fill-opacity="1" fill-rule="nonzero"/></g><g clip-path="url(#81ddca0974)"><path stroke-linecap="butt" transform="matrix(2.422724, 0, 0, 2.421525, 84.482218, 39.250602)" fill="none" stroke-linejoin="miter" d="M 109.330321 7.250798 L 109.330321 37.519682 L 96.689589 74.639555 " stroke="#282828" stroke-width="0.93" stroke-opacity="1" stroke-miterlimit="10"/></g><g clip-path="url(#9555d87623)"><path stroke-linecap="butt" transform="matrix(2.422724, 0, 0, 2.421525, 84.482218, 39.250602)" fill="none" stroke-linejoin="miter" d="M 159.01936 8.510657 L 159.01936 37.519682 L 147.489529 71.350371 " stroke="#282828" stroke-width="0.93" stroke-opacity="1" stroke-miterlimit="10"/></g><g mask="url(#28bb93611b)"><g transform="matrix(1, 0, 0, 1, 194, 215)"><g clip-path="url(#55900660f0)"><g clip-path="url(#3d7cab61e1)"><path stroke-linecap="butt" transform="matrix(0.92892, -0.0644617, 0.0644617, 0.92892, 2.364539, 25.756926)" fill="none" stroke-linejoin="miter" d="M -0.00125575 1.998315 L 391.430966 2.000374 " stroke="#403e3e" stroke-width="4" stroke-opacity="1" stroke-miterlimit="4"/></g></g></g></g><g mask="url(#408d794830)"><g transform="matrix(1, 0, 0, 1, 190, 234)"><g clip-path="url(#b3bac0a93c)"><g clip-path="url(#19648ae2f7)"><path stroke-linecap="round" transform="matrix(0.490559, 0.791454, -0.791454, 0.490559, 3.446168, 0.23395)" fill="none" stroke-linejoin="miter" d="M 1.998639 1.999949 L 17.145296 2.000759 " stroke="#403e3e" stroke-width="4" stroke-opacity="1" stroke-miterlimit="4"/></g></g></g></g><g mask="url(#14ae6cf179)"><g transform="matrix(1, 0, 0, 1, 553, 208)"><g clip-path="url(#2b669f4236)"><g clip-path="url(#c38e7b7993)"><path stroke-linecap="round" transform="matrix(0.490559, 0.791454, -0.791454, 0.490559, 3.986701, 0.8272)" fill="none" stroke-linejoin="miter" d="M 2.000474 1.99801 L 17.147131 1.998819 " stroke="#403e3e" stroke-width="4" stroke-opacity="1" stroke-miterlimit="4"/></g></g></g></g><g mask="url(#d5f2ff5cb4)"><g transform="matrix(1, 0, 0, 1, 369, 224)"><g clip-path="url(#d66744f396)"><g fill="#000000" fill-opacity="1"><g transform="translate(3.166342, 26.508361)"><g><path d="M 7.433594 -0.570312 L 6.304688 -15.269531 L 3.601562 -15.0625 L 3.59375 -14.875 C 3.566406 -14.148438 3.367188 -13.527344 2.964844 -13.082031 C 2.503906 -12.570312 1.800781 -12.265625 0.832031 -12.191406 L -0.242188 -12.109375 L -0.0859375 -10.066406 L 3.609375 -10.347656 L 4.378906 -0.335938 Z M 7.433594 -0.570312 "/></g></g></g><g fill="#000000" fill-opacity="1"><g transform="translate(12.614002, 25.78422)"><g><path d="M 9.484375 -15.515625 L 6.265625 -15.265625 L 0.347656 -6.320312 L 0.589844 -3.160156 L 7.382812 -3.679688 L 7.617188 -0.582031 L 10.613281 -0.8125 L 10.375 -3.910156 L 12.585938 -4.078125 L 12.394531 -6.535156 L 10.1875 -6.367188 Z M 2.980469 -5.816406 L 6.722656 -11.480469 L 6.785156 -11.484375 L 7.191406 -6.136719 Z M 2.980469 -5.816406 "/></g></g></g><g fill="#000000" fill-opacity="1"><g transform="translate(26.228533, 24.740698)"><g/></g></g><g fill="#000000" fill-opacity="1"><g transform="translate(31.385558, 24.345424)"><g><path d="M 5.78125 -12.882812 L 5.605469 -15.214844 L 4.078125 -15.101562 C 1.867188 -14.929688 0.761719 -13.640625 0.929688 -11.433594 L 0.984375 -10.730469 L -0.507812 -10.675781 L -0.34375 -8.53125 L 1.140625 -8.707031 L 1.796875 -0.136719 L 4.707031 -0.359375 L 4.050781 -8.929688 L 6.078125 -9.023438 L 5.914062 -11.167969 L 3.894531 -10.953125 L 3.851562 -11.511719 C 3.789062 -12.335938 4.152344 -12.757812 4.976562 -12.820312 Z M 5.78125 -12.882812 "/></g></g></g><g fill="#000000" fill-opacity="1"><g transform="translate(38.316587, 23.814177)"><g><path d="M 5.996094 -9.015625 L 5.832031 -11.164062 L 3.855469 -10.949219 L 3.597656 -14.292969 L 0.6875 -14.070312 L 0.941406 -10.746094 L -0.507812 -10.675781 L -0.34375 -8.53125 L 1.097656 -8.703125 L 1.527344 -3.128906 C 1.691406 -0.980469 2.601562 -0.199219 4.75 -0.363281 L 6.648438 -0.507812 L 6.46875 -2.84375 L 5.5 -2.769531 C 4.777344 -2.714844 4.464844 -2.980469 4.410156 -3.703125 L 4.007812 -8.925781 Z M 5.996094 -9.015625 "/></g></g></g></g></g></g><g mask="url(#417c0eb68b)"><g transform="matrix(1, 0, 0, 1, 66, 43)"><g clip-path="url(#9441ac8311)"><g clip-path="url(#a8a8bca697)"><path stroke-linecap="butt" transform="matrix(0.00000000162517, 0.931154, -0.931154, 0.00000000162517, 4.480365, 2.578081)" fill="none" stroke-linejoin="miter" d="M 0.0000469337 2.000934 L 184.515704 2.000934 " stroke="#403e3e" stroke-width="4" stroke-opacity="1" stroke-miterlimit="4"/></g></g></g></g><g mask="url(#e44a9aa26a)"><g transform="matrix(1, 0, 0, 1, 59, 217)"><g clip-path="url(#bb618a47c9)"><g clip-path="url(#847f86581a)"><path stroke-linecap="round" transform="matrix(0.931154, 0, 0, 0.931154, 0.71088, 0.293368)" fill="none" stroke-linejoin="miter" d="M 2.001106 2.000616 L 17.145284 2.000616 " stroke="#403e3e" stroke-width="4" stroke-opacity="1" stroke-miterlimit="4"/></g></g></g></g><g mask="url(#8ef8864190)"><g transform="matrix(1, 0, 0, 1, 59, 41)"><g clip-path="url(#bb92450201)"><g clip-path="url(#c7835c07a3)"><path stroke-linecap="round" transform="matrix(0.931154, 0, 0, 0.931154, 0.71088, 0.936108)" fill="none" stroke-linejoin="miter" d="M 2.001106 1.998346 L 17.145284 1.998346 " stroke="#403e3e" stroke-width="4" stroke-opacity="1" stroke-miterlimit="4"/></g></g></g></g><g mask="url(#34e50f60dc)"><g transform="matrix(1, 0, 0, 1, 8, 115)"><g clip-path="url(#6f78ec2e40)"><g fill="#000000" fill-opacity="1"><g transform="translate(1.84126, 23.740738)"><g><path d="M 7.660156 -10.0625 C 6.027344 -10.0625 4.699219 -9.402344 3.808594 -8.222656 C 3.914062 -11.367188 5.050781 -12.632812 6.9375 -12.632812 C 8.136719 -12.632812 9.113281 -11.96875 9.339844 -10.996094 L 12.28125 -10.996094 C 11.949219 -13.4375 9.980469 -15.074219 6.9375 -15.074219 C 3.066406 -15.074219 0.847656 -12.363281 0.847656 -7.164062 C 0.847656 -4.742188 1.449219 -2.835938 2.546875 -1.554688 C 3.625 -0.3125 5.261719 0.351562 7.125 0.351562 C 10.457031 0.351562 12.816406 -1.800781 12.816406 -4.929688 C 12.816406 -7.929688 10.769531 -10.0625 7.660156 -10.0625 Z M 7.101562 -2.214844 C 6.273438 -2.214844 5.570312 -2.503906 5.074219 -3.023438 C 4.597656 -3.5 4.328125 -4.183594 4.328125 -4.96875 C 4.328125 -6.542969 5.445312 -7.640625 7.039062 -7.640625 C 8.59375 -7.640625 9.753906 -6.542969 9.753906 -4.929688 C 9.753906 -3.542969 8.863281 -2.214844 7.101562 -2.214844 Z M 7.101562 -2.214844 "/></g></g></g><g fill="#000000" fill-opacity="1"><g transform="translate(15.495725, 23.740738)"><g><path d="M 4.660156 0 L 4.660156 -3.105469 L 1.242188 -3.105469 L 1.242188 0 Z M 4.660156 0 "/></g></g></g><g fill="#000000" fill-opacity="1"><g transform="translate(21.391963, 23.740738)"><g><path d="M 6.832031 0.332031 C 10.539062 0.332031 12.839844 -1.46875 12.839844 -4.328125 C 12.839844 -6.148438 11.78125 -7.539062 10.023438 -8.074219 L 10.023438 -8.160156 C 11.222656 -8.574219 12.113281 -9.773438 12.113281 -11.246094 C 12.113281 -13.585938 10.148438 -15.074219 6.832031 -15.074219 C 3.519531 -15.074219 1.554688 -13.585938 1.554688 -11.246094 C 1.554688 -9.855469 2.445312 -8.675781 3.644531 -8.160156 L 3.644531 -8.074219 C 1.882812 -7.539062 0.828125 -6.148438 0.828125 -4.328125 C 0.828125 -1.46875 3.125 0.332031 6.832031 0.332031 Z M 6.832031 -8.945312 C 5.34375 -8.945312 4.410156 -9.671875 4.410156 -10.851562 C 4.410156 -12.03125 5.300781 -12.714844 6.832031 -12.714844 C 8.367188 -12.714844 9.257812 -12.03125 9.257812 -10.851562 C 9.257812 -9.671875 8.324219 -8.945312 6.832031 -8.945312 Z M 6.832031 -2.050781 C 5.03125 -2.050781 3.894531 -2.960938 3.894531 -4.390625 C 3.894531 -5.859375 4.992188 -6.730469 6.832031 -6.730469 C 8.675781 -6.730469 9.773438 -5.859375 9.773438 -4.390625 C 9.773438 -2.960938 8.636719 -2.050781 6.832031 -2.050781 Z M 6.832031 -2.050781 "/></g></g></g><g fill="#000000" fill-opacity="1"><g transform="translate(35.046428, 23.740738)"><g/></g></g><g fill="#000000" fill-opacity="1"><g transform="translate(40.21858, 23.740738)"><g><path d="M 6.75 -12.402344 L 6.75 -14.742188 L 5.21875 -14.742188 C 3.003906 -14.742188 1.800781 -13.542969 1.800781 -11.328125 L 1.800781 -10.625 L 0.3125 -10.683594 L 0.3125 -8.53125 L 1.800781 -8.59375 L 1.800781 0 L 4.722656 0 L 4.722656 -8.59375 L 6.75 -8.53125 L 6.75 -10.683594 L 4.722656 -10.625 L 4.722656 -11.183594 C 4.722656 -12.011719 5.113281 -12.402344 5.941406 -12.402344 Z M 6.75 -12.402344 "/></g></g></g><g fill="#000000" fill-opacity="1"><g transform="translate(47.169939, 23.740738)"><g><path d="M 6.667969 -8.53125 L 6.667969 -10.683594 L 4.679688 -10.625 L 4.679688 -13.976562 L 1.761719 -13.976562 L 1.761719 -10.644531 L 0.3125 -10.683594 L 0.3125 -8.53125 L 1.761719 -8.59375 L 1.761719 -3.003906 C 1.761719 -0.847656 2.609375 0 4.761719 0 L 6.667969 0 L 6.667969 -2.339844 L 5.695312 -2.339844 C 4.96875 -2.339844 4.679688 -2.628906 4.679688 -3.355469 L 4.679688 -8.59375 Z M 6.667969 -8.53125 "/></g></g></g></g></g></g><g mask="url(#bbc1ab4e85)"><g transform="matrix(1, 0, 0, 1, 83, 21)"><g clip-path="url(#27d0324a3c)"><g clip-path="url(#dc1f2a2965)"><path stroke-linecap="butt" transform="matrix(0.931154, 0.000000000000000164, -0.000000000000000164, 0.931154, 2.282636, 0.397163)" fill="none" stroke-linejoin="miter" d="M -0.00148807 1.998219 L 161.319665 1.998219 " stroke="#403e3e" stroke-width="4" stroke-opacity="1" stroke-miterlimit="4"/></g></g></g></g><g mask="url(#503a8dea1a)"><g transform="matrix(1, 0, 0, 1, 234, 13)"><g clip-path="url(#64f58605af)"><g clip-path="url(#add579de34)"><path stroke-linecap="round" transform="matrix(0, -0.931154, 0.931154, 0, 0.518483, 19.170907)" fill="none" stroke-linejoin="miter" d="M 2.000006 1.997975 L 17.144184 1.997975 " stroke="#403e3e" stroke-width="4" stroke-opacity="1" stroke-miterlimit="4"/></g></g></g></g><g mask="url(#3be6927f6d)"><g transform="matrix(1, 0, 0, 1, 84, 13)"><g clip-path="url(#a2dc5d4880)"><g clip-path="url(#7e57080f7e)"><path stroke-linecap="round" transform="matrix(0, -0.931154, 0.931154, 0, 0.30427, 19.170907)" fill="none" stroke-linejoin="miter" d="M 2.000006 2.001494 L 17.144184 2.001494 " stroke="#403e3e" stroke-width="4" stroke-opacity="1" stroke-miterlimit="4"/></g></g></g></g><g mask="url(#30a797ee5c)"><g transform="matrix(1, 0, 0, 1, 127, 0)"><g clip-path="url(#f08560ad08)"><g fill="#000000" fill-opacity="1"><g transform="translate(1.632972, 18.893428)"><g><path d="M 7.039062 0 C 7.269531 -4.84375 8.574219 -8.074219 12.714844 -12.195312 L 12.714844 -14.742188 L 0.953125 -14.742188 L 0.953125 -11.988281 L 9.214844 -11.988281 C 5.382812 -8.179688 3.601562 -3.996094 3.601562 0 Z M 7.039062 0 "/></g></g></g><g fill="#000000" fill-opacity="1"><g transform="translate(15.287438, 18.893428)"><g><path d="M 4.660156 0 L 4.660156 -3.105469 L 1.242188 -3.105469 L 1.242188 0 Z M 4.660156 0 "/></g></g></g><g fill="#000000" fill-opacity="1"><g transform="translate(21.183675, 18.893428)"><g><path d="M 6.75 0.332031 C 10.230469 0.332031 12.589844 -1.800781 12.589844 -4.96875 C 12.589844 -8.035156 10.414062 -9.960938 7.601562 -9.960938 C 6.460938 -9.960938 5.425781 -9.648438 4.660156 -9.152344 L 4.617188 -9.171875 L 5.113281 -12.050781 L 11.597656 -12.050781 L 11.597656 -14.742188 L 2.835938 -14.742188 L 1.46875 -6.894531 L 4.308594 -6.480469 C 4.992188 -7.0625 5.695312 -7.371094 6.667969 -7.371094 C 8.59375 -7.371094 9.527344 -6.210938 9.527344 -4.84375 C 9.527344 -3.394531 8.46875 -2.277344 6.75 -2.277344 C 5.382812 -2.277344 4.410156 -2.941406 4.078125 -4.164062 L 1.054688 -3.914062 C 1.46875 -1.285156 3.664062 0.332031 6.75 0.332031 Z M 6.75 0.332031 "/></g></g></g><g fill="#000000" fill-opacity="1"><g transform="translate(34.838141, 18.893428)"><g/></g></g><g fill="#000000" fill-opacity="1"><g transform="translate(40.010293, 18.893428)"><g><path d="M 6.75 -12.402344 L 6.75 -14.742188 L 5.21875 -14.742188 C 3.003906 -14.742188 1.800781 -13.542969 1.800781 -11.328125 L 1.800781 -10.625 L 0.3125 -10.683594 L 0.3125 -8.53125 L 1.800781 -8.59375 L 1.800781 0 L 4.722656 0 L 4.722656 -8.59375 L 6.75 -8.53125 L 6.75 -10.683594 L 4.722656 -10.625 L 4.722656 -11.183594 C 4.722656 -12.011719 5.113281 -12.402344 5.941406 -12.402344 Z M 6.75 -12.402344 "/></g></g></g><g fill="#000000" fill-opacity="1"><g transform="translate(46.961652, 18.893428)"><g><path d="M 6.667969 -8.53125 L 6.667969 -10.683594 L 4.679688 -10.625 L 4.679688 -13.976562 L 1.761719 -13.976562 L 1.761719 -10.644531 L 0.3125 -10.683594 L 0.3125 -8.53125 L 1.761719 -8.59375 L 1.761719 -3.003906 C 1.761719 -0.847656 2.609375 0 4.761719 0 L 6.667969 0 L 6.667969 -2.339844 L 5.695312 -2.339844 C 4.96875 -2.339844 4.679688 -2.628906 4.679688 -3.355469 L 4.679688 -8.59375 Z M 6.667969 -8.53125 "/></g></g></g></g></g></g></svg>