<svg xmlns="http://www.w3.org/2000/svg" xmlns:xlink="http://www.w3.org/1999/xlink" width="800" zoomAndPan="magnify" viewBox="0 0 600 262.499992" height="350" preserveAspectRatio="xMidYMid meet" version="1.0"><defs><filter x="0%" y="0%" width="100%" height="100%" id="69ee2a47e8"><feColorMatrix values="0 0 0 0 1 0 0 0 0 1 0 0 0 0 1 0 0 0 1 0" color-interpolation-filters="sRGB"/></filter><g/><clipPath id="0a41f42ee0"><path d="M 0.570312 0 L 599.429688 0 L 599.429688 262 L 0.570312 262 Z M 0.570312 0 " clip-rule="nonzero"/></clipPath><clipPath id="b77216da3b"><path d="M 191 129 L 591 129 L 591 229.394531 L 191 229.394531 Z M 191 129 " clip-rule="nonzero"/></clipPath><clipPath id="4031282f56"><path d="M 557.921875 206.664062 L 191.027344 229.394531 L 228.667969 132.421875 L 590.035156 129.746094 Z M 557.921875 206.664062 " clip-rule="nonzero"/></clipPath><linearGradient x1="44.799996" gradientTransform="matrix(2.434598, 0, 0, 2.433393, 81.958461, 39.442949)" y1="57.580002" x2="208.689986" gradientUnits="userSpaceOnUse" y2="57.580002" id="0a695193e1"><stop stop-opacity="1" stop-color="rgb(31.399536%, 31.399536%, 31.399536%)" offset="0"/><stop stop-opacity="1" stop-color="rgb(31.236267%, 31.236267%, 31.236267%)" offset="0.015625"/><stop stop-opacity="1" stop-color="rgb(30.911255%, 30.911255%, 30.911255%)" offset="0.03125"/><stop stop-opacity="1" stop-color="rgb(30.586243%, 30.586243%, 30.586243%)" offset="0.046875"/><stop stop-opacity="1" stop-color="rgb(30.26123%, 30.26123%, 30.26123%)" offset="0.0625"/><stop stop-opacity="1" stop-color="rgb(29.936218%, 29.936218%, 29.936218%)" offset="0.078125"/><stop stop-opacity="1" stop-color="rgb(29.611206%, 29.611206%, 29.611206%)" offset="0.09375"/><stop stop-opacity="1" stop-color="rgb(29.286194%, 29.286194%, 29.286194%)" offset="0.109375"/><stop stop-opacity="1" stop-color="rgb(28.961182%, 28.961182%, 28.961182%)" offset="0.125"/><stop stop-opacity="1" stop-color="rgb(28.636169%, 28.636169%, 28.636169%)" offset="0.140625"/><stop stop-opacity="1" stop-color="rgb(28.311157%, 28.311157%, 28.311157%)" offset="0.15625"/><stop stop-opacity="1" stop-color="rgb(27.986145%, 27.986145%, 27.986145%)" offset="0.171875"/><stop stop-opacity="1" stop-color="rgb(27.661133%, 27.661133%, 27.661133%)" offset="0.1875"/><stop stop-opacity="1" stop-color="rgb(27.336121%, 27.336121%, 27.336121%)" offset="0.203125"/><stop stop-opacity="1" stop-color="rgb(27.011108%, 27.011108%, 27.011108%)" offset="0.21875"/><stop stop-opacity="1" stop-color="rgb(26.686096%, 26.686096%, 26.686096%)" offset="0.234375"/><stop stop-opacity="1" stop-color="rgb(26.361084%, 26.361084%, 26.361084%)" offset="0.25"/><stop stop-opacity="1" stop-color="rgb(26.036072%, 26.036072%, 26.036072%)" offset="0.265625"/><stop stop-opacity="1" stop-color="rgb(25.71106%, 25.71106%, 25.71106%)" offset="0.28125"/><stop stop-opacity="1" stop-color="rgb(25.386047%, 25.386047%, 25.386047%)" offset="0.296875"/><stop stop-opacity="1" stop-color="rgb(25.061035%, 25.061035%, 25.061035%)" offset="0.3125"/><stop stop-opacity="1" stop-color="rgb(24.736023%, 24.736023%, 24.736023%)" offset="0.328125"/><stop stop-opacity="1" stop-color="rgb(24.411011%, 24.411011%, 24.411011%)" offset="0.34375"/><stop stop-opacity="1" stop-color="rgb(24.085999%, 24.085999%, 24.085999%)" offset="0.359375"/><stop stop-opacity="1" stop-color="rgb(23.760986%, 23.760986%, 23.760986%)" offset="0.375"/><stop stop-opacity="1" stop-color="rgb(23.435974%, 23.435974%, 23.435974%)" offset="0.390625"/><stop stop-opacity="1" stop-color="rgb(23.110962%, 23.110962%, 23.110962%)" offset="0.40625"/><stop stop-opacity="1" stop-color="rgb(22.78595%, 22.78595%, 22.78595%)" offset="0.421875"/><stop stop-opacity="1" stop-color="rgb(22.460938%, 22.460938%, 22.460938%)" offset="0.4375"/><stop stop-opacity="1" stop-color="rgb(22.135925%, 22.135925%, 22.135925%)" offset="0.453125"/><stop stop-opacity="1" stop-color="rgb(21.810913%, 21.810913%, 21.810913%)" offset="0.46875"/><stop stop-opacity="1" stop-color="rgb(21.485901%, 21.485901%, 21.485901%)" offset="0.484375"/><stop stop-opacity="1" stop-color="rgb(21.160889%, 21.160889%, 21.160889%)" offset="0.5"/><stop stop-opacity="1" stop-color="rgb(20.835876%, 20.835876%, 20.835876%)" offset="0.515625"/><stop stop-opacity="1" stop-color="rgb(20.510864%, 20.510864%, 20.510864%)" offset="0.53125"/><stop stop-opacity="1" stop-color="rgb(20.185852%, 20.185852%, 20.185852%)" offset="0.546875"/><stop stop-opacity="1" stop-color="rgb(19.86084%, 19.86084%, 19.86084%)" offset="0.5625"/><stop stop-opacity="1" stop-color="rgb(19.535828%, 19.535828%, 19.535828%)" offset="0.578125"/><stop stop-opacity="1" stop-color="rgb(19.210815%, 19.210815%, 19.210815%)" offset="0.59375"/><stop stop-opacity="1" stop-color="rgb(18.885803%, 18.885803%, 18.885803%)" offset="0.609375"/><stop stop-opacity="1" stop-color="rgb(18.560791%, 18.560791%, 18.560791%)" offset="0.625"/><stop stop-opacity="1" stop-color="rgb(18.235779%, 18.235779%, 18.235779%)" offset="0.640625"/><stop stop-opacity="1" stop-color="rgb(17.910767%, 17.910767%, 17.910767%)" offset="0.65625"/><stop stop-opacity="1" stop-color="rgb(17.585754%, 17.585754%, 17.585754%)" offset="0.671875"/><stop stop-opacity="1" stop-color="rgb(17.260742%, 17.260742%, 17.260742%)" offset="0.6875"/><stop stop-opacity="1" stop-color="rgb(16.93573%, 16.93573%, 16.93573%)" offset="0.703125"/><stop stop-opacity="1" stop-color="rgb(16.610718%, 16.610718%, 16.610718%)" offset="0.71875"/><stop stop-opacity="1" stop-color="rgb(16.285706%, 16.285706%, 16.285706%)" offset="0.734375"/><stop stop-opacity="1" stop-color="rgb(15.960693%, 15.960693%, 15.960693%)" offset="0.75"/><stop stop-opacity="1" stop-color="rgb(15.635681%, 15.635681%, 15.635681%)" offset="0.765625"/><stop stop-opacity="1" stop-color="rgb(15.310669%, 15.310669%, 15.310669%)" offset="0.78125"/><stop stop-opacity="1" stop-color="rgb(14.985657%, 14.985657%, 14.985657%)" offset="0.796875"/><stop stop-opacity="1" stop-color="rgb(14.660645%, 14.660645%, 14.660645%)" offset="0.8125"/><stop stop-opacity="1" stop-color="rgb(14.335632%, 14.335632%, 14.335632%)" offset="0.828125"/><stop stop-opacity="1" stop-color="rgb(14.01062%, 14.01062%, 14.01062%)" offset="0.84375"/><stop stop-opacity="1" stop-color="rgb(13.685608%, 13.685608%, 13.685608%)" offset="0.859375"/><stop stop-opacity="1" stop-color="rgb(13.360596%, 13.360596%, 13.360596%)" offset="0.875"/><stop stop-opacity="1" stop-color="rgb(13.035583%, 13.035583%, 13.035583%)" offset="0.890625"/><stop stop-opacity="1" stop-color="rgb(12.710571%, 12.710571%, 12.710571%)" offset="0.90625"/><stop stop-opacity="1" stop-color="rgb(12.385559%, 12.385559%, 12.385559%)" offset="0.921875"/><stop stop-opacity="1" stop-color="rgb(12.060547%, 12.060547%, 12.060547%)" offset="0.9375"/><stop stop-opacity="1" stop-color="rgb(11.735535%, 11.735535%, 11.735535%)" offset="0.953125"/><stop stop-opacity="1" stop-color="rgb(11.410522%, 11.410522%, 11.410522%)" offset="0.96875"/><stop stop-opacity="1" stop-color="rgb(11.08551%, 11.08551%, 11.08551%)" offset="0.984375"/><stop stop-opacity="1" stop-color="rgb(10.760498%, 10.760498%, 10.760498%)" offset="1"/></linearGradient><clipPath id="d320549f1a"><path d="M 228 53 L 591 53 L 591 133 L 228 133 Z M 228 53 " clip-rule="nonzero"/></clipPath><clipPath id="98d9a3b3de"><path d="M 590.035156 62.65625 L 590.035156 129.746094 L 228.667969 132.421875 L 228.667969 53.507812 Z M 590.035156 62.65625 " clip-rule="nonzero"/></clipPath><linearGradient x1="60.259994" gradientTransform="matrix(2.434598, 0, 0, 2.433393, 81.958461, 39.442949)" y1="21.99" x2="208.689986" gradientUnits="userSpaceOnUse" y2="21.99" id="e8562da215"><stop stop-opacity="1" stop-color="rgb(37.599182%, 37.599182%, 37.599182%)" offset="0"/><stop stop-opacity="1" stop-color="rgb(37.428284%, 37.428284%, 37.428284%)" offset="0.015625"/><stop stop-opacity="1" stop-color="rgb(37.086487%, 37.086487%, 37.086487%)" offset="0.03125"/><stop stop-opacity="1" stop-color="rgb(36.743164%, 36.743164%, 36.743164%)" offset="0.046875"/><stop stop-opacity="1" stop-color="rgb(36.401367%, 36.401367%, 36.401367%)" offset="0.0625"/><stop stop-opacity="1" stop-color="rgb(36.05957%, 36.05957%, 36.05957%)" offset="0.078125"/><stop stop-opacity="1" stop-color="rgb(35.717773%, 35.717773%, 35.717773%)" offset="0.09375"/><stop stop-opacity="1" stop-color="rgb(35.374451%, 35.374451%, 35.374451%)" offset="0.109375"/><stop stop-opacity="1" stop-color="rgb(35.032654%, 35.032654%, 35.032654%)" offset="0.125"/><stop stop-opacity="1" stop-color="rgb(34.690857%, 34.690857%, 34.690857%)" offset="0.140625"/><stop stop-opacity="1" stop-color="rgb(34.347534%, 34.347534%, 34.347534%)" offset="0.15625"/><stop stop-opacity="1" stop-color="rgb(34.005737%, 34.005737%, 34.005737%)" offset="0.171875"/><stop stop-opacity="1" stop-color="rgb(33.66394%, 33.66394%, 33.66394%)" offset="0.1875"/><stop stop-opacity="1" stop-color="rgb(33.322144%, 33.322144%, 33.322144%)" offset="0.203125"/><stop stop-opacity="1" stop-color="rgb(32.978821%, 32.978821%, 32.978821%)" offset="0.21875"/><stop stop-opacity="1" stop-color="rgb(32.637024%, 32.637024%, 32.637024%)" offset="0.234375"/><stop stop-opacity="1" stop-color="rgb(32.295227%, 32.295227%, 32.295227%)" offset="0.25"/><stop stop-opacity="1" stop-color="rgb(31.95343%, 31.95343%, 31.95343%)" offset="0.265625"/><stop stop-opacity="1" stop-color="rgb(31.610107%, 31.610107%, 31.610107%)" offset="0.28125"/><stop stop-opacity="1" stop-color="rgb(31.268311%, 31.268311%, 31.268311%)" offset="0.296875"/><stop stop-opacity="1" stop-color="rgb(30.926514%, 30.926514%, 30.926514%)" offset="0.3125"/><stop stop-opacity="1" stop-color="rgb(30.584717%, 30.584717%, 30.584717%)" offset="0.328125"/><stop stop-opacity="1" stop-color="rgb(30.241394%, 30.241394%, 30.241394%)" offset="0.34375"/><stop stop-opacity="1" stop-color="rgb(29.899597%, 29.899597%, 29.899597%)" offset="0.359375"/><stop stop-opacity="1" stop-color="rgb(29.5578%, 29.5578%, 29.5578%)" offset="0.375"/><stop stop-opacity="1" stop-color="rgb(29.216003%, 29.216003%, 29.216003%)" offset="0.390625"/><stop stop-opacity="1" stop-color="rgb(28.872681%, 28.872681%, 28.872681%)" offset="0.40625"/><stop stop-opacity="1" stop-color="rgb(28.530884%, 28.530884%, 28.530884%)" offset="0.421875"/><stop stop-opacity="1" stop-color="rgb(28.189087%, 28.189087%, 28.189087%)" offset="0.4375"/><stop stop-opacity="1" stop-color="rgb(27.84729%, 27.84729%, 27.84729%)" offset="0.453125"/><stop stop-opacity="1" stop-color="rgb(27.503967%, 27.503967%, 27.503967%)" offset="0.46875"/><stop stop-opacity="1" stop-color="rgb(27.16217%, 27.16217%, 27.16217%)" offset="0.484375"/><stop stop-opacity="1" stop-color="rgb(26.820374%, 26.820374%, 26.820374%)" offset="0.5"/><stop stop-opacity="1" stop-color="rgb(26.478577%, 26.478577%, 26.478577%)" offset="0.515625"/><stop stop-opacity="1" stop-color="rgb(26.135254%, 26.135254%, 26.135254%)" offset="0.53125"/><stop stop-opacity="1" stop-color="rgb(25.793457%, 25.793457%, 25.793457%)" offset="0.546875"/><stop stop-opacity="1" stop-color="rgb(25.45166%, 25.45166%, 25.45166%)" offset="0.5625"/><stop stop-opacity="1" stop-color="rgb(25.109863%, 25.109863%, 25.109863%)" offset="0.578125"/><stop stop-opacity="1" stop-color="rgb(24.766541%, 24.766541%, 24.766541%)" offset="0.59375"/><stop stop-opacity="1" stop-color="rgb(24.424744%, 24.424744%, 24.424744%)" offset="0.609375"/><stop stop-opacity="1" stop-color="rgb(24.082947%, 24.082947%, 24.082947%)" offset="0.625"/><stop stop-opacity="1" stop-color="rgb(23.74115%, 23.74115%, 23.74115%)" offset="0.640625"/><stop stop-opacity="1" stop-color="rgb(23.397827%, 23.397827%, 23.397827%)" offset="0.65625"/><stop stop-opacity="1" stop-color="rgb(23.05603%, 23.05603%, 23.05603%)" offset="0.671875"/><stop stop-opacity="1" stop-color="rgb(22.714233%, 22.714233%, 22.714233%)" offset="0.6875"/><stop stop-opacity="1" stop-color="rgb(22.372437%, 22.372437%, 22.372437%)" offset="0.703125"/><stop stop-opacity="1" stop-color="rgb(22.029114%, 22.029114%, 22.029114%)" offset="0.71875"/><stop stop-opacity="1" stop-color="rgb(21.687317%, 21.687317%, 21.687317%)" offset="0.734375"/><stop stop-opacity="1" stop-color="rgb(21.34552%, 21.34552%, 21.34552%)" offset="0.75"/><stop stop-opacity="1" stop-color="rgb(21.002197%, 21.002197%, 21.002197%)" offset="0.765625"/><stop stop-opacity="1" stop-color="rgb(20.6604%, 20.6604%, 20.6604%)" offset="0.78125"/><stop stop-opacity="1" stop-color="rgb(20.318604%, 20.318604%, 20.318604%)" offset="0.796875"/><stop stop-opacity="1" stop-color="rgb(19.976807%, 19.976807%, 19.976807%)" offset="0.8125"/><stop stop-opacity="1" stop-color="rgb(19.633484%, 19.633484%, 19.633484%)" offset="0.828125"/><stop stop-opacity="1" stop-color="rgb(19.291687%, 19.291687%, 19.291687%)" offset="0.84375"/><stop stop-opacity="1" stop-color="rgb(18.94989%, 18.94989%, 18.94989%)" offset="0.859375"/><stop stop-opacity="1" stop-color="rgb(18.608093%, 18.608093%, 18.608093%)" offset="0.875"/><stop stop-opacity="1" stop-color="rgb(18.264771%, 18.264771%, 18.264771%)" offset="0.890625"/><stop stop-opacity="1" stop-color="rgb(17.922974%, 17.922974%, 17.922974%)" offset="0.90625"/><stop stop-opacity="1" stop-color="rgb(17.581177%, 17.581177%, 17.581177%)" offset="0.921875"/><stop stop-opacity="1" stop-color="rgb(17.23938%, 17.23938%, 17.23938%)" offset="0.9375"/><stop stop-opacity="1" stop-color="rgb(16.896057%, 16.896057%, 16.896057%)" offset="0.953125"/><stop stop-opacity="1" stop-color="rgb(16.55426%, 16.55426%, 16.55426%)" offset="0.96875"/><stop stop-opacity="1" stop-color="rgb(16.212463%, 16.212463%, 16.212463%)" offset="0.984375"/><stop stop-opacity="1" stop-color="rgb(15.870667%, 15.870667%, 15.870667%)" offset="1"/></linearGradient><clipPath id="e965d41a3b"><path d="M 140.167969 148.457031 L 164.929688 148.457031 L 164.929688 211.996094 L 140.167969 211.996094 Z M 140.167969 148.457031 " clip-rule="nonzero"/></clipPath><linearGradient x1="29" gradientTransform="matrix(2.434598, 0, 0, 2.433393, 81.958461, 39.442949)" y1="70.910007" x2="29" gradientUnits="userSpaceOnUse" y2="44.800002" id="23afcdd947"><stop stop-opacity="1" stop-color="rgb(21.537781%, 21.537781%, 21.537781%)" offset="0"/><stop stop-opacity="1" stop-color="rgb(21.435547%, 21.435547%, 21.435547%)" offset="0.03125"/><stop stop-opacity="1" stop-color="rgb(21.231079%, 21.231079%, 21.231079%)" offset="0.0625"/><stop stop-opacity="1" stop-color="rgb(21.026611%, 21.026611%, 21.026611%)" offset="0.09375"/><stop stop-opacity="1" stop-color="rgb(20.822144%, 20.822144%, 20.822144%)" offset="0.125"/><stop stop-opacity="1" stop-color="rgb(20.617676%, 20.617676%, 20.617676%)" offset="0.15625"/><stop stop-opacity="1" stop-color="rgb(20.413208%, 20.413208%, 20.413208%)" offset="0.1875"/><stop stop-opacity="1" stop-color="rgb(20.20874%, 20.20874%, 20.20874%)" offset="0.21875"/><stop stop-opacity="1" stop-color="rgb(20.004272%, 20.004272%, 20.004272%)" offset="0.25"/><stop stop-opacity="1" stop-color="rgb(19.799805%, 19.799805%, 19.799805%)" offset="0.28125"/><stop stop-opacity="1" stop-color="rgb(19.593811%, 19.593811%, 19.593811%)" offset="0.3125"/><stop stop-opacity="1" stop-color="rgb(19.389343%, 19.389343%, 19.389343%)" offset="0.34375"/><stop stop-opacity="1" stop-color="rgb(19.184875%, 19.184875%, 19.184875%)" offset="0.375"/><stop stop-opacity="1" stop-color="rgb(18.980408%, 18.980408%, 18.980408%)" offset="0.40625"/><stop stop-opacity="1" stop-color="rgb(18.77594%, 18.77594%, 18.77594%)" offset="0.4375"/><stop stop-opacity="1" stop-color="rgb(18.571472%, 18.571472%, 18.571472%)" offset="0.46875"/><stop stop-opacity="1" stop-color="rgb(18.367004%, 18.367004%, 18.367004%)" offset="0.5"/><stop stop-opacity="1" stop-color="rgb(18.162537%, 18.162537%, 18.162537%)" offset="0.53125"/><stop stop-opacity="1" stop-color="rgb(17.958069%, 17.958069%, 17.958069%)" offset="0.5625"/><stop stop-opacity="1" stop-color="rgb(17.753601%, 17.753601%, 17.753601%)" offset="0.59375"/><stop stop-opacity="1" stop-color="rgb(17.549133%, 17.549133%, 17.549133%)" offset="0.625"/><stop stop-opacity="1" stop-color="rgb(17.344666%, 17.344666%, 17.344666%)" offset="0.65625"/><stop stop-opacity="1" stop-color="rgb(17.140198%, 17.140198%, 17.140198%)" offset="0.6875"/><stop stop-opacity="1" stop-color="rgb(16.93573%, 16.93573%, 16.93573%)" offset="0.71875"/><stop stop-opacity="1" stop-color="rgb(16.731262%, 16.731262%, 16.731262%)" offset="0.75"/><stop stop-opacity="1" stop-color="rgb(16.526794%, 16.526794%, 16.526794%)" offset="0.78125"/><stop stop-opacity="1" stop-color="rgb(16.322327%, 16.322327%, 16.322327%)" offset="0.8125"/><stop stop-opacity="1" stop-color="rgb(16.117859%, 16.117859%, 16.117859%)" offset="0.84375"/><stop stop-opacity="1" stop-color="rgb(15.913391%, 15.913391%, 15.913391%)" offset="0.875"/><stop stop-opacity="1" stop-color="rgb(15.7547%, 15.7547%, 15.7547%)" offset="1"/></linearGradient><clipPath id="7bff1c79d5"><path d="M 95 50 L 230 50 L 230 229.394531 L 95 229.394531 Z M 95 50 " clip-rule="nonzero"/></clipPath><clipPath id="6de429ac08"><path d="M 95.347656 52.753906 L 95.347656 129.746094 L 124.734375 206.664062 L 140.167969 212.019531 L 140.167969 151.816406 L 164.273438 155.515625 L 164.273438 221.363281 L 191.027344 229.394531 L 229.179688 132.421875 L 229.179688 50.808594 Z M 95.347656 52.753906 " clip-rule="nonzero"/></clipPath><linearGradient x1="32.98" gradientTransform="matrix(2.434598, 0, 0, 2.433393, 81.958461, 39.442949)" y1="78.060002" x2="32.98" gradientUnits="userSpaceOnUse" y2="4.670002" id="b340082256"><stop stop-opacity="1" stop-color="rgb(25.099182%, 25.099182%, 25.099182%)" offset="0"/><stop stop-opacity="1" stop-color="rgb(25.073242%, 25.073242%, 25.073242%)" offset="0.125"/><stop stop-opacity="1" stop-color="rgb(24.94812%, 24.94812%, 24.94812%)" offset="0.1875"/><stop stop-opacity="1" stop-color="rgb(24.749756%, 24.749756%, 24.749756%)" offset="0.25"/><stop stop-opacity="1" stop-color="rgb(24.551392%, 24.551392%, 24.551392%)" offset="0.3125"/><stop stop-opacity="1" stop-color="rgb(24.353027%, 24.353027%, 24.353027%)" offset="0.375"/><stop stop-opacity="1" stop-color="rgb(24.154663%, 24.154663%, 24.154663%)" offset="0.4375"/><stop stop-opacity="1" stop-color="rgb(23.884583%, 23.884583%, 23.884583%)" offset="0.5"/><stop stop-opacity="1" stop-color="rgb(23.599243%, 23.599243%, 23.599243%)" offset="0.515625"/><stop stop-opacity="1" stop-color="rgb(23.374939%, 23.374939%, 23.374939%)" offset="0.53125"/><stop stop-opacity="1" stop-color="rgb(23.149109%, 23.149109%, 23.149109%)" offset="0.546875"/><stop stop-opacity="1" stop-color="rgb(22.924805%, 22.924805%, 22.924805%)" offset="0.5625"/><stop stop-opacity="1" stop-color="rgb(22.698975%, 22.698975%, 22.698975%)" offset="0.578125"/><stop stop-opacity="1" stop-color="rgb(22.47467%, 22.47467%, 22.47467%)" offset="0.59375"/><stop stop-opacity="1" stop-color="rgb(22.24884%, 22.24884%, 22.24884%)" offset="0.609375"/><stop stop-opacity="1" stop-color="rgb(22.024536%, 22.024536%, 22.024536%)" offset="0.625"/><stop stop-opacity="1" stop-color="rgb(21.798706%, 21.798706%, 21.798706%)" offset="0.640625"/><stop stop-opacity="1" stop-color="rgb(21.572876%, 21.572876%, 21.572876%)" offset="0.65625"/><stop stop-opacity="1" stop-color="rgb(21.348572%, 21.348572%, 21.348572%)" offset="0.671875"/><stop stop-opacity="1" stop-color="rgb(21.122742%, 21.122742%, 21.122742%)" offset="0.6875"/><stop stop-opacity="1" stop-color="rgb(20.889282%, 20.889282%, 20.889282%)" offset="0.703125"/><stop stop-opacity="1" stop-color="rgb(20.635986%, 20.635986%, 20.635986%)" offset="0.710937"/><stop stop-opacity="1" stop-color="rgb(20.373535%, 20.373535%, 20.373535%)" offset="0.71875"/><stop stop-opacity="1" stop-color="rgb(20.111084%, 20.111084%, 20.111084%)" offset="0.726562"/><stop stop-opacity="1" stop-color="rgb(19.847107%, 19.847107%, 19.847107%)" offset="0.734375"/><stop stop-opacity="1" stop-color="rgb(19.584656%, 19.584656%, 19.584656%)" offset="0.742188"/><stop stop-opacity="1" stop-color="rgb(19.322205%, 19.322205%, 19.322205%)" offset="0.75"/><stop stop-opacity="1" stop-color="rgb(19.059753%, 19.059753%, 19.059753%)" offset="0.757812"/><stop stop-opacity="1" stop-color="rgb(18.795776%, 18.795776%, 18.795776%)" offset="0.765625"/><stop stop-opacity="1" stop-color="rgb(18.533325%, 18.533325%, 18.533325%)" offset="0.773438"/><stop stop-opacity="1" stop-color="rgb(18.270874%, 18.270874%, 18.270874%)" offset="0.78125"/><stop stop-opacity="1" stop-color="rgb(18.008423%, 18.008423%, 18.008423%)" offset="0.789063"/><stop stop-opacity="1" stop-color="rgb(17.744446%, 17.744446%, 17.744446%)" offset="0.796875"/><stop stop-opacity="1" stop-color="rgb(17.481995%, 17.481995%, 17.481995%)" offset="0.804687"/><stop stop-opacity="1" stop-color="rgb(17.219543%, 17.219543%, 17.219543%)" offset="0.8125"/><stop stop-opacity="1" stop-color="rgb(16.957092%, 16.957092%, 16.957092%)" offset="0.820312"/><stop stop-opacity="1" stop-color="rgb(16.693115%, 16.693115%, 16.693115%)" offset="0.828125"/><stop stop-opacity="1" stop-color="rgb(16.430664%, 16.430664%, 16.430664%)" offset="0.835938"/><stop stop-opacity="1" stop-color="rgb(16.168213%, 16.168213%, 16.168213%)" offset="0.84375"/><stop stop-opacity="1" stop-color="rgb(15.905762%, 15.905762%, 15.905762%)" offset="0.851562"/><stop stop-opacity="1" stop-color="rgb(15.641785%, 15.641785%, 15.641785%)" offset="0.859375"/><stop stop-opacity="1" stop-color="rgb(15.370178%, 15.370178%, 15.370178%)" offset="0.867188"/><stop stop-opacity="1" stop-color="rgb(15.05127%, 15.05127%, 15.05127%)" offset="0.875"/><stop stop-opacity="1" stop-color="rgb(14.69574%, 14.69574%, 14.69574%)" offset="0.882813"/><stop stop-opacity="1" stop-color="rgb(14.34021%, 14.34021%, 14.34021%)" offset="0.890625"/><stop stop-opacity="1" stop-color="rgb(13.98468%, 13.98468%, 13.98468%)" offset="0.898438"/><stop stop-opacity="1" stop-color="rgb(13.62915%, 13.62915%, 13.62915%)" offset="0.90625"/><stop stop-opacity="1" stop-color="rgb(13.273621%, 13.273621%, 13.273621%)" offset="0.914062"/><stop stop-opacity="1" stop-color="rgb(12.918091%, 12.918091%, 12.918091%)" offset="0.921875"/><stop stop-opacity="1" stop-color="rgb(12.562561%, 12.562561%, 12.562561%)" offset="0.929688"/><stop stop-opacity="1" stop-color="rgb(12.207031%, 12.207031%, 12.207031%)" offset="0.9375"/><stop stop-opacity="1" stop-color="rgb(11.851501%, 11.851501%, 11.851501%)" offset="0.945312"/><stop stop-opacity="1" stop-color="rgb(11.495972%, 11.495972%, 11.495972%)" offset="0.953125"/><stop stop-opacity="1" stop-color="rgb(11.140442%, 11.140442%, 11.140442%)" offset="0.960938"/><stop stop-opacity="1" stop-color="rgb(10.784912%, 10.784912%, 10.784912%)" offset="0.96875"/><stop stop-opacity="1" stop-color="rgb(10.603333%, 10.603333%, 10.603333%)" offset="1"/></linearGradient><clipPath id="c137b6a335"><path d="M 123 51 L 177 51 L 177 226 L 123 226 Z M 123 51 " clip-rule="nonzero"/></clipPath><clipPath id="26859b1ecc"><path d="M 171.039062 51.804688 L 171.039062 110.304688 L 129.359375 107.066406 L 129.359375 53.3125 L 123.492188 53.3125 L 123.347656 202.96875 L 124.734375 206.664062 L 129.238281 208.246094 L 129.359375 112.980469 L 171.039062 116.191406 L 171.039062 223.40625 L 176.933594 225.160156 L 176.933594 51.804688 Z M 171.039062 51.804688 " clip-rule="nonzero"/></clipPath><linearGradient x1="28.01" gradientTransform="matrix(2.434598, 0, 0, 2.433393, 81.958461, 39.442949)" y1="5.080002" x2="28.01" gradientUnits="userSpaceOnUse" y2="76.320004" id="0bc74eb054"><stop stop-opacity="1" stop-color="rgb(25.099182%, 25.099182%, 25.099182%)" offset="0"/><stop stop-opacity="1" stop-color="rgb(24.97406%, 24.97406%, 24.97406%)" offset="0.125"/><stop stop-opacity="1" stop-color="rgb(24.665833%, 24.665833%, 24.665833%)" offset="0.25"/><stop stop-opacity="1" stop-color="rgb(24.299622%, 24.299622%, 24.299622%)" offset="0.375"/><stop stop-opacity="1" stop-color="rgb(24.024963%, 24.024963%, 24.024963%)" offset="0.4375"/><stop stop-opacity="1" stop-color="rgb(23.788452%, 23.788452%, 23.788452%)" offset="0.46875"/><stop stop-opacity="1" stop-color="rgb(23.538208%, 23.538208%, 23.538208%)" offset="0.484375"/><stop stop-opacity="1" stop-color="rgb(23.330688%, 23.330688%, 23.330688%)" offset="0.5"/><stop stop-opacity="1" stop-color="rgb(23.123169%, 23.123169%, 23.123169%)" offset="0.515625"/><stop stop-opacity="1" stop-color="rgb(22.915649%, 22.915649%, 22.915649%)" offset="0.53125"/><stop stop-opacity="1" stop-color="rgb(22.706604%, 22.706604%, 22.706604%)" offset="0.546875"/><stop stop-opacity="1" stop-color="rgb(22.499084%, 22.499084%, 22.499084%)" offset="0.5625"/><stop stop-opacity="1" stop-color="rgb(22.291565%, 22.291565%, 22.291565%)" offset="0.578125"/><stop stop-opacity="1" stop-color="rgb(22.084045%, 22.084045%, 22.084045%)" offset="0.59375"/><stop stop-opacity="1" stop-color="rgb(21.876526%, 21.876526%, 21.876526%)" offset="0.609375"/><stop stop-opacity="1" stop-color="rgb(21.66748%, 21.66748%, 21.66748%)" offset="0.625"/><stop stop-opacity="1" stop-color="rgb(21.459961%, 21.459961%, 21.459961%)" offset="0.640625"/><stop stop-opacity="1" stop-color="rgb(21.252441%, 21.252441%, 21.252441%)" offset="0.65625"/><stop stop-opacity="1" stop-color="rgb(21.044922%, 21.044922%, 21.044922%)" offset="0.671875"/><stop stop-opacity="1" stop-color="rgb(20.793152%, 20.793152%, 20.793152%)" offset="0.6875"/><stop stop-opacity="1" stop-color="rgb(20.523071%, 20.523071%, 20.523071%)" offset="0.695313"/><stop stop-opacity="1" stop-color="rgb(20.280457%, 20.280457%, 20.280457%)" offset="0.703125"/><stop stop-opacity="1" stop-color="rgb(20.037842%, 20.037842%, 20.037842%)" offset="0.710938"/><stop stop-opacity="1" stop-color="rgb(19.795227%, 19.795227%, 19.795227%)" offset="0.71875"/><stop stop-opacity="1" stop-color="rgb(19.552612%, 19.552612%, 19.552612%)" offset="0.726562"/><stop stop-opacity="1" stop-color="rgb(19.309998%, 19.309998%, 19.309998%)" offset="0.734375"/><stop stop-opacity="1" stop-color="rgb(19.067383%, 19.067383%, 19.067383%)" offset="0.742188"/><stop stop-opacity="1" stop-color="rgb(18.824768%, 18.824768%, 18.824768%)" offset="0.75"/><stop stop-opacity="1" stop-color="rgb(18.582153%, 18.582153%, 18.582153%)" offset="0.757812"/><stop stop-opacity="1" stop-color="rgb(18.339539%, 18.339539%, 18.339539%)" offset="0.765625"/><stop stop-opacity="1" stop-color="rgb(18.096924%, 18.096924%, 18.096924%)" offset="0.773438"/><stop stop-opacity="1" stop-color="rgb(17.854309%, 17.854309%, 17.854309%)" offset="0.78125"/><stop stop-opacity="1" stop-color="rgb(17.611694%, 17.611694%, 17.611694%)" offset="0.789062"/><stop stop-opacity="1" stop-color="rgb(17.36908%, 17.36908%, 17.36908%)" offset="0.796875"/><stop stop-opacity="1" stop-color="rgb(17.126465%, 17.126465%, 17.126465%)" offset="0.804687"/><stop stop-opacity="1" stop-color="rgb(16.88385%, 16.88385%, 16.88385%)" offset="0.8125"/><stop stop-opacity="1" stop-color="rgb(16.641235%, 16.641235%, 16.641235%)" offset="0.820312"/><stop stop-opacity="1" stop-color="rgb(16.398621%, 16.398621%, 16.398621%)" offset="0.828125"/><stop stop-opacity="1" stop-color="rgb(16.156006%, 16.156006%, 16.156006%)" offset="0.835937"/><stop stop-opacity="1" stop-color="rgb(15.913391%, 15.913391%, 15.913391%)" offset="0.84375"/><stop stop-opacity="1" stop-color="rgb(15.670776%, 15.670776%, 15.670776%)" offset="0.851562"/><stop stop-opacity="1" stop-color="rgb(15.428162%, 15.428162%, 15.428162%)" offset="0.859375"/><stop stop-opacity="1" stop-color="rgb(15.144348%, 15.144348%, 15.144348%)" offset="0.867187"/><stop stop-opacity="1" stop-color="rgb(14.81781%, 14.81781%, 14.81781%)" offset="0.875"/><stop stop-opacity="1" stop-color="rgb(14.489746%, 14.489746%, 14.489746%)" offset="0.882812"/><stop stop-opacity="1" stop-color="rgb(14.160156%, 14.160156%, 14.160156%)" offset="0.890625"/><stop stop-opacity="1" stop-color="rgb(13.832092%, 13.832092%, 13.832092%)" offset="0.898437"/><stop stop-opacity="1" stop-color="rgb(13.504028%, 13.504028%, 13.504028%)" offset="0.90625"/><stop stop-opacity="1" stop-color="rgb(13.175964%, 13.175964%, 13.175964%)" offset="0.914062"/><stop stop-opacity="1" stop-color="rgb(12.8479%, 12.8479%, 12.8479%)" offset="0.921875"/><stop stop-opacity="1" stop-color="rgb(12.519836%, 12.519836%, 12.519836%)" offset="0.929687"/><stop stop-opacity="1" stop-color="rgb(12.191772%, 12.191772%, 12.191772%)" offset="0.9375"/><stop stop-opacity="1" stop-color="rgb(11.863708%, 11.863708%, 11.863708%)" offset="0.945312"/><stop stop-opacity="1" stop-color="rgb(11.535645%, 11.535645%, 11.535645%)" offset="0.953125"/><stop stop-opacity="1" stop-color="rgb(11.206055%, 11.206055%, 11.206055%)" offset="0.960937"/><stop stop-opacity="1" stop-color="rgb(10.877991%, 10.877991%, 10.877991%)" offset="0.96875"/><stop stop-opacity="1" stop-color="rgb(10.656738%, 10.656738%, 10.656738%)" offset="1"/></linearGradient><clipPath id="7d258ad91d"><path d="M 81.871094 39.441406 L 234 39.441406 L 234 55 L 81.871094 55 Z M 81.871094 39.441406 " clip-rule="nonzero"/></clipPath><clipPath id="ce4ab06524"><path d="M 233 39.441406 L 599.324219 39.441406 L 599.324219 64 L 233 64 Z M 233 39.441406 " clip-rule="nonzero"/></clipPath><clipPath id="e43084c0cd"><path d="M 285 39.441406 L 381 39.441406 L 381 229.394531 L 285 229.394531 Z M 285 39.441406 " clip-rule="nonzero"/></clipPath><clipPath id="f0e51ad2c7"><path d="M 409 39.441406 L 502 39.441406 L 502 229.394531 L 409 229.394531 Z M 409 39.441406 " clip-rule="nonzero"/></clipPath><mask id="d57dc55cd1"><g filter="url(#69ee2a47e8)"><rect x="-60" width="720" fill="#000000" y="-26.249999" height="314.999991" fill-opacity="0.59"/></g></mask><clipPath id="13e74df3ef"><path d="M 0.445312 0.308594 L 370.539062 0.308594 L 370.539062 30.011719 L 0.445312 30.011719 Z M 0.445312 0.308594 " clip-rule="nonzero"/></clipPath><clipPath id="9f2ad6534d"><rect x="0" width="371" y="0" height="31"/></clipPath><mask id="681d5d06ba"><g filter="url(#69ee2a47e8)"><rect x="-60" width="720" fill="#000000" y="-26.249999" height="314.999991" fill-opacity="0.59"/></g></mask><clipPath id="81bbdc8b96"><path d="M 0.132812 0.230469 L 13.546875 0.230469 L 13.546875 18.4375 L 0.132812 18.4375 Z M 0.132812 0.230469 " clip-rule="nonzero"/></clipPath><clipPath id="7ebc5c1fd3"><rect x="0" width="14" y="0" height="19"/></clipPath><mask id="a0ab153551"><g filter="url(#69ee2a47e8)"><rect x="-60" width="720" fill="#000000" y="-26.249999" height="314.999991" fill-opacity="0.59"/></g></mask><clipPath id="d202b10cb9"><path d="M 0.4375 0.839844 L 13.851562 0.839844 L 13.851562 18.804688 L 0.4375 18.804688 Z M 0.4375 0.839844 " clip-rule="nonzero"/></clipPath><clipPath id="81580a200a"><rect x="0" width="14" y="0" height="19"/></clipPath><mask id="fd520a63a4"><g filter="url(#69ee2a47e8)"><rect x="-60" width="720" fill="#000000" y="-26.249999" height="314.999991" fill-opacity="0.66"/></g></mask><clipPath id="dcc2fc7ec4"><rect x="0" width="49" y="0" height="35"/></clipPath><mask id="83bfcf3a72"><g filter="url(#69ee2a47e8)"><rect x="-60" width="720" fill="#000000" y="-26.249999" height="314.999991" fill-opacity="0.59"/></g></mask><clipPath id="d67aad5f33"><path d="M 0.0507812 0.835938 L 4 0.835938 L 4 177.859375 L 0.0507812 177.859375 Z M 0.0507812 0.835938 " clip-rule="nonzero"/></clipPath><clipPath id="07cf292d52"><rect x="0" width="5" y="0" height="178"/></clipPath><mask id="9b35365e4b"><g filter="url(#69ee2a47e8)"><rect x="-60" width="720" fill="#000000" y="-26.249999" height="314.999991" fill-opacity="0.59"/></g></mask><clipPath id="807392f542"><path d="M 1 0.222656 L 19 0.222656 L 19 4.296875 L 1 4.296875 Z M 1 0.222656 " clip-rule="nonzero"/></clipPath><clipPath id="f4bd2e71f5"><rect x="0" width="20" y="0" height="5"/></clipPath><mask id="fb79c22374"><g filter="url(#69ee2a47e8)"><rect x="-60" width="720" fill="#000000" y="-26.249999" height="314.999991" fill-opacity="0.59"/></g></mask><clipPath id="abbbd64da9"><path d="M 1 1 L 19 1 L 19 4.992188 L 1 4.992188 Z M 1 1 " clip-rule="nonzero"/></clipPath><clipPath id="75bdd774e5"><rect x="0" width="20" y="0" height="5"/></clipPath><mask id="c21f8ad08e"><g filter="url(#69ee2a47e8)"><rect x="-60" width="720" fill="#000000" y="-26.249999" height="314.999991" fill-opacity="0.66"/></g></mask><clipPath id="3ecbe40d16"><rect x="0" width="58" y="0" height="32"/></clipPath><mask id="7b96e75991"><g filter="url(#69ee2a47e8)"><rect x="-60" width="720" fill="#000000" y="-26.249999" height="314.999991" fill-opacity="0.59"/></g></mask><clipPath id="fd5405eeaf"><path d="M 0.816406 0.320312 L 156 0.320312 L 156 4.390625 L 0.816406 4.390625 Z M 0.816406 0.320312 " clip-rule="nonzero"/></clipPath><clipPath id="10af618c74"><rect x="0" width="157" y="0" height="5"/></clipPath><mask id="a1ae68ba2c"><g filter="url(#69ee2a47e8)"><rect x="-60" width="720" fill="#000000" y="-26.249999" height="314.999991" fill-opacity="0.59"/></g></mask><clipPath id="bac2f36926"><path d="M 0.6875 1 L 4.519531 1 L 4.519531 19.339844 L 0.6875 19.339844 Z M 0.6875 1 " clip-rule="nonzero"/></clipPath><clipPath id="44c395cbd0"><rect x="0" width="5" y="0" height="20"/></clipPath><mask id="88c6873705"><g filter="url(#69ee2a47e8)"><rect x="-60" width="720" fill="#000000" y="-26.249999" height="314.999991" fill-opacity="0.59"/></g></mask><clipPath id="d0226973b3"><path d="M 0.777344 1 L 4.609375 1 L 4.609375 19.339844 L 0.777344 19.339844 Z M 0.777344 1 " clip-rule="nonzero"/></clipPath><clipPath id="33de26bcf9"><rect x="0" width="5" y="0" height="20"/></clipPath><mask id="52dc6c0ff8"><g filter="url(#69ee2a47e8)"><rect x="-60" width="720" fill="#000000" y="-26.249999" height="314.999991" fill-opacity="0.66"/></g></mask><clipPath id="c7feb67274"><rect x="0" width="58" y="0" height="28"/></clipPath></defs><g clip-path="url(#0a41f42ee0)"><path fill="#ffffff" d="M 0.570312 0 L 599.429688 0 L 599.429688 262 L 0.570312 262 Z M 0.570312 0 " fill-opacity="1" fill-rule="nonzero"/><path fill="#ffffff" d="M 0.570312 0 L 599.429688 0 L 599.429688 262 L 0.570312 262 Z M 0.570312 0 " fill-opacity="1" fill-rule="nonzero"/></g><g clip-path="url(#b77216da3b)"><g clip-path="url(#4031282f56)"><path fill="url(#0a695193e1)" d="M 191.027344 129.746094 L 191.027344 229.394531 L 590.035156 229.394531 L 590.035156 129.746094 Z M 191.027344 129.746094 " fill-rule="nonzero"/></g></g><g clip-path="url(#d320549f1a)"><g clip-path="url(#98d9a3b3de)"><path fill="url(#e8562da215)" d="M 228.667969 53.507812 L 228.667969 132.421875 L 590.035156 132.421875 L 590.035156 53.507812 Z M 228.667969 53.507812 " fill-rule="nonzero"/></g></g><g clip-path="url(#e965d41a3b)"><path fill="url(#23afcdd947)" d="M 140.167969 148.457031 L 140.167969 211.996094 L 164.929688 211.996094 L 164.929688 148.457031 Z M 140.167969 148.457031 " fill-rule="nonzero"/></g><g clip-path="url(#7bff1c79d5)"><g clip-path="url(#6de429ac08)"><path fill="url(#b340082256)" d="M 95.347656 50.808594 L 95.347656 229.394531 L 229.179688 229.394531 L 229.179688 50.808594 Z M 95.347656 50.808594 " fill-rule="nonzero"/></g></g><path fill="#282828" d="M 173.109375 49.90625 L 173.109375 112.761719 L 131.429688 109.523438 L 131.429688 49.90625 L 125.539062 49.90625 L 125.539062 206.8125 L 131.429688 208.976562 L 131.429688 115.414062 L 173.109375 118.648438 L 172.816406 223.96875 L 178.976562 225.742188 L 178.976562 49.90625 Z M 173.109375 49.90625 " fill-opacity="1" fill-rule="nonzero"/><g clip-path="url(#c137b6a335)"><g clip-path="url(#26859b1ecc)"><path fill="url(#0bc74eb054)" d="M 123.347656 51.804688 L 123.347656 225.160156 L 176.933594 225.160156 L 176.933594 51.804688 Z M 123.347656 51.804688 " fill-rule="nonzero"/></g></g><g clip-path="url(#7d258ad91d)"><path fill="#3b3b3b" d="M 81.957031 41.558594 L 233.878906 39.441406 L 233.878906 54.164062 L 81.957031 54.261719 Z M 81.957031 41.558594 " fill-opacity="1" fill-rule="nonzero"/></g><g clip-path="url(#ce4ab06524)"><path fill="#2c2c2c" d="M 599.238281 52.144531 L 599.238281 63.535156 L 233.878906 54.164062 L 233.878906 39.441406 Z M 599.238281 52.144531 " fill-opacity="1" fill-rule="nonzero"/></g><g clip-path="url(#e43084c0cd)"><path stroke-linecap="butt" transform="matrix(2.434597, 0, 0, 2.433393, 81.958462, 39.442954)" fill="none" stroke-linejoin="miter" d="M 109.329923 7.250363 L 109.329923 37.519309 L 96.689872 74.639542 " stroke="#282828" stroke-width="0.93" stroke-opacity="1" stroke-miterlimit="10"/></g><g clip-path="url(#f0e51ad2c7)"><path stroke-linecap="butt" transform="matrix(2.434597, 0, 0, 2.433393, 81.958462, 39.442954)" fill="none" stroke-linejoin="miter" d="M 159.020505 8.510499 L 159.020505 37.519309 L 147.49075 71.350346 " stroke="#282828" stroke-width="0.93" stroke-opacity="1" stroke-miterlimit="10"/></g><g mask="url(#d57dc55cd1)"><g transform="matrix(1, 0, 0, 1, 192, 216)"><g clip-path="url(#9f2ad6534d)"><g clip-path="url(#13e74df3ef)"><path stroke-linecap="butt" transform="matrix(0.933473, -0.0647776, 0.0647776, 0.933473, 2.389108, 25.936866)" fill="none" stroke-linejoin="miter" d="M 0.000860798 2.000999 L 391.432345 2.001565 " stroke="#403e3e" stroke-width="4" stroke-opacity="1" stroke-miterlimit="4"/></g></g></g></g><g mask="url(#681d5d06ba)"><g transform="matrix(1, 0, 0, 1, 188, 235)"><g clip-path="url(#7ebc5c1fd3)"><g clip-path="url(#81bbdc8b96)"><path stroke-linecap="round" transform="matrix(0.492963, 0.795333, -0.795333, 0.492963, 3.456452, 0.38193)" fill="none" stroke-linejoin="miter" d="M 1.998561 1.999296 L 17.144364 2.001156 " stroke="#403e3e" stroke-width="4" stroke-opacity="1" stroke-miterlimit="4"/></g></g></g></g><g mask="url(#a0ab153551)"><g transform="matrix(1, 0, 0, 1, 553, 209)"><g clip-path="url(#81580a200a)"><g clip-path="url(#d202b10cb9)"><path stroke-linecap="round" transform="matrix(0.492963, 0.795333, -0.795333, 0.492963, 3.77868, 0.85067)" fill="none" stroke-linejoin="miter" d="M 1.999691 1.997493 L 17.145494 1.999353 " stroke="#403e3e" stroke-width="4" stroke-opacity="1" stroke-miterlimit="4"/></g></g></g></g><g mask="url(#fd520a63a4)"><g transform="matrix(1, 0, 0, 1, 368, 225)"><g clip-path="url(#dcc2fc7ec4)"><g fill="#000000" fill-opacity="1"><g transform="translate(3.052519, 26.736107)"><g><path d="M 7.46875 -0.574219 L 6.335938 -15.34375 L 3.617188 -15.136719 L 3.613281 -14.949219 C 3.585938 -14.214844 3.382812 -13.59375 2.980469 -13.148438 C 2.515625 -12.632812 1.808594 -12.328125 0.835938 -12.253906 L -0.242188 -12.167969 L -0.0859375 -10.117188 L 3.628906 -10.398438 L 4.398438 -0.335938 Z M 7.46875 -0.574219 "/></g></g></g><g fill="#000000" fill-opacity="1"><g transform="translate(12.546482, 26.008417)"><g><path d="M 9.53125 -15.589844 L 6.296875 -15.34375 L 0.347656 -6.351562 L 0.589844 -3.175781 L 7.417969 -3.699219 L 7.65625 -0.585938 L 10.664062 -0.816406 L 10.425781 -3.929688 L 12.644531 -4.101562 L 12.457031 -6.570312 L 10.238281 -6.398438 Z M 2.996094 -5.84375 L 6.753906 -11.539062 L 6.816406 -11.542969 L 7.226562 -6.167969 Z M 2.996094 -5.84375 "/></g></g></g><g fill="#000000" fill-opacity="1"><g transform="translate(26.227739, 24.959781)"><g/></g></g><g fill="#000000" fill-opacity="1"><g transform="translate(31.410039, 24.56257)"><g><path d="M 5.8125 -12.945312 L 5.632812 -15.292969 L 4.097656 -15.171875 C 1.875 -15.003906 0.765625 -13.707031 0.933594 -11.488281 L 0.988281 -10.78125 L -0.507812 -10.730469 L -0.34375 -8.570312 L 1.144531 -8.75 L 1.804688 -0.136719 L 4.730469 -0.363281 L 4.070312 -8.972656 L 6.109375 -9.066406 L 5.945312 -11.226562 L 3.914062 -11.007812 L 3.871094 -11.566406 C 3.808594 -12.398438 4.171875 -12.820312 5.003906 -12.882812 Z M 5.8125 -12.945312 "/></g></g></g><g fill="#000000" fill-opacity="1"><g transform="translate(38.375037, 24.028719)"><g><path d="M 6.027344 -9.058594 L 5.859375 -11.21875 L 3.875 -11.003906 L 3.617188 -14.363281 L 0.691406 -14.140625 L 0.945312 -10.800781 L -0.507812 -10.730469 L -0.34375 -8.570312 L 1.105469 -8.746094 L 1.53125 -3.144531 C 1.699219 -0.984375 2.613281 -0.199219 4.773438 -0.367188 L 6.679688 -0.511719 L 6.5 -2.855469 L 5.527344 -2.78125 C 4.800781 -2.726562 4.488281 -2.996094 4.429688 -3.71875 L 4.027344 -8.96875 Z M 6.027344 -9.058594 "/></g></g></g></g></g></g><g mask="url(#83bfcf3a72)"><g transform="matrix(1, 0, 0, 1, 64, 43)"><g clip-path="url(#07cf292d52)"><g clip-path="url(#d67aad5f33)"><path stroke-linecap="butt" transform="matrix(0, 0.935718, -0.935718, 0, 3.887989, 2.801447)" fill="none" stroke-linejoin="miter" d="M -0.000711832 2.000992 L 184.512587 2.000992 " stroke="#403e3e" stroke-width="4" stroke-opacity="1" stroke-miterlimit="4"/></g></g></g></g><g mask="url(#9b35365e4b)"><g transform="matrix(1, 0, 0, 1, 56, 218)"><g clip-path="url(#f4bd2e71f5)"><g clip-path="url(#807392f542)"><path stroke-linecap="round" transform="matrix(0.935718, 0, 0, 0.935718, 1.065724, 0.358302)" fill="none" stroke-linejoin="miter" d="M 2.000364 2.000782 L 17.145826 2.000782 " stroke="#403e3e" stroke-width="4" stroke-opacity="1" stroke-miterlimit="4"/></g></g></g></g><g mask="url(#fb79c22374)"><g transform="matrix(1, 0, 0, 1, 56, 41)"><g clip-path="url(#75bdd774e5)"><g clip-path="url(#abbbd64da9)"><path stroke-linecap="round" transform="matrix(0.935718, 0, 0, 0.935718, 1.065724, 1.141651)" fill="none" stroke-linejoin="miter" d="M 2.000364 1.998539 L 17.145826 1.998539 " stroke="#403e3e" stroke-width="4" stroke-opacity="1" stroke-miterlimit="4"/></g></g></g></g><g mask="url(#c21f8ad08e)"><g transform="matrix(1, 0, 0, 1, 5, 116)"><g clip-path="url(#3ecbe40d16)"><g fill="#000000" fill-opacity="1"><g transform="translate(1.951691, 23.420668)"><g><path d="M 10.695312 -14.816406 L 7.449219 -14.816406 L 0.832031 -6.304688 L 0.832031 -3.121094 L 7.679688 -3.121094 L 7.679688 0 L 10.695312 0 L 10.695312 -3.121094 L 12.921875 -3.121094 L 12.921875 -5.597656 L 10.695312 -5.597656 Z M 3.433594 -5.597656 L 7.617188 -10.988281 L 7.679688 -10.988281 L 7.679688 -5.597656 Z M 3.433594 -5.597656 "/></g></g></g><g fill="#000000" fill-opacity="1"><g transform="translate(15.673077, 23.420668)"><g><path d="M 4.683594 0 L 4.683594 -3.121094 L 1.25 -3.121094 L 1.25 0 Z M 4.683594 0 "/></g></g></g><g fill="#000000" fill-opacity="1"><g transform="translate(21.598211, 23.420668)"><g><path d="M 6.785156 0.332031 C 10.28125 0.332031 12.652344 -1.808594 12.652344 -4.996094 C 12.652344 -8.074219 10.46875 -10.007812 7.636719 -10.007812 C 6.492188 -10.007812 5.453125 -9.695312 4.683594 -9.199219 L 4.640625 -9.21875 L 5.140625 -12.109375 L 11.652344 -12.109375 L 11.652344 -14.816406 L 2.851562 -14.816406 L 1.476562 -6.929688 L 4.328125 -6.511719 C 5.015625 -7.097656 5.722656 -7.40625 6.699219 -7.40625 C 8.636719 -7.40625 9.570312 -6.242188 9.570312 -4.871094 C 9.570312 -3.414062 8.511719 -2.289062 6.785156 -2.289062 C 5.410156 -2.289062 4.433594 -2.953125 4.097656 -4.183594 L 1.0625 -3.933594 C 1.476562 -1.289062 3.683594 0.332031 6.785156 0.332031 Z M 6.785156 0.332031 "/></g></g></g><g fill="#000000" fill-opacity="1"><g transform="translate(35.319597, 23.420668)"><g/></g></g><g fill="#000000" fill-opacity="1"><g transform="translate(40.517097, 23.420668)"><g><path d="M 6.785156 -12.464844 L 6.785156 -14.816406 L 5.242188 -14.816406 C 3.015625 -14.816406 1.808594 -13.609375 1.808594 -11.382812 L 1.808594 -10.675781 L 0.3125 -10.738281 L 0.3125 -8.574219 L 1.808594 -8.636719 L 1.808594 0 L 4.746094 0 L 4.746094 -8.636719 L 6.785156 -8.574219 L 6.785156 -10.738281 L 4.746094 -10.675781 L 4.746094 -11.238281 C 4.746094 -12.070312 5.140625 -12.464844 5.972656 -12.464844 Z M 6.785156 -12.464844 "/></g></g></g><g fill="#000000" fill-opacity="1"><g transform="translate(47.502524, 23.420668)"><g><path d="M 6.699219 -8.574219 L 6.699219 -10.738281 L 4.703125 -10.675781 L 4.703125 -14.046875 L 1.769531 -14.046875 L 1.769531 -10.695312 L 0.3125 -10.738281 L 0.3125 -8.574219 L 1.769531 -8.636719 L 1.769531 -3.015625 C 1.769531 -0.851562 2.621094 0 4.785156 0 L 6.699219 0 L 6.699219 -2.351562 L 5.722656 -2.351562 C 4.996094 -2.351562 4.703125 -2.644531 4.703125 -3.371094 L 4.703125 -8.636719 Z M 6.699219 -8.574219 "/></g></g></g></g></g></g><g mask="url(#7b96e75991)"><g transform="matrix(1, 0, 0, 1, 80, 21)"><g clip-path="url(#10af618c74)"><g clip-path="url(#fd5405eeaf)"><path stroke-linecap="butt" transform="matrix(0.935718, 0.000000000000000165, -0.000000000000000165, 0.935718, 2.762807, 0.502031)" fill="none" stroke-linejoin="miter" d="M -0.00116252 2.00164 L 161.322214 2.00164 " stroke="#403e3e" stroke-width="4" stroke-opacity="1" stroke-miterlimit="4"/></g></g></g></g><g mask="url(#a1ae68ba2c)"><g transform="matrix(1, 0, 0, 1, 232, 13)"><g clip-path="url(#44c395cbd0)"><g clip-path="url(#bac2f36926)"><path stroke-linecap="round" transform="matrix(0, -0.935718, 0.935718, 0, 0.730064, 19.328576)" fill="none" stroke-linejoin="miter" d="M 2.000117 2.000068 L 17.145578 2.000068 " stroke="#403e3e" stroke-width="4" stroke-opacity="1" stroke-miterlimit="4"/></g></g></g></g><g mask="url(#88c6873705)"><g transform="matrix(1, 0, 0, 1, 81, 13)"><g clip-path="url(#33de26bcf9)"><g clip-path="url(#d0226973b3)"><path stroke-linecap="round" transform="matrix(0, -0.935718, 0.935718, 0, 0.779652, 19.328576)" fill="none" stroke-linejoin="miter" d="M 2.000117 2.001342 L 17.145578 2.001342 " stroke="#403e3e" stroke-width="4" stroke-opacity="1" stroke-miterlimit="4"/></g></g></g></g><g mask="url(#52dc6c0ff8)"><g transform="matrix(1, 0, 0, 1, 125, 0)"><g clip-path="url(#c7feb67274)"><g fill="#000000" fill-opacity="1"><g transform="translate(1.325615, 18.986032)"><g><path d="M 7.074219 0 C 7.304688 -4.871094 8.613281 -8.117188 12.777344 -12.257812 L 12.777344 -14.816406 L 0.957031 -14.816406 L 0.957031 -12.046875 L 9.261719 -12.046875 C 5.410156 -8.21875 3.621094 -4.015625 3.621094 0 Z M 7.074219 0 "/></g></g></g><g fill="#000000" fill-opacity="1"><g transform="translate(15.047, 18.986032)"><g><path d="M 4.683594 0 L 4.683594 -3.121094 L 1.25 -3.121094 L 1.25 0 Z M 4.683594 0 "/></g></g></g><g fill="#000000" fill-opacity="1"><g transform="translate(20.972135, 18.986032)"><g><path d="M 6.785156 0.332031 C 10.28125 0.332031 12.652344 -1.808594 12.652344 -4.996094 C 12.652344 -8.074219 10.46875 -10.007812 7.636719 -10.007812 C 6.492188 -10.007812 5.453125 -9.695312 4.683594 -9.199219 L 4.640625 -9.21875 L 5.140625 -12.109375 L 11.652344 -12.109375 L 11.652344 -14.816406 L 2.851562 -14.816406 L 1.476562 -6.929688 L 4.328125 -6.511719 C 5.015625 -7.097656 5.722656 -7.40625 6.699219 -7.40625 C 8.636719 -7.40625 9.570312 -6.242188 9.570312 -4.871094 C 9.570312 -3.414062 8.511719 -2.289062 6.785156 -2.289062 C 5.410156 -2.289062 4.433594 -2.953125 4.097656 -4.183594 L 1.0625 -3.933594 C 1.476562 -1.289062 3.683594 0.332031 6.785156 0.332031 Z M 6.785156 0.332031 "/></g></g></g><g fill="#000000" fill-opacity="1"><g transform="translate(34.69352, 18.986032)"><g/></g></g><g fill="#000000" fill-opacity="1"><g transform="translate(39.891021, 18.986032)"><g><path d="M 6.785156 -12.464844 L 6.785156 -14.816406 L 5.242188 -14.816406 C 3.015625 -14.816406 1.808594 -13.609375 1.808594 -11.382812 L 1.808594 -10.675781 L 0.3125 -10.738281 L 0.3125 -8.574219 L 1.808594 -8.636719 L 1.808594 0 L 4.746094 0 L 4.746094 -8.636719 L 6.785156 -8.574219 L 6.785156 -10.738281 L 4.746094 -10.675781 L 4.746094 -11.238281 C 4.746094 -12.070312 5.140625 -12.464844 5.972656 -12.464844 Z M 6.785156 -12.464844 "/></g></g></g><g fill="#000000" fill-opacity="1"><g transform="translate(46.876448, 18.986032)"><g><path d="M 6.699219 -8.574219 L 6.699219 -10.738281 L 4.703125 -10.675781 L 4.703125 -14.046875 L 1.769531 -14.046875 L 1.769531 -10.695312 L 0.3125 -10.738281 L 0.3125 -8.574219 L 1.769531 -8.636719 L 1.769531 -3.015625 C 1.769531 -0.851562 2.621094 0 4.785156 0 L 6.699219 0 L 6.699219 -2.351562 L 5.722656 -2.351562 C 4.996094 -2.351562 4.703125 -2.644531 4.703125 -3.371094 L 4.703125 -8.636719 Z M 6.699219 -8.574219 "/></g></g></g></g></g></g></svg>