<svg xmlns="http://www.w3.org/2000/svg" xmlns:xlink="http://www.w3.org/1999/xlink" width="800" zoomAndPan="magnify" viewBox="0 0 600 262.499992" height="350" preserveAspectRatio="xMidYMid meet" version="1.0"><defs><filter x="0%" y="0%" width="100%" height="100%" id="b29e4ecd6a"><feColorMatrix values="0 0 0 0 1 0 0 0 0 1 0 0 0 0 1 0 0 0 1 0" color-interpolation-filters="sRGB"/></filter><g/><clipPath id="3d218dfe35"><path d="M 0.570312 0 L 599.429688 0 L 599.429688 262 L 0.570312 262 Z M 0.570312 0 " clip-rule="nonzero"/></clipPath><clipPath id="0240301a60"><path d="M 190 129 L 590 129 L 590 229.582031 L 190 229.582031 Z M 190 129 " clip-rule="nonzero"/></clipPath><clipPath id="1c3601fccd"><path d="M 557.746094 206.832031 L 190.992188 229.582031 L 228.617188 132.515625 L 589.84375 129.835938 Z M 557.746094 206.832031 " clip-rule="nonzero"/></clipPath><linearGradient x1="44.799995" gradientTransform="matrix(2.433666, 0, 0, 2.435791, 81.963866, 39.442949)" y1="57.580002" x2="208.689986" gradientUnits="userSpaceOnUse" y2="57.580002" id="382e69a5fb"><stop stop-opacity="1" stop-color="rgb(31.399536%, 31.399536%, 31.399536%)" offset="0"/><stop stop-opacity="1" stop-color="rgb(31.236267%, 31.236267%, 31.236267%)" offset="0.015625"/><stop stop-opacity="1" stop-color="rgb(30.911255%, 30.911255%, 30.911255%)" offset="0.03125"/><stop stop-opacity="1" stop-color="rgb(30.586243%, 30.586243%, 30.586243%)" offset="0.046875"/><stop stop-opacity="1" stop-color="rgb(30.26123%, 30.26123%, 30.26123%)" offset="0.0625"/><stop stop-opacity="1" stop-color="rgb(29.936218%, 29.936218%, 29.936218%)" offset="0.078125"/><stop stop-opacity="1" stop-color="rgb(29.611206%, 29.611206%, 29.611206%)" offset="0.09375"/><stop stop-opacity="1" stop-color="rgb(29.286194%, 29.286194%, 29.286194%)" offset="0.109375"/><stop stop-opacity="1" stop-color="rgb(28.961182%, 28.961182%, 28.961182%)" offset="0.125"/><stop stop-opacity="1" stop-color="rgb(28.636169%, 28.636169%, 28.636169%)" offset="0.140625"/><stop stop-opacity="1" stop-color="rgb(28.311157%, 28.311157%, 28.311157%)" offset="0.15625"/><stop stop-opacity="1" stop-color="rgb(27.986145%, 27.986145%, 27.986145%)" offset="0.171875"/><stop stop-opacity="1" stop-color="rgb(27.661133%, 27.661133%, 27.661133%)" offset="0.1875"/><stop stop-opacity="1" stop-color="rgb(27.336121%, 27.336121%, 27.336121%)" offset="0.203125"/><stop stop-opacity="1" stop-color="rgb(27.011108%, 27.011108%, 27.011108%)" offset="0.21875"/><stop stop-opacity="1" stop-color="rgb(26.686096%, 26.686096%, 26.686096%)" offset="0.234375"/><stop stop-opacity="1" stop-color="rgb(26.361084%, 26.361084%, 26.361084%)" offset="0.25"/><stop stop-opacity="1" stop-color="rgb(26.036072%, 26.036072%, 26.036072%)" offset="0.265625"/><stop stop-opacity="1" stop-color="rgb(25.71106%, 25.71106%, 25.71106%)" offset="0.28125"/><stop stop-opacity="1" stop-color="rgb(25.386047%, 25.386047%, 25.386047%)" offset="0.296875"/><stop stop-opacity="1" stop-color="rgb(25.061035%, 25.061035%, 25.061035%)" offset="0.3125"/><stop stop-opacity="1" stop-color="rgb(24.736023%, 24.736023%, 24.736023%)" offset="0.328125"/><stop stop-opacity="1" stop-color="rgb(24.411011%, 24.411011%, 24.411011%)" offset="0.34375"/><stop stop-opacity="1" stop-color="rgb(24.085999%, 24.085999%, 24.085999%)" offset="0.359375"/><stop stop-opacity="1" stop-color="rgb(23.760986%, 23.760986%, 23.760986%)" offset="0.375"/><stop stop-opacity="1" stop-color="rgb(23.435974%, 23.435974%, 23.435974%)" offset="0.390625"/><stop stop-opacity="1" stop-color="rgb(23.110962%, 23.110962%, 23.110962%)" offset="0.40625"/><stop stop-opacity="1" stop-color="rgb(22.78595%, 22.78595%, 22.78595%)" offset="0.421875"/><stop stop-opacity="1" stop-color="rgb(22.460938%, 22.460938%, 22.460938%)" offset="0.4375"/><stop stop-opacity="1" stop-color="rgb(22.135925%, 22.135925%, 22.135925%)" offset="0.453125"/><stop stop-opacity="1" stop-color="rgb(21.810913%, 21.810913%, 21.810913%)" offset="0.46875"/><stop stop-opacity="1" stop-color="rgb(21.485901%, 21.485901%, 21.485901%)" offset="0.484375"/><stop stop-opacity="1" stop-color="rgb(21.160889%, 21.160889%, 21.160889%)" offset="0.5"/><stop stop-opacity="1" stop-color="rgb(20.835876%, 20.835876%, 20.835876%)" offset="0.515625"/><stop stop-opacity="1" stop-color="rgb(20.510864%, 20.510864%, 20.510864%)" offset="0.53125"/><stop stop-opacity="1" stop-color="rgb(20.185852%, 20.185852%, 20.185852%)" offset="0.546875"/><stop stop-opacity="1" stop-color="rgb(19.86084%, 19.86084%, 19.86084%)" offset="0.5625"/><stop stop-opacity="1" stop-color="rgb(19.535828%, 19.535828%, 19.535828%)" offset="0.578125"/><stop stop-opacity="1" stop-color="rgb(19.210815%, 19.210815%, 19.210815%)" offset="0.59375"/><stop stop-opacity="1" stop-color="rgb(18.885803%, 18.885803%, 18.885803%)" offset="0.609375"/><stop stop-opacity="1" stop-color="rgb(18.560791%, 18.560791%, 18.560791%)" offset="0.625"/><stop stop-opacity="1" stop-color="rgb(18.235779%, 18.235779%, 18.235779%)" offset="0.640625"/><stop stop-opacity="1" stop-color="rgb(17.910767%, 17.910767%, 17.910767%)" offset="0.65625"/><stop stop-opacity="1" stop-color="rgb(17.585754%, 17.585754%, 17.585754%)" offset="0.671875"/><stop stop-opacity="1" stop-color="rgb(17.260742%, 17.260742%, 17.260742%)" offset="0.6875"/><stop stop-opacity="1" stop-color="rgb(16.93573%, 16.93573%, 16.93573%)" offset="0.703125"/><stop stop-opacity="1" stop-color="rgb(16.610718%, 16.610718%, 16.610718%)" offset="0.71875"/><stop stop-opacity="1" stop-color="rgb(16.285706%, 16.285706%, 16.285706%)" offset="0.734375"/><stop stop-opacity="1" stop-color="rgb(15.960693%, 15.960693%, 15.960693%)" offset="0.75"/><stop stop-opacity="1" stop-color="rgb(15.635681%, 15.635681%, 15.635681%)" offset="0.765625"/><stop stop-opacity="1" stop-color="rgb(15.310669%, 15.310669%, 15.310669%)" offset="0.78125"/><stop stop-opacity="1" stop-color="rgb(14.985657%, 14.985657%, 14.985657%)" offset="0.796875"/><stop stop-opacity="1" stop-color="rgb(14.660645%, 14.660645%, 14.660645%)" offset="0.8125"/><stop stop-opacity="1" stop-color="rgb(14.335632%, 14.335632%, 14.335632%)" offset="0.828125"/><stop stop-opacity="1" stop-color="rgb(14.01062%, 14.01062%, 14.01062%)" offset="0.84375"/><stop stop-opacity="1" stop-color="rgb(13.685608%, 13.685608%, 13.685608%)" offset="0.859375"/><stop stop-opacity="1" stop-color="rgb(13.360596%, 13.360596%, 13.360596%)" offset="0.875"/><stop stop-opacity="1" stop-color="rgb(13.035583%, 13.035583%, 13.035583%)" offset="0.890625"/><stop stop-opacity="1" stop-color="rgb(12.710571%, 12.710571%, 12.710571%)" offset="0.90625"/><stop stop-opacity="1" stop-color="rgb(12.385559%, 12.385559%, 12.385559%)" offset="0.921875"/><stop stop-opacity="1" stop-color="rgb(12.060547%, 12.060547%, 12.060547%)" offset="0.9375"/><stop stop-opacity="1" stop-color="rgb(11.735535%, 11.735535%, 11.735535%)" offset="0.953125"/><stop stop-opacity="1" stop-color="rgb(11.410522%, 11.410522%, 11.410522%)" offset="0.96875"/><stop stop-opacity="1" stop-color="rgb(11.08551%, 11.08551%, 11.08551%)" offset="0.984375"/><stop stop-opacity="1" stop-color="rgb(10.760498%, 10.760498%, 10.760498%)" offset="1"/></linearGradient><clipPath id="feb5327a9f"><path d="M 228 53 L 590 53 L 590 133 L 228 133 Z M 228 53 " clip-rule="nonzero"/></clipPath><clipPath id="7c1cea47a0"><path d="M 589.84375 62.679688 L 589.84375 129.835938 L 228.617188 132.515625 L 228.617188 53.523438 Z M 589.84375 62.679688 " clip-rule="nonzero"/></clipPath><linearGradient x1="60.259993" gradientTransform="matrix(2.433666, 0, 0, 2.435791, 81.963866, 39.442949)" y1="21.99" x2="208.689986" gradientUnits="userSpaceOnUse" y2="21.99" id="9d253f2492"><stop stop-opacity="1" stop-color="rgb(37.599182%, 37.599182%, 37.599182%)" offset="0"/><stop stop-opacity="1" stop-color="rgb(37.428284%, 37.428284%, 37.428284%)" offset="0.015625"/><stop stop-opacity="1" stop-color="rgb(37.086487%, 37.086487%, 37.086487%)" offset="0.03125"/><stop stop-opacity="1" stop-color="rgb(36.743164%, 36.743164%, 36.743164%)" offset="0.046875"/><stop stop-opacity="1" stop-color="rgb(36.401367%, 36.401367%, 36.401367%)" offset="0.0625"/><stop stop-opacity="1" stop-color="rgb(36.05957%, 36.05957%, 36.05957%)" offset="0.078125"/><stop stop-opacity="1" stop-color="rgb(35.717773%, 35.717773%, 35.717773%)" offset="0.09375"/><stop stop-opacity="1" stop-color="rgb(35.374451%, 35.374451%, 35.374451%)" offset="0.109375"/><stop stop-opacity="1" stop-color="rgb(35.032654%, 35.032654%, 35.032654%)" offset="0.125"/><stop stop-opacity="1" stop-color="rgb(34.690857%, 34.690857%, 34.690857%)" offset="0.140625"/><stop stop-opacity="1" stop-color="rgb(34.347534%, 34.347534%, 34.347534%)" offset="0.15625"/><stop stop-opacity="1" stop-color="rgb(34.005737%, 34.005737%, 34.005737%)" offset="0.171875"/><stop stop-opacity="1" stop-color="rgb(33.66394%, 33.66394%, 33.66394%)" offset="0.1875"/><stop stop-opacity="1" stop-color="rgb(33.322144%, 33.322144%, 33.322144%)" offset="0.203125"/><stop stop-opacity="1" stop-color="rgb(32.978821%, 32.978821%, 32.978821%)" offset="0.21875"/><stop stop-opacity="1" stop-color="rgb(32.637024%, 32.637024%, 32.637024%)" offset="0.234375"/><stop stop-opacity="1" stop-color="rgb(32.295227%, 32.295227%, 32.295227%)" offset="0.25"/><stop stop-opacity="1" stop-color="rgb(31.95343%, 31.95343%, 31.95343%)" offset="0.265625"/><stop stop-opacity="1" stop-color="rgb(31.610107%, 31.610107%, 31.610107%)" offset="0.28125"/><stop stop-opacity="1" stop-color="rgb(31.268311%, 31.268311%, 31.268311%)" offset="0.296875"/><stop stop-opacity="1" stop-color="rgb(30.926514%, 30.926514%, 30.926514%)" offset="0.3125"/><stop stop-opacity="1" stop-color="rgb(30.584717%, 30.584717%, 30.584717%)" offset="0.328125"/><stop stop-opacity="1" stop-color="rgb(30.241394%, 30.241394%, 30.241394%)" offset="0.34375"/><stop stop-opacity="1" stop-color="rgb(29.899597%, 29.899597%, 29.899597%)" offset="0.359375"/><stop stop-opacity="1" stop-color="rgb(29.5578%, 29.5578%, 29.5578%)" offset="0.375"/><stop stop-opacity="1" stop-color="rgb(29.216003%, 29.216003%, 29.216003%)" offset="0.390625"/><stop stop-opacity="1" stop-color="rgb(28.872681%, 28.872681%, 28.872681%)" offset="0.40625"/><stop stop-opacity="1" stop-color="rgb(28.530884%, 28.530884%, 28.530884%)" offset="0.421875"/><stop stop-opacity="1" stop-color="rgb(28.189087%, 28.189087%, 28.189087%)" offset="0.4375"/><stop stop-opacity="1" stop-color="rgb(27.84729%, 27.84729%, 27.84729%)" offset="0.453125"/><stop stop-opacity="1" stop-color="rgb(27.503967%, 27.503967%, 27.503967%)" offset="0.46875"/><stop stop-opacity="1" stop-color="rgb(27.16217%, 27.16217%, 27.16217%)" offset="0.484375"/><stop stop-opacity="1" stop-color="rgb(26.820374%, 26.820374%, 26.820374%)" offset="0.5"/><stop stop-opacity="1" stop-color="rgb(26.478577%, 26.478577%, 26.478577%)" offset="0.515625"/><stop stop-opacity="1" stop-color="rgb(26.135254%, 26.135254%, 26.135254%)" offset="0.53125"/><stop stop-opacity="1" stop-color="rgb(25.793457%, 25.793457%, 25.793457%)" offset="0.546875"/><stop stop-opacity="1" stop-color="rgb(25.45166%, 25.45166%, 25.45166%)" offset="0.5625"/><stop stop-opacity="1" stop-color="rgb(25.109863%, 25.109863%, 25.109863%)" offset="0.578125"/><stop stop-opacity="1" stop-color="rgb(24.766541%, 24.766541%, 24.766541%)" offset="0.59375"/><stop stop-opacity="1" stop-color="rgb(24.424744%, 24.424744%, 24.424744%)" offset="0.609375"/><stop stop-opacity="1" stop-color="rgb(24.082947%, 24.082947%, 24.082947%)" offset="0.625"/><stop stop-opacity="1" stop-color="rgb(23.74115%, 23.74115%, 23.74115%)" offset="0.640625"/><stop stop-opacity="1" stop-color="rgb(23.397827%, 23.397827%, 23.397827%)" offset="0.65625"/><stop stop-opacity="1" stop-color="rgb(23.05603%, 23.05603%, 23.05603%)" offset="0.671875"/><stop stop-opacity="1" stop-color="rgb(22.714233%, 22.714233%, 22.714233%)" offset="0.6875"/><stop stop-opacity="1" stop-color="rgb(22.372437%, 22.372437%, 22.372437%)" offset="0.703125"/><stop stop-opacity="1" stop-color="rgb(22.029114%, 22.029114%, 22.029114%)" offset="0.71875"/><stop stop-opacity="1" stop-color="rgb(21.687317%, 21.687317%, 21.687317%)" offset="0.734375"/><stop stop-opacity="1" stop-color="rgb(21.34552%, 21.34552%, 21.34552%)" offset="0.75"/><stop stop-opacity="1" stop-color="rgb(21.002197%, 21.002197%, 21.002197%)" offset="0.765625"/><stop stop-opacity="1" stop-color="rgb(20.6604%, 20.6604%, 20.6604%)" offset="0.78125"/><stop stop-opacity="1" stop-color="rgb(20.318604%, 20.318604%, 20.318604%)" offset="0.796875"/><stop stop-opacity="1" stop-color="rgb(19.976807%, 19.976807%, 19.976807%)" offset="0.8125"/><stop stop-opacity="1" stop-color="rgb(19.633484%, 19.633484%, 19.633484%)" offset="0.828125"/><stop stop-opacity="1" stop-color="rgb(19.291687%, 19.291687%, 19.291687%)" offset="0.84375"/><stop stop-opacity="1" stop-color="rgb(18.94989%, 18.94989%, 18.94989%)" offset="0.859375"/><stop stop-opacity="1" stop-color="rgb(18.608093%, 18.608093%, 18.608093%)" offset="0.875"/><stop stop-opacity="1" stop-color="rgb(18.264771%, 18.264771%, 18.264771%)" offset="0.890625"/><stop stop-opacity="1" stop-color="rgb(17.922974%, 17.922974%, 17.922974%)" offset="0.90625"/><stop stop-opacity="1" stop-color="rgb(17.581177%, 17.581177%, 17.581177%)" offset="0.921875"/><stop stop-opacity="1" stop-color="rgb(17.23938%, 17.23938%, 17.23938%)" offset="0.9375"/><stop stop-opacity="1" stop-color="rgb(16.896057%, 16.896057%, 16.896057%)" offset="0.953125"/><stop stop-opacity="1" stop-color="rgb(16.55426%, 16.55426%, 16.55426%)" offset="0.96875"/><stop stop-opacity="1" stop-color="rgb(16.212463%, 16.212463%, 16.212463%)" offset="0.984375"/><stop stop-opacity="1" stop-color="rgb(15.870667%, 15.870667%, 15.870667%)" offset="1"/></linearGradient><clipPath id="94a8e1a5d5"><path d="M 140.152344 148.566406 L 164.902344 148.566406 L 164.902344 212.164062 L 140.152344 212.164062 Z M 140.152344 148.566406 " clip-rule="nonzero"/></clipPath><linearGradient x1="29" gradientTransform="matrix(2.433666, 0, 0, 2.435791, 81.963866, 39.442949)" y1="70.910002" x2="29" gradientUnits="userSpaceOnUse" y2="44.799999" id="9de818fec4"><stop stop-opacity="1" stop-color="rgb(21.537781%, 21.537781%, 21.537781%)" offset="0"/><stop stop-opacity="1" stop-color="rgb(21.435547%, 21.435547%, 21.435547%)" offset="0.03125"/><stop stop-opacity="1" stop-color="rgb(21.231079%, 21.231079%, 21.231079%)" offset="0.0625"/><stop stop-opacity="1" stop-color="rgb(21.026611%, 21.026611%, 21.026611%)" offset="0.09375"/><stop stop-opacity="1" stop-color="rgb(20.822144%, 20.822144%, 20.822144%)" offset="0.125"/><stop stop-opacity="1" stop-color="rgb(20.617676%, 20.617676%, 20.617676%)" offset="0.15625"/><stop stop-opacity="1" stop-color="rgb(20.413208%, 20.413208%, 20.413208%)" offset="0.1875"/><stop stop-opacity="1" stop-color="rgb(20.20874%, 20.20874%, 20.20874%)" offset="0.21875"/><stop stop-opacity="1" stop-color="rgb(20.004272%, 20.004272%, 20.004272%)" offset="0.25"/><stop stop-opacity="1" stop-color="rgb(19.799805%, 19.799805%, 19.799805%)" offset="0.28125"/><stop stop-opacity="1" stop-color="rgb(19.593811%, 19.593811%, 19.593811%)" offset="0.3125"/><stop stop-opacity="1" stop-color="rgb(19.389343%, 19.389343%, 19.389343%)" offset="0.34375"/><stop stop-opacity="1" stop-color="rgb(19.184875%, 19.184875%, 19.184875%)" offset="0.375"/><stop stop-opacity="1" stop-color="rgb(18.980408%, 18.980408%, 18.980408%)" offset="0.40625"/><stop stop-opacity="1" stop-color="rgb(18.77594%, 18.77594%, 18.77594%)" offset="0.4375"/><stop stop-opacity="1" stop-color="rgb(18.571472%, 18.571472%, 18.571472%)" offset="0.46875"/><stop stop-opacity="1" stop-color="rgb(18.367004%, 18.367004%, 18.367004%)" offset="0.5"/><stop stop-opacity="1" stop-color="rgb(18.162537%, 18.162537%, 18.162537%)" offset="0.53125"/><stop stop-opacity="1" stop-color="rgb(17.958069%, 17.958069%, 17.958069%)" offset="0.5625"/><stop stop-opacity="1" stop-color="rgb(17.753601%, 17.753601%, 17.753601%)" offset="0.59375"/><stop stop-opacity="1" stop-color="rgb(17.549133%, 17.549133%, 17.549133%)" offset="0.625"/><stop stop-opacity="1" stop-color="rgb(17.344666%, 17.344666%, 17.344666%)" offset="0.65625"/><stop stop-opacity="1" stop-color="rgb(17.140198%, 17.140198%, 17.140198%)" offset="0.6875"/><stop stop-opacity="1" stop-color="rgb(16.93573%, 16.93573%, 16.93573%)" offset="0.71875"/><stop stop-opacity="1" stop-color="rgb(16.731262%, 16.731262%, 16.731262%)" offset="0.75"/><stop stop-opacity="1" stop-color="rgb(16.526794%, 16.526794%, 16.526794%)" offset="0.78125"/><stop stop-opacity="1" stop-color="rgb(16.322327%, 16.322327%, 16.322327%)" offset="0.8125"/><stop stop-opacity="1" stop-color="rgb(16.117859%, 16.117859%, 16.117859%)" offset="0.84375"/><stop stop-opacity="1" stop-color="rgb(15.913391%, 15.913391%, 15.913391%)" offset="0.875"/><stop stop-opacity="1" stop-color="rgb(15.7547%, 15.7547%, 15.7547%)" offset="1"/></linearGradient><clipPath id="4c2ed90cf5"><path d="M 95 50 L 230 50 L 230 229.582031 L 95 229.582031 Z M 95 50 " clip-rule="nonzero"/></clipPath><clipPath id="888c654914"><path d="M 95.347656 52.765625 L 95.347656 129.835938 L 124.722656 206.832031 L 140.152344 212.1875 L 140.152344 151.929688 L 164.246094 155.628906 L 164.246094 221.542969 L 190.992188 229.582031 L 229.128906 132.515625 L 229.128906 50.816406 Z M 95.347656 52.765625 " clip-rule="nonzero"/></clipPath><linearGradient x1="32.98" gradientTransform="matrix(2.433666, 0, 0, 2.435791, 81.963866, 39.442949)" y1="78.059993" x2="32.98" gradientUnits="userSpaceOnUse" y2="4.670002" id="be07188641"><stop stop-opacity="1" stop-color="rgb(25.099182%, 25.099182%, 25.099182%)" offset="0"/><stop stop-opacity="1" stop-color="rgb(25.073242%, 25.073242%, 25.073242%)" offset="0.125"/><stop stop-opacity="1" stop-color="rgb(24.94812%, 24.94812%, 24.94812%)" offset="0.1875"/><stop stop-opacity="1" stop-color="rgb(24.749756%, 24.749756%, 24.749756%)" offset="0.25"/><stop stop-opacity="1" stop-color="rgb(24.551392%, 24.551392%, 24.551392%)" offset="0.3125"/><stop stop-opacity="1" stop-color="rgb(24.353027%, 24.353027%, 24.353027%)" offset="0.375"/><stop stop-opacity="1" stop-color="rgb(24.154663%, 24.154663%, 24.154663%)" offset="0.4375"/><stop stop-opacity="1" stop-color="rgb(23.884583%, 23.884583%, 23.884583%)" offset="0.5"/><stop stop-opacity="1" stop-color="rgb(23.599243%, 23.599243%, 23.599243%)" offset="0.515625"/><stop stop-opacity="1" stop-color="rgb(23.374939%, 23.374939%, 23.374939%)" offset="0.53125"/><stop stop-opacity="1" stop-color="rgb(23.149109%, 23.149109%, 23.149109%)" offset="0.546875"/><stop stop-opacity="1" stop-color="rgb(22.924805%, 22.924805%, 22.924805%)" offset="0.5625"/><stop stop-opacity="1" stop-color="rgb(22.698975%, 22.698975%, 22.698975%)" offset="0.578125"/><stop stop-opacity="1" stop-color="rgb(22.47467%, 22.47467%, 22.47467%)" offset="0.59375"/><stop stop-opacity="1" stop-color="rgb(22.24884%, 22.24884%, 22.24884%)" offset="0.609375"/><stop stop-opacity="1" stop-color="rgb(22.024536%, 22.024536%, 22.024536%)" offset="0.625"/><stop stop-opacity="1" stop-color="rgb(21.798706%, 21.798706%, 21.798706%)" offset="0.640625"/><stop stop-opacity="1" stop-color="rgb(21.572876%, 21.572876%, 21.572876%)" offset="0.65625"/><stop stop-opacity="1" stop-color="rgb(21.348572%, 21.348572%, 21.348572%)" offset="0.671875"/><stop stop-opacity="1" stop-color="rgb(21.122742%, 21.122742%, 21.122742%)" offset="0.6875"/><stop stop-opacity="1" stop-color="rgb(20.889282%, 20.889282%, 20.889282%)" offset="0.703125"/><stop stop-opacity="1" stop-color="rgb(20.635986%, 20.635986%, 20.635986%)" offset="0.710938"/><stop stop-opacity="1" stop-color="rgb(20.373535%, 20.373535%, 20.373535%)" offset="0.71875"/><stop stop-opacity="1" stop-color="rgb(20.111084%, 20.111084%, 20.111084%)" offset="0.726562"/><stop stop-opacity="1" stop-color="rgb(19.847107%, 19.847107%, 19.847107%)" offset="0.734375"/><stop stop-opacity="1" stop-color="rgb(19.584656%, 19.584656%, 19.584656%)" offset="0.742188"/><stop stop-opacity="1" stop-color="rgb(19.322205%, 19.322205%, 19.322205%)" offset="0.75"/><stop stop-opacity="1" stop-color="rgb(19.059753%, 19.059753%, 19.059753%)" offset="0.757812"/><stop stop-opacity="1" stop-color="rgb(18.795776%, 18.795776%, 18.795776%)" offset="0.765625"/><stop stop-opacity="1" stop-color="rgb(18.533325%, 18.533325%, 18.533325%)" offset="0.773438"/><stop stop-opacity="1" stop-color="rgb(18.270874%, 18.270874%, 18.270874%)" offset="0.78125"/><stop stop-opacity="1" stop-color="rgb(18.008423%, 18.008423%, 18.008423%)" offset="0.789062"/><stop stop-opacity="1" stop-color="rgb(17.744446%, 17.744446%, 17.744446%)" offset="0.796875"/><stop stop-opacity="1" stop-color="rgb(17.481995%, 17.481995%, 17.481995%)" offset="0.804688"/><stop stop-opacity="1" stop-color="rgb(17.219543%, 17.219543%, 17.219543%)" offset="0.8125"/><stop stop-opacity="1" stop-color="rgb(16.957092%, 16.957092%, 16.957092%)" offset="0.820313"/><stop stop-opacity="1" stop-color="rgb(16.693115%, 16.693115%, 16.693115%)" offset="0.828125"/><stop stop-opacity="1" stop-color="rgb(16.430664%, 16.430664%, 16.430664%)" offset="0.835938"/><stop stop-opacity="1" stop-color="rgb(16.168213%, 16.168213%, 16.168213%)" offset="0.84375"/><stop stop-opacity="1" stop-color="rgb(15.905762%, 15.905762%, 15.905762%)" offset="0.851562"/><stop stop-opacity="1" stop-color="rgb(15.641785%, 15.641785%, 15.641785%)" offset="0.859375"/><stop stop-opacity="1" stop-color="rgb(15.370178%, 15.370178%, 15.370178%)" offset="0.867188"/><stop stop-opacity="1" stop-color="rgb(15.05127%, 15.05127%, 15.05127%)" offset="0.875"/><stop stop-opacity="1" stop-color="rgb(14.69574%, 14.69574%, 14.69574%)" offset="0.882812"/><stop stop-opacity="1" stop-color="rgb(14.34021%, 14.34021%, 14.34021%)" offset="0.890625"/><stop stop-opacity="1" stop-color="rgb(13.98468%, 13.98468%, 13.98468%)" offset="0.898438"/><stop stop-opacity="1" stop-color="rgb(13.62915%, 13.62915%, 13.62915%)" offset="0.90625"/><stop stop-opacity="1" stop-color="rgb(13.273621%, 13.273621%, 13.273621%)" offset="0.914062"/><stop stop-opacity="1" stop-color="rgb(12.918091%, 12.918091%, 12.918091%)" offset="0.921875"/><stop stop-opacity="1" stop-color="rgb(12.562561%, 12.562561%, 12.562561%)" offset="0.929687"/><stop stop-opacity="1" stop-color="rgb(12.207031%, 12.207031%, 12.207031%)" offset="0.9375"/><stop stop-opacity="1" stop-color="rgb(11.851501%, 11.851501%, 11.851501%)" offset="0.945312"/><stop stop-opacity="1" stop-color="rgb(11.495972%, 11.495972%, 11.495972%)" offset="0.953125"/><stop stop-opacity="1" stop-color="rgb(11.140442%, 11.140442%, 11.140442%)" offset="0.960938"/><stop stop-opacity="1" stop-color="rgb(10.784912%, 10.784912%, 10.784912%)" offset="0.96875"/><stop stop-opacity="1" stop-color="rgb(10.603333%, 10.603333%, 10.603333%)" offset="1"/></linearGradient><clipPath id="71070e9b28"><path d="M 123 51 L 177 51 L 177 226 L 123 226 Z M 123 51 " clip-rule="nonzero"/></clipPath><clipPath id="d49760b513"><path d="M 171.011719 51.816406 L 171.011719 110.375 L 129.347656 107.132812 L 129.347656 53.328125 L 123.480469 53.328125 L 123.335938 203.128906 L 124.722656 206.832031 L 129.226562 208.414062 L 129.347656 113.050781 L 171.011719 116.269531 L 171.011719 223.589844 L 176.902344 225.34375 L 176.902344 51.816406 Z M 171.011719 51.816406 " clip-rule="nonzero"/></clipPath><linearGradient x1="28.01" gradientTransform="matrix(2.433666, 0, 0, 2.435791, 81.963866, 39.442949)" y1="5.080001" x2="28.01" gradientUnits="userSpaceOnUse" y2="76.319998" id="a19a5e4d9e"><stop stop-opacity="1" stop-color="rgb(25.099182%, 25.099182%, 25.099182%)" offset="0"/><stop stop-opacity="1" stop-color="rgb(24.97406%, 24.97406%, 24.97406%)" offset="0.125"/><stop stop-opacity="1" stop-color="rgb(24.665833%, 24.665833%, 24.665833%)" offset="0.25"/><stop stop-opacity="1" stop-color="rgb(24.299622%, 24.299622%, 24.299622%)" offset="0.375"/><stop stop-opacity="1" stop-color="rgb(24.024963%, 24.024963%, 24.024963%)" offset="0.4375"/><stop stop-opacity="1" stop-color="rgb(23.788452%, 23.788452%, 23.788452%)" offset="0.46875"/><stop stop-opacity="1" stop-color="rgb(23.538208%, 23.538208%, 23.538208%)" offset="0.484375"/><stop stop-opacity="1" stop-color="rgb(23.330688%, 23.330688%, 23.330688%)" offset="0.5"/><stop stop-opacity="1" stop-color="rgb(23.123169%, 23.123169%, 23.123169%)" offset="0.515625"/><stop stop-opacity="1" stop-color="rgb(22.915649%, 22.915649%, 22.915649%)" offset="0.53125"/><stop stop-opacity="1" stop-color="rgb(22.706604%, 22.706604%, 22.706604%)" offset="0.546875"/><stop stop-opacity="1" stop-color="rgb(22.499084%, 22.499084%, 22.499084%)" offset="0.5625"/><stop stop-opacity="1" stop-color="rgb(22.291565%, 22.291565%, 22.291565%)" offset="0.578125"/><stop stop-opacity="1" stop-color="rgb(22.084045%, 22.084045%, 22.084045%)" offset="0.59375"/><stop stop-opacity="1" stop-color="rgb(21.876526%, 21.876526%, 21.876526%)" offset="0.609375"/><stop stop-opacity="1" stop-color="rgb(21.66748%, 21.66748%, 21.66748%)" offset="0.625"/><stop stop-opacity="1" stop-color="rgb(21.459961%, 21.459961%, 21.459961%)" offset="0.640625"/><stop stop-opacity="1" stop-color="rgb(21.252441%, 21.252441%, 21.252441%)" offset="0.65625"/><stop stop-opacity="1" stop-color="rgb(21.044922%, 21.044922%, 21.044922%)" offset="0.671875"/><stop stop-opacity="1" stop-color="rgb(20.793152%, 20.793152%, 20.793152%)" offset="0.6875"/><stop stop-opacity="1" stop-color="rgb(20.523071%, 20.523071%, 20.523071%)" offset="0.695312"/><stop stop-opacity="1" stop-color="rgb(20.280457%, 20.280457%, 20.280457%)" offset="0.703125"/><stop stop-opacity="1" stop-color="rgb(20.037842%, 20.037842%, 20.037842%)" offset="0.710938"/><stop stop-opacity="1" stop-color="rgb(19.795227%, 19.795227%, 19.795227%)" offset="0.71875"/><stop stop-opacity="1" stop-color="rgb(19.552612%, 19.552612%, 19.552612%)" offset="0.726562"/><stop stop-opacity="1" stop-color="rgb(19.309998%, 19.309998%, 19.309998%)" offset="0.734375"/><stop stop-opacity="1" stop-color="rgb(19.067383%, 19.067383%, 19.067383%)" offset="0.742187"/><stop stop-opacity="1" stop-color="rgb(18.824768%, 18.824768%, 18.824768%)" offset="0.75"/><stop stop-opacity="1" stop-color="rgb(18.582153%, 18.582153%, 18.582153%)" offset="0.757812"/><stop stop-opacity="1" stop-color="rgb(18.339539%, 18.339539%, 18.339539%)" offset="0.765625"/><stop stop-opacity="1" stop-color="rgb(18.096924%, 18.096924%, 18.096924%)" offset="0.773438"/><stop stop-opacity="1" stop-color="rgb(17.854309%, 17.854309%, 17.854309%)" offset="0.78125"/><stop stop-opacity="1" stop-color="rgb(17.611694%, 17.611694%, 17.611694%)" offset="0.789062"/><stop stop-opacity="1" stop-color="rgb(17.36908%, 17.36908%, 17.36908%)" offset="0.796875"/><stop stop-opacity="1" stop-color="rgb(17.126465%, 17.126465%, 17.126465%)" offset="0.804688"/><stop stop-opacity="1" stop-color="rgb(16.88385%, 16.88385%, 16.88385%)" offset="0.8125"/><stop stop-opacity="1" stop-color="rgb(16.641235%, 16.641235%, 16.641235%)" offset="0.820312"/><stop stop-opacity="1" stop-color="rgb(16.398621%, 16.398621%, 16.398621%)" offset="0.828125"/><stop stop-opacity="1" stop-color="rgb(16.156006%, 16.156006%, 16.156006%)" offset="0.835937"/><stop stop-opacity="1" stop-color="rgb(15.913391%, 15.913391%, 15.913391%)" offset="0.84375"/><stop stop-opacity="1" stop-color="rgb(15.670776%, 15.670776%, 15.670776%)" offset="0.851563"/><stop stop-opacity="1" stop-color="rgb(15.428162%, 15.428162%, 15.428162%)" offset="0.859375"/><stop stop-opacity="1" stop-color="rgb(15.144348%, 15.144348%, 15.144348%)" offset="0.867188"/><stop stop-opacity="1" stop-color="rgb(14.81781%, 14.81781%, 14.81781%)" offset="0.875"/><stop stop-opacity="1" stop-color="rgb(14.489746%, 14.489746%, 14.489746%)" offset="0.882812"/><stop stop-opacity="1" stop-color="rgb(14.160156%, 14.160156%, 14.160156%)" offset="0.890625"/><stop stop-opacity="1" stop-color="rgb(13.832092%, 13.832092%, 13.832092%)" offset="0.898437"/><stop stop-opacity="1" stop-color="rgb(13.504028%, 13.504028%, 13.504028%)" offset="0.90625"/><stop stop-opacity="1" stop-color="rgb(13.175964%, 13.175964%, 13.175964%)" offset="0.914062"/><stop stop-opacity="1" stop-color="rgb(12.8479%, 12.8479%, 12.8479%)" offset="0.921875"/><stop stop-opacity="1" stop-color="rgb(12.519836%, 12.519836%, 12.519836%)" offset="0.929688"/><stop stop-opacity="1" stop-color="rgb(12.191772%, 12.191772%, 12.191772%)" offset="0.9375"/><stop stop-opacity="1" stop-color="rgb(11.863708%, 11.863708%, 11.863708%)" offset="0.945312"/><stop stop-opacity="1" stop-color="rgb(11.535645%, 11.535645%, 11.535645%)" offset="0.953125"/><stop stop-opacity="1" stop-color="rgb(11.206055%, 11.206055%, 11.206055%)" offset="0.960938"/><stop stop-opacity="1" stop-color="rgb(10.877991%, 10.877991%, 10.877991%)" offset="0.96875"/><stop stop-opacity="1" stop-color="rgb(10.656738%, 10.656738%, 10.656738%)" offset="1"/></linearGradient><clipPath id="fef062323d"><path d="M 81.871094 39.441406 L 234 39.441406 L 234 55 L 81.871094 55 Z M 81.871094 39.441406 " clip-rule="nonzero"/></clipPath><clipPath id="1e0119c393"><path d="M 233 39.441406 L 599.136719 39.441406 L 599.136719 64 L 233 64 Z M 233 39.441406 " clip-rule="nonzero"/></clipPath><clipPath id="fa59139a3e"><path d="M 285 39.441406 L 381 39.441406 L 381 229.582031 L 285 229.582031 Z M 285 39.441406 " clip-rule="nonzero"/></clipPath><clipPath id="59e0a8057f"><path d="M 408 39.441406 L 501 39.441406 L 501 229.582031 L 408 229.582031 Z M 408 39.441406 " clip-rule="nonzero"/></clipPath><mask id="715adb6fd6"><g filter="url(#b29e4ecd6a)"><rect x="-60" width="720" fill="#000000" y="-26.249999" height="314.999991" fill-opacity="0.59"/></g></mask><clipPath id="ba3e7f57f1"><path d="M 0.964844 0.308594 L 371.300781 0.308594 L 371.300781 30.011719 L 0.964844 30.011719 Z M 0.964844 0.308594 " clip-rule="nonzero"/></clipPath><clipPath id="ab7e13eed8"><rect x="0" width="372" y="0" height="31"/></clipPath><mask id="a12499b32b"><g filter="url(#b29e4ecd6a)"><rect x="-60" width="720" fill="#000000" y="-26.249999" height="314.999991" fill-opacity="0.59"/></g></mask><clipPath id="0edf52736c"><path d="M 0.132812 0.230469 L 13.070312 0.230469 L 13.070312 17.71875 L 0.132812 17.71875 Z M 0.132812 0.230469 " clip-rule="nonzero"/></clipPath><clipPath id="085baf71f7"><rect x="0" width="14" y="0" height="18"/></clipPath><mask id="b17df43b5d"><g filter="url(#b29e4ecd6a)"><rect x="-60" width="720" fill="#000000" y="-26.249999" height="314.999991" fill-opacity="0.59"/></g></mask><clipPath id="c1968e0e8e"><path d="M 0.4375 0.839844 L 13.371094 0.839844 L 13.371094 18.328125 L 0.4375 18.328125 Z M 0.4375 0.839844 " clip-rule="nonzero"/></clipPath><clipPath id="b88b96411a"><rect x="0" width="14" y="0" height="19"/></clipPath><mask id="26e8fe791f"><g filter="url(#b29e4ecd6a)"><rect x="-60" width="720" fill="#000000" y="-26.249999" height="314.999991" fill-opacity="0.66"/></g></mask><clipPath id="e10f53870b"><rect x="0" width="49" y="0" height="35"/></clipPath><mask id="a118db1656"><g filter="url(#b29e4ecd6a)"><rect x="-60" width="720" fill="#000000" y="-26.249999" height="314.999991" fill-opacity="0.59"/></g></mask><clipPath id="edbfd5da8f"><path d="M 0.0507812 0.355469 L 4 0.355469 L 4 178 L 0.0507812 178 Z M 0.0507812 0.355469 " clip-rule="nonzero"/></clipPath><clipPath id="398dae4f24"><rect x="0" width="5" y="0" height="179"/></clipPath><mask id="74833dc122"><g filter="url(#b29e4ecd6a)"><rect x="-60" width="720" fill="#000000" y="-26.249999" height="314.999991" fill-opacity="0.59"/></g></mask><clipPath id="c966bc650b"><path d="M 1 0.222656 L 19 0.222656 L 19 4.296875 L 1 4.296875 Z M 1 0.222656 " clip-rule="nonzero"/></clipPath><clipPath id="df8bc2984f"><rect x="0" width="20" y="0" height="5"/></clipPath><mask id="bf94403f66"><g filter="url(#b29e4ecd6a)"><rect x="-60" width="720" fill="#000000" y="-26.249999" height="314.999991" fill-opacity="0.59"/></g></mask><clipPath id="e292f77d4a"><path d="M 1 1 L 19 1 L 19 4.992188 L 1 4.992188 Z M 1 1 " clip-rule="nonzero"/></clipPath><clipPath id="0ffbc07bd4"><rect x="0" width="20" y="0" height="5"/></clipPath><mask id="87a9a34404"><g filter="url(#b29e4ecd6a)"><rect x="-60" width="720" fill="#000000" y="-26.249999" height="314.999991" fill-opacity="0.66"/></g></mask><clipPath id="d86148d14c"><rect x="0" width="58" y="0" height="32"/></clipPath><mask id="5aabf099d5"><g filter="url(#b29e4ecd6a)"><rect x="-60" width="720" fill="#000000" y="-26.249999" height="314.999991" fill-opacity="0.59"/></g></mask><clipPath id="5735da9c49"><path d="M 0.339844 0.320312 L 156 0.320312 L 156 4.390625 L 0.339844 4.390625 Z M 0.339844 0.320312 " clip-rule="nonzero"/></clipPath><clipPath id="a1dab11bf6"><rect x="0" width="157" y="0" height="5"/></clipPath><mask id="7ef46fc361"><g filter="url(#b29e4ecd6a)"><rect x="-60" width="720" fill="#000000" y="-26.249999" height="314.999991" fill-opacity="0.59"/></g></mask><clipPath id="b6c75cbfcb"><path d="M 0.6875 0.132812 L 4.519531 0.132812 L 4.519531 18.339844 L 0.6875 18.339844 Z M 0.6875 0.132812 " clip-rule="nonzero"/></clipPath><clipPath id="6cc960c0d1"><rect x="0" width="5" y="0" height="19"/></clipPath><mask id="17514fbcec"><g filter="url(#b29e4ecd6a)"><rect x="-60" width="720" fill="#000000" y="-26.249999" height="314.999991" fill-opacity="0.59"/></g></mask><clipPath id="67c79cb396"><path d="M 0.777344 0.132812 L 4.609375 0.132812 L 4.609375 18.339844 L 0.777344 18.339844 Z M 0.777344 0.132812 " clip-rule="nonzero"/></clipPath><clipPath id="4f10711130"><rect x="0" width="5" y="0" height="19"/></clipPath><mask id="6ee0f0d7d9"><g filter="url(#b29e4ecd6a)"><rect x="-60" width="720" fill="#000000" y="-26.249999" height="314.999991" fill-opacity="0.66"/></g></mask><clipPath id="b84a11765f"><rect x="0" width="36" y="0" height="28"/></clipPath></defs><g clip-path="url(#3d218dfe35)"><path fill="#ffffff" d="M 0.570312 0 L 599.429688 0 L 599.429688 262 L 0.570312 262 Z M 0.570312 0 " fill-opacity="1" fill-rule="nonzero"/><path fill="#ffffff" d="M 0.570312 0 L 599.429688 0 L 599.429688 262 L 0.570312 262 Z M 0.570312 0 " fill-opacity="1" fill-rule="nonzero"/></g><g clip-path="url(#0240301a60)"><g clip-path="url(#1c3601fccd)"><path fill="url(#382e69a5fb)" d="M 190.992188 129.835938 L 190.992188 229.582031 L 589.84375 229.582031 L 589.84375 129.835938 Z M 190.992188 129.835938 " fill-rule="nonzero"/></g></g><g clip-path="url(#feb5327a9f)"><g clip-path="url(#7c1cea47a0)"><path fill="url(#9d253f2492)" d="M 228.617188 53.523438 L 228.617188 132.515625 L 589.84375 132.515625 L 589.84375 53.523438 Z M 228.617188 53.523438 " fill-rule="nonzero"/></g></g><g clip-path="url(#94a8e1a5d5)"><path fill="url(#9de818fec4)" d="M 140.152344 148.566406 L 140.152344 212.164062 L 164.902344 212.164062 L 164.902344 148.566406 Z M 140.152344 148.566406 " fill-rule="nonzero"/></g><g clip-path="url(#4c2ed90cf5)"><g clip-path="url(#888c654914)"><path fill="url(#be07188641)" d="M 95.347656 50.816406 L 95.347656 229.582031 L 229.128906 229.582031 L 229.128906 50.816406 Z M 95.347656 50.816406 " fill-rule="nonzero"/></g></g><path fill="#282828" d="M 173.082031 49.917969 L 173.082031 112.832031 L 131.414062 109.59375 L 131.414062 49.917969 L 125.527344 49.917969 L 125.527344 206.976562 L 131.414062 209.144531 L 131.414062 115.488281 L 173.082031 118.726562 L 172.789062 224.148438 L 178.945312 225.925781 L 178.945312 49.917969 Z M 173.082031 49.917969 " fill-opacity="1" fill-rule="nonzero"/><g clip-path="url(#71070e9b28)"><g clip-path="url(#d49760b513)"><path fill="url(#a19a5e4d9e)" d="M 123.335938 51.816406 L 123.335938 225.34375 L 176.902344 225.34375 L 176.902344 51.816406 Z M 123.335938 51.816406 " fill-rule="nonzero"/></g></g><g clip-path="url(#fef062323d)"><path fill="#3b3b3b" d="M 81.964844 41.5625 L 233.824219 39.441406 L 233.824219 54.179688 L 81.964844 54.277344 Z M 81.964844 41.5625 " fill-opacity="1" fill-rule="nonzero"/></g><g clip-path="url(#1e0119c393)"><path fill="#2c2c2c" d="M 599.042969 52.15625 L 599.042969 63.558594 L 233.824219 54.179688 L 233.824219 39.441406 Z M 599.042969 52.15625 " fill-opacity="1" fill-rule="nonzero"/></g><g clip-path="url(#fa59139a3e)"><path stroke-linecap="butt" transform="matrix(2.433666, 0, 0, 2.435791, 81.963863, 39.442954)" fill="none" stroke-linejoin="miter" d="M 109.329428 7.249641 L 109.329428 37.519264 L 96.689353 74.639844 " stroke="#282828" stroke-width="0.93" stroke-opacity="1" stroke-miterlimit="10"/></g><g clip-path="url(#59e0a8057f)"><path stroke-linecap="butt" transform="matrix(2.433666, 0, 0, 2.435791, 81.963863, 39.442954)" fill="none" stroke-linejoin="miter" d="M 159.01977 8.51014 L 159.01977 37.519264 L 147.490417 71.350679 " stroke="#282828" stroke-width="0.93" stroke-opacity="1" stroke-miterlimit="10"/></g><g mask="url(#715adb6fd6)"><g transform="matrix(1, 0, 0, 1, 191, 216)"><g clip-path="url(#ab7e13eed8)"><g clip-path="url(#ba3e7f57f1)"><path stroke-linecap="butt" transform="matrix(0.746778, -0.0518221, 0.0518221, 0.746778, 3.389108, 25.936983)" fill="none" stroke-linejoin="miter" d="M 0.00108682 2.501092 L 489.29042 2.501799 " stroke="#403e3e" stroke-width="5" stroke-opacity="1" stroke-miterlimit="4"/></g></g></g></g><g mask="url(#a12499b32b)"><g transform="matrix(1, 0, 0, 1, 188, 235)"><g clip-path="url(#085baf71f7)"><g clip-path="url(#0edf52736c)"><path stroke-linecap="round" transform="matrix(0.394371, 0.636267, -0.636267, 0.394371, 3.455765, 0.383158)" fill="none" stroke-linejoin="miter" d="M 2.501726 2.500225 L 21.433979 2.502549 " stroke="#403e3e" stroke-width="5" stroke-opacity="1" stroke-miterlimit="4"/></g></g></g></g><g mask="url(#b17df43b5d)"><g transform="matrix(1, 0, 0, 1, 553, 209)"><g clip-path="url(#b88b96411a)"><g clip-path="url(#c1968e0e8e)"><path stroke-linecap="round" transform="matrix(0.394371, 0.636267, -0.636267, 0.394371, 3.777919, 0.851927)" fill="none" stroke-linejoin="miter" d="M 2.500408 2.502303 L 21.435409 2.500192 " stroke="#403e3e" stroke-width="5" stroke-opacity="1" stroke-miterlimit="4"/></g></g></g></g><g mask="url(#26e8fe791f)"><g transform="matrix(1, 0, 0, 1, 368, 225)"><g clip-path="url(#e10f53870b)"><g fill="#000000" fill-opacity="1"><g transform="translate(3.052314, 26.736268)"><g><path d="M 7.46875 -0.574219 L 6.335938 -15.34375 L 3.617188 -15.136719 L 3.613281 -14.949219 C 3.585938 -14.214844 3.382812 -13.59375 2.980469 -13.148438 C 2.515625 -12.632812 1.808594 -12.328125 0.835938 -12.253906 L -0.242188 -12.167969 L -0.0859375 -10.117188 L 3.628906 -10.398438 L 4.398438 -0.335938 Z M 7.46875 -0.574219 "/></g></g></g><g fill="#000000" fill-opacity="1"><g transform="translate(12.546278, 26.008578)"><g><path d="M 9.53125 -15.589844 L 6.296875 -15.34375 L 0.347656 -6.351562 L 0.589844 -3.175781 L 7.417969 -3.699219 L 7.65625 -0.585938 L 10.664062 -0.816406 L 10.425781 -3.929688 L 12.644531 -4.101562 L 12.457031 -6.570312 L 10.238281 -6.398438 Z M 2.996094 -5.84375 L 6.753906 -11.539062 L 6.816406 -11.542969 L 7.226562 -6.167969 Z M 2.996094 -5.84375 "/></g></g></g><g fill="#000000" fill-opacity="1"><g transform="translate(26.227534, 24.959942)"><g/></g></g><g fill="#000000" fill-opacity="1"><g transform="translate(31.409834, 24.56273)"><g><path d="M 5.8125 -12.945312 L 5.632812 -15.292969 L 4.097656 -15.171875 C 1.875 -15.003906 0.765625 -13.707031 0.933594 -11.488281 L 0.988281 -10.78125 L -0.507812 -10.730469 L -0.34375 -8.570312 L 1.144531 -8.75 L 1.804688 -0.136719 L 4.730469 -0.363281 L 4.070312 -8.972656 L 6.109375 -9.066406 L 5.945312 -11.226562 L 3.914062 -11.007812 L 3.871094 -11.566406 C 3.808594 -12.398438 4.171875 -12.820312 5.003906 -12.882812 Z M 5.8125 -12.945312 "/></g></g></g><g fill="#000000" fill-opacity="1"><g transform="translate(38.374832, 24.02888)"><g><path d="M 6.027344 -9.058594 L 5.859375 -11.21875 L 3.875 -11.003906 L 3.617188 -14.363281 L 0.691406 -14.140625 L 0.945312 -10.800781 L -0.507812 -10.730469 L -0.34375 -8.570312 L 1.105469 -8.746094 L 1.53125 -3.144531 C 1.699219 -0.984375 2.613281 -0.199219 4.773438 -0.367188 L 6.679688 -0.511719 L 6.5 -2.855469 L 5.527344 -2.78125 C 4.800781 -2.726562 4.488281 -2.996094 4.429688 -3.71875 L 4.027344 -8.96875 Z M 6.027344 -9.058594 "/></g></g></g></g></g></g><g mask="url(#a118db1656)"><g transform="matrix(1, 0, 0, 1, 64, 43)"><g clip-path="url(#398dae4f24)"><g clip-path="url(#edbfd5da8f)"><path stroke-linecap="butt" transform="matrix(0.00000000130651, 0.748574, -0.748574, 0.00000000130651, 3.893837, 2.795599)" fill="none" stroke-linejoin="miter" d="M 0.00170446 2.498616 L 230.643328 2.498617 " stroke="#403e3e" stroke-width="5" stroke-opacity="1" stroke-miterlimit="4"/></g></g></g></g><g mask="url(#74833dc122)"><g transform="matrix(1, 0, 0, 1, 56, 218)"><g clip-path="url(#df8bc2984f)"><g clip-path="url(#c966bc650b)"><path stroke-linecap="round" transform="matrix(0.748574, 0, 0, 0.748574, 1.06572, 0.358302)" fill="none" stroke-linejoin="miter" d="M 2.500461 2.500977 L 21.432287 2.500977 " stroke="#403e3e" stroke-width="5" stroke-opacity="1" stroke-miterlimit="4"/></g></g></g></g><g mask="url(#bf94403f66)"><g transform="matrix(1, 0, 0, 1, 56, 41)"><g clip-path="url(#0ffbc07bd4)"><g clip-path="url(#e292f77d4a)"><path stroke-linecap="round" transform="matrix(0.748574, 0, 0, 0.748574, 1.06572, 1.14168)" fill="none" stroke-linejoin="miter" d="M 2.500461 2.498134 L 21.432287 2.498134 " stroke="#403e3e" stroke-width="5" stroke-opacity="1" stroke-miterlimit="4"/></g></g></g></g><g mask="url(#87a9a34404)"><g transform="matrix(1, 0, 0, 1, 5, 116)"><g clip-path="url(#d86148d14c)"><g fill="#000000" fill-opacity="1"><g transform="translate(1.951691, 23.420726)"><g><path d="M 5.367188 -2.582031 C 5.515625 -3.121094 5.953125 -3.453125 7.136719 -4.246094 L 9.15625 -5.597656 C 11.089844 -6.886719 12.195312 -8.488281 12.195312 -10.488281 C 12.195312 -13.277344 10.050781 -15.148438 6.824219 -15.148438 C 3.539062 -15.148438 1.5625 -13.191406 1.5625 -9.882812 L 1.5625 -9.613281 L 4.535156 -9.613281 L 4.535156 -10.03125 C 4.535156 -11.777344 5.410156 -12.589844 6.761719 -12.589844 C 8.054688 -12.589844 8.96875 -11.820312 8.96875 -10.34375 C 8.96875 -9.175781 8.386719 -8.449219 7.34375 -7.679688 L 4.515625 -5.597656 C 2.476562 -4.097656 1.394531 -2.582031 1.394531 0 L 12.339844 0 L 12.339844 -2.582031 Z M 5.367188 -2.582031 "/></g></g></g><g fill="#000000" fill-opacity="1"><g transform="translate(15.673077, 23.420726)"><g><path d="M 4.683594 0 L 4.683594 -3.121094 L 1.25 -3.121094 L 1.25 0 Z M 4.683594 0 "/></g></g></g><g fill="#000000" fill-opacity="1"><g transform="translate(21.598211, 23.420726)"><g><path d="M 6.785156 0.332031 C 10.28125 0.332031 12.652344 -1.808594 12.652344 -4.996094 C 12.652344 -8.074219 10.46875 -10.007812 7.636719 -10.007812 C 6.492188 -10.007812 5.453125 -9.695312 4.683594 -9.199219 L 4.640625 -9.21875 L 5.140625 -12.109375 L 11.652344 -12.109375 L 11.652344 -14.816406 L 2.851562 -14.816406 L 1.476562 -6.929688 L 4.328125 -6.511719 C 5.015625 -7.097656 5.722656 -7.40625 6.699219 -7.40625 C 8.636719 -7.40625 9.570312 -6.242188 9.570312 -4.871094 C 9.570312 -3.414062 8.511719 -2.289062 6.785156 -2.289062 C 5.410156 -2.289062 4.433594 -2.953125 4.097656 -4.183594 L 1.0625 -3.933594 C 1.476562 -1.289062 3.683594 0.332031 6.785156 0.332031 Z M 6.785156 0.332031 "/></g></g></g><g fill="#000000" fill-opacity="1"><g transform="translate(35.319597, 23.420726)"><g/></g></g><g fill="#000000" fill-opacity="1"><g transform="translate(40.517097, 23.420726)"><g><path d="M 6.785156 -12.464844 L 6.785156 -14.816406 L 5.242188 -14.816406 C 3.015625 -14.816406 1.808594 -13.609375 1.808594 -11.382812 L 1.808594 -10.675781 L 0.3125 -10.738281 L 0.3125 -8.574219 L 1.808594 -8.636719 L 1.808594 0 L 4.746094 0 L 4.746094 -8.636719 L 6.785156 -8.574219 L 6.785156 -10.738281 L 4.746094 -10.675781 L 4.746094 -11.238281 C 4.746094 -12.070312 5.140625 -12.464844 5.972656 -12.464844 Z M 6.785156 -12.464844 "/></g></g></g><g fill="#000000" fill-opacity="1"><g transform="translate(47.502524, 23.420726)"><g><path d="M 6.699219 -8.574219 L 6.699219 -10.738281 L 4.703125 -10.675781 L 4.703125 -14.046875 L 1.769531 -14.046875 L 1.769531 -10.695312 L 0.3125 -10.738281 L 0.3125 -8.574219 L 1.769531 -8.636719 L 1.769531 -3.015625 C 1.769531 -0.851562 2.621094 0 4.785156 0 L 6.699219 0 L 6.699219 -2.351562 L 5.722656 -2.351562 C 4.996094 -2.351562 4.703125 -2.644531 4.703125 -3.371094 L 4.703125 -8.636719 Z M 6.699219 -8.574219 "/></g></g></g></g></g></g><g mask="url(#5aabf099d5)"><g transform="matrix(1, 0, 0, 1, 80, 21)"><g clip-path="url(#a1dab11bf6)"><g clip-path="url(#5735da9c49)"><path stroke-linecap="butt" transform="matrix(0.748574, 0.000000000000000198, -0.000000000000000198, 0.748574, 2.762807, 0.502031)" fill="none" stroke-linejoin="miter" d="M -0.00145316 2.50205 L 201.652767 2.50205 " stroke="#403e3e" stroke-width="5" stroke-opacity="1" stroke-miterlimit="4"/></g></g></g></g><g mask="url(#7ef46fc361)"><g transform="matrix(1, 0, 0, 1, 232, 14)"><g clip-path="url(#6cc960c0d1)"><g clip-path="url(#b6c75cbfcb)"><path stroke-linecap="round" transform="matrix(0, -0.748574, 0.748574, 0, 0.728602, 18.327114)" fill="none" stroke-linejoin="miter" d="M 2.498193 2.502038 L 21.43002 2.502038 " stroke="#403e3e" stroke-width="5" stroke-opacity="1" stroke-miterlimit="4"/></g></g></g></g><g mask="url(#17514fbcec)"><g transform="matrix(1, 0, 0, 1, 81, 14)"><g clip-path="url(#4f10711130)"><g clip-path="url(#67c79cb396)"><path stroke-linecap="round" transform="matrix(0, -0.748574, 0.748574, 0, 0.778183, 18.327114)" fill="none" stroke-linejoin="miter" d="M 2.498193 2.498423 L 21.43002 2.498423 " stroke="#403e3e" stroke-width="5" stroke-opacity="1" stroke-miterlimit="4"/></g></g></g></g><g mask="url(#6ee0f0d7d9)"><g transform="matrix(1, 0, 0, 1, 135, 0)"><g clip-path="url(#b84a11765f)"><g fill="#000000" fill-opacity="1"><g transform="translate(1.150824, 18.986032)"><g><path d="M 6.867188 0.332031 C 10.59375 0.332031 12.902344 -1.476562 12.902344 -4.347656 C 12.902344 -6.179688 11.839844 -7.574219 10.070312 -8.117188 L 10.070312 -8.199219 C 11.277344 -8.613281 12.171875 -9.820312 12.171875 -11.300781 C 12.171875 -13.652344 10.195312 -15.148438 6.867188 -15.148438 C 3.539062 -15.148438 1.5625 -13.652344 1.5625 -11.300781 C 1.5625 -9.90625 2.457031 -8.71875 3.664062 -8.199219 L 3.664062 -8.117188 C 1.894531 -7.574219 0.832031 -6.179688 0.832031 -4.347656 C 0.832031 -1.476562 3.140625 0.332031 6.867188 0.332031 Z M 6.867188 -8.988281 C 5.367188 -8.988281 4.433594 -9.71875 4.433594 -10.902344 C 4.433594 -12.089844 5.328125 -12.777344 6.867188 -12.777344 C 8.40625 -12.777344 9.300781 -12.089844 9.300781 -10.902344 C 9.300781 -9.71875 8.367188 -8.988281 6.867188 -8.988281 Z M 6.867188 -2.058594 C 5.058594 -2.058594 3.914062 -2.976562 3.914062 -4.410156 C 3.914062 -5.890625 5.015625 -6.761719 6.867188 -6.761719 C 8.71875 -6.761719 9.820312 -5.890625 9.820312 -4.410156 C 9.820312 -2.976562 8.675781 -2.058594 6.867188 -2.058594 Z M 6.867188 -2.058594 "/></g></g></g><g fill="#000000" fill-opacity="1"><g transform="translate(14.872209, 18.986032)"><g/></g></g><g fill="#000000" fill-opacity="1"><g transform="translate(20.06971, 18.986032)"><g><path d="M 6.785156 -12.464844 L 6.785156 -14.816406 L 5.242188 -14.816406 C 3.015625 -14.816406 1.808594 -13.609375 1.808594 -11.382812 L 1.808594 -10.675781 L 0.3125 -10.738281 L 0.3125 -8.574219 L 1.808594 -8.636719 L 1.808594 0 L 4.746094 0 L 4.746094 -8.636719 L 6.785156 -8.574219 L 6.785156 -10.738281 L 4.746094 -10.675781 L 4.746094 -11.238281 C 4.746094 -12.070312 5.140625 -12.464844 5.972656 -12.464844 Z M 6.785156 -12.464844 "/></g></g></g><g fill="#000000" fill-opacity="1"><g transform="translate(27.055137, 18.986032)"><g><path d="M 6.699219 -8.574219 L 6.699219 -10.738281 L 4.703125 -10.675781 L 4.703125 -14.046875 L 1.769531 -14.046875 L 1.769531 -10.695312 L 0.3125 -10.738281 L 0.3125 -8.574219 L 1.769531 -8.636719 L 1.769531 -3.015625 C 1.769531 -0.851562 2.621094 0 4.785156 0 L 6.699219 0 L 6.699219 -2.351562 L 5.722656 -2.351562 C 4.996094 -2.351562 4.703125 -2.644531 4.703125 -3.371094 L 4.703125 -8.636719 Z M 6.699219 -8.574219 "/></g></g></g></g></g></g></svg>