<svg xmlns="http://www.w3.org/2000/svg" xmlns:xlink="http://www.w3.org/1999/xlink" width="100" zoomAndPan="magnify" viewBox="0 0 75 65.249999" height="87" preserveAspectRatio="xMidYMid meet" version="1.0"><defs><clipPath id="921747875b"><path d="M 0.425781 0 L 74.574219 0 L 74.574219 64.507812 L 0.425781 64.507812 Z M 0.425781 0 " clip-rule="nonzero"/></clipPath></defs><g clip-path="url(#921747875b)"><path fill="#0e521a" d="M 9.089844 24.703125 C 8.925781 24.703125 8.769531 24.734375 8.617188 24.796875 C 8.464844 24.859375 8.332031 24.949219 8.214844 25.066406 C 8.101562 25.179688 8.011719 25.316406 7.949219 25.464844 C 7.886719 25.617188 7.855469 25.777344 7.855469 25.9375 L 7.855469 35.820312 C 7.855469 35.984375 7.886719 36.140625 7.949219 36.292969 C 8.011719 36.445312 8.101562 36.578125 8.214844 36.695312 C 8.332031 36.808594 8.464844 36.898438 8.617188 36.960938 C 8.769531 37.023438 8.925781 37.054688 9.089844 37.054688 L 21.441406 37.054688 C 21.605469 37.054688 21.765625 37.023438 21.914062 36.960938 C 22.066406 36.898438 22.199219 36.808594 22.316406 36.695312 C 22.433594 36.578125 22.519531 36.445312 22.582031 36.292969 C 22.644531 36.140625 22.675781 35.984375 22.675781 35.820312 L 22.675781 25.9375 C 22.675781 25.777344 22.644531 25.617188 22.582031 25.464844 C 22.519531 25.316406 22.433594 25.179688 22.316406 25.066406 C 22.199219 24.949219 22.066406 24.859375 21.914062 24.796875 C 21.765625 24.734375 21.605469 24.703125 21.441406 24.703125 Z M 20.207031 34.585938 L 10.324219 34.585938 L 10.324219 27.175781 L 20.207031 27.175781 Z M 36.265625 41.996094 L 6.621094 41.996094 C 6.128906 41.996094 5.65625 41.902344 5.203125 41.714844 C 4.75 41.527344 4.347656 41.257812 4 40.910156 C 3.652344 40.5625 3.386719 40.164062 3.199219 39.707031 C 3.007812 39.253906 2.914062 38.78125 2.914062 38.292969 L 2.914062 19.761719 L 62.203125 19.761719 L 62.203125 23.46875 C 62.203125 23.632812 62.234375 23.789062 62.296875 23.941406 C 62.359375 24.09375 62.449219 24.226562 62.566406 24.34375 C 62.679688 24.457031 62.816406 24.546875 62.964844 24.609375 C 63.117188 24.671875 63.277344 24.703125 63.4375 24.703125 C 63.601562 24.703125 63.761719 24.671875 63.910156 24.609375 C 64.0625 24.546875 64.195312 24.457031 64.3125 24.34375 C 64.429688 24.226562 64.519531 24.09375 64.582031 23.941406 C 64.644531 23.789062 64.675781 23.632812 64.675781 23.46875 L 64.675781 6.175781 C 64.675781 5.769531 64.632812 5.371094 64.554688 4.972656 C 64.476562 4.574219 64.359375 4.1875 64.203125 3.8125 C 64.046875 3.4375 63.855469 3.082031 63.632812 2.746094 C 63.40625 2.410156 63.148438 2.097656 62.863281 1.8125 C 62.578125 1.523438 62.265625 1.269531 61.929688 1.042969 C 61.589844 0.816406 61.234375 0.628906 60.859375 0.472656 C 60.484375 0.316406 60.101562 0.199219 59.703125 0.121094 C 59.304688 0.0390625 58.902344 0 58.5 0 L 6.621094 0 C 6.214844 0 5.8125 0.0390625 5.414062 0.121094 C 5.019531 0.199219 4.632812 0.316406 4.257812 0.472656 C 3.882812 0.628906 3.527344 0.816406 3.191406 1.042969 C 2.851562 1.269531 2.542969 1.523438 2.253906 1.8125 C 1.96875 2.097656 1.710938 2.410156 1.488281 2.746094 C 1.261719 3.082031 1.070312 3.4375 0.917969 3.8125 C 0.761719 4.1875 0.644531 4.574219 0.5625 4.972656 C 0.484375 5.371094 0.445312 5.769531 0.445312 6.175781 L 0.445312 38.292969 C 0.445312 38.695312 0.484375 39.097656 0.5625 39.496094 C 0.644531 39.894531 0.761719 40.277344 0.917969 40.652344 C 1.070312 41.027344 1.261719 41.382812 1.488281 41.722656 C 1.710938 42.058594 1.96875 42.371094 2.253906 42.65625 C 2.542969 42.941406 2.851562 43.199219 3.191406 43.425781 C 3.527344 43.648438 3.882812 43.839844 4.257812 43.996094 C 4.632812 44.152344 5.019531 44.269531 5.414062 44.347656 C 5.8125 44.425781 6.214844 44.464844 6.621094 44.46875 L 36.265625 44.46875 C 36.429688 44.46875 36.585938 44.4375 36.738281 44.375 C 36.890625 44.308594 37.023438 44.222656 37.136719 44.105469 C 37.253906 43.988281 37.34375 43.855469 37.40625 43.703125 C 37.46875 43.554688 37.5 43.394531 37.5 43.230469 C 37.5 43.066406 37.46875 42.910156 37.40625 42.757812 C 37.34375 42.609375 37.253906 42.472656 37.136719 42.359375 C 37.023438 42.242188 36.890625 42.152344 36.738281 42.089844 C 36.585938 42.027344 36.429688 41.996094 36.265625 41.996094 Z M 2.914062 17.292969 L 2.914062 9.882812 L 62.203125 9.882812 L 62.203125 17.292969 Z M 6.621094 2.46875 L 58.5 2.46875 C 58.988281 2.472656 59.460938 2.566406 59.914062 2.753906 C 60.371094 2.941406 60.769531 3.210938 61.117188 3.558594 C 61.464844 3.902344 61.734375 4.304688 61.921875 4.757812 C 62.109375 5.210938 62.203125 5.683594 62.203125 6.175781 L 62.203125 7.410156 L 2.914062 7.410156 L 2.914062 6.175781 C 2.914062 5.683594 3.007812 5.210938 3.199219 4.757812 C 3.386719 4.304688 3.652344 3.902344 4 3.558594 C 4.347656 3.210938 4.75 2.941406 5.203125 2.753906 C 5.65625 2.566406 6.128906 2.472656 6.621094 2.46875 Z M 73.320312 29.644531 C 70.59375 29.601562 67.929688 29.179688 65.320312 28.378906 C 62.714844 27.578125 60.269531 26.433594 57.988281 24.9375 C 57.773438 24.785156 57.53125 24.707031 57.261719 24.707031 C 56.996094 24.707031 56.753906 24.785156 56.539062 24.9375 C 54.257812 26.433594 51.8125 27.578125 49.207031 28.378906 C 46.597656 29.179688 43.933594 29.601562 41.207031 29.644531 C 41.042969 29.644531 40.882812 29.675781 40.734375 29.738281 C 40.582031 29.800781 40.449219 29.890625 40.332031 30.007812 C 40.214844 30.121094 40.125 30.257812 40.0625 30.40625 C 40 30.558594 39.96875 30.714844 39.96875 30.878906 L 39.96875 43.230469 C 39.96875 58.511719 56.714844 64.117188 56.882812 64.171875 C 57.136719 64.253906 57.390625 64.253906 57.644531 64.171875 C 57.8125 64.117188 74.554688 58.511719 74.554688 43.230469 L 74.554688 30.878906 C 74.554688 30.714844 74.523438 30.558594 74.460938 30.40625 C 74.398438 30.257812 74.308594 30.121094 74.195312 30.007812 C 74.078125 29.890625 73.945312 29.800781 73.792969 29.738281 C 73.640625 29.675781 73.484375 29.644531 73.320312 29.644531 Z M 72.085938 43.230469 C 72.085938 55.488281 59.621094 60.789062 57.261719 61.683594 C 54.902344 60.789062 42.441406 55.488281 42.441406 43.230469 L 42.441406 32.085938 C 45.066406 31.945312 47.636719 31.480469 50.144531 30.691406 C 52.65625 29.902344 55.027344 28.8125 57.261719 27.425781 C 59.5 28.8125 61.871094 29.902344 64.378906 30.691406 C 66.890625 31.480469 69.457031 31.945312 72.085938 32.085938 Z M 54.792969 48.898438 L 65.035156 38.652344 C 65.152344 38.539062 65.285156 38.449219 65.4375 38.390625 C 65.585938 38.328125 65.746094 38.296875 65.90625 38.296875 C 66.070312 38.296875 66.226562 38.328125 66.378906 38.390625 C 66.527344 38.453125 66.660156 38.542969 66.777344 38.660156 C 66.894531 38.773438 66.980469 38.90625 67.042969 39.058594 C 67.105469 39.207031 67.136719 39.363281 67.140625 39.527344 C 67.140625 39.691406 67.109375 39.847656 67.046875 40 C 66.984375 40.148438 66.898438 40.285156 66.78125 40.398438 L 55.667969 51.515625 C 55.550781 51.632812 55.417969 51.722656 55.265625 51.785156 C 55.113281 51.847656 54.957031 51.878906 54.792969 51.878906 C 54.628906 51.878906 54.472656 51.847656 54.320312 51.785156 C 54.167969 51.722656 54.035156 51.632812 53.917969 51.515625 L 47.742188 45.339844 C 47.628906 45.222656 47.539062 45.089844 47.480469 44.941406 C 47.417969 44.789062 47.386719 44.632812 47.386719 44.46875 C 47.386719 44.304688 47.417969 44.148438 47.480469 44 C 47.542969 43.847656 47.632812 43.714844 47.75 43.597656 C 47.863281 43.484375 47.996094 43.394531 48.148438 43.332031 C 48.296875 43.269531 48.457031 43.238281 48.617188 43.238281 C 48.78125 43.238281 48.9375 43.269531 49.089844 43.328125 C 49.242188 43.390625 49.375 43.480469 49.488281 43.59375 Z M 54.792969 48.898438 " fill-opacity="1" fill-rule="nonzero"/></g></svg>