<svg xmlns="http://www.w3.org/2000/svg" xmlns:xlink="http://www.w3.org/1999/xlink" width="100" zoomAndPan="magnify" viewBox="0 0 75 65.249999" height="87" preserveAspectRatio="xMidYMid meet" version="1.0"><defs><clipPath id="fbc3a5f997"><path d="M 5.148438 0 L 68.171875 0 L 68.171875 64.507812 L 5.148438 64.507812 Z M 5.148438 0 " clip-rule="nonzero"/></clipPath></defs><path fill="#0e521a" d="M 43.527344 18.785156 L 50.792969 18.785156 C 51.078125 18.785156 51.3125 19.019531 51.3125 19.304688 L 51.3125 30.757812 C 51.3125 31.042969 51.546875 31.277344 51.832031 31.277344 C 52.121094 31.277344 52.351562 31.042969 52.351562 30.757812 L 52.351562 19.304688 C 52.351562 18.445312 51.652344 17.746094 50.792969 17.746094 L 43.527344 17.746094 C 43.238281 17.746094 43.003906 17.976562 43.003906 18.265625 C 43.003906 18.550781 43.238281 18.785156 43.527344 18.785156 Z M 43.527344 18.785156 " fill-opacity="1" fill-rule="nonzero"/><path fill="#0e521a" d="M 36.136719 20.085938 C 36.203125 20.085938 36.269531 20.074219 36.335938 20.046875 C 36.449219 20 36.539062 19.917969 36.59375 19.8125 C 36.632812 19.738281 36.65625 19.65625 36.65625 19.566406 L 36.65625 18.785156 L 40.375 18.785156 C 40.660156 18.785156 40.894531 18.550781 40.894531 18.265625 C 40.894531 17.976562 40.660156 17.746094 40.375 17.746094 L 36.71875 17.746094 C 36.699219 17.746094 36.675781 17.75 36.65625 17.75 L 36.65625 16.964844 C 36.65625 16.753906 36.53125 16.5625 36.335938 16.480469 C 36.140625 16.402344 35.917969 16.445312 35.769531 16.59375 L 34.46875 17.898438 C 34.261719 18.101562 34.261719 18.429688 34.46875 18.632812 L 35.769531 19.933594 C 35.867188 20.035156 36 20.085938 36.136719 20.085938 Z M 36.136719 20.085938 " fill-opacity="1" fill-rule="nonzero"/><g clip-path="url(#fbc3a5f997)"><path fill="#0e521a" d="M 67.601562 34.445312 L 57.792969 34.445312 L 57.792969 2.449219 C 57.792969 1.097656 56.695312 0.00390625 55.347656 0.00390625 L 23.800781 0.00390625 C 23.207031 0.00390625 22.660156 0.214844 22.234375 0.570312 C 21.914062 0.835938 21.664062 1.1875 21.511719 1.585938 C 21.410156 1.851562 21.355469 2.144531 21.355469 2.449219 L 21.355469 10.410156 L 11.976562 10.410156 C 11.613281 10.410156 11.320312 10.703125 11.320312 11.0625 L 11.320312 32.8125 L 5.671875 32.8125 C 5.378906 32.8125 5.148438 33.046875 5.148438 33.335938 L 5.148438 40.820312 C 5.148438 42.566406 6.5625 43.980469 8.308594 43.980469 C 8.410156 43.980469 8.511719 43.976562 8.613281 43.964844 L 21.355469 43.964844 L 21.355469 49.777344 L 18.011719 49.777344 C 17.726562 49.777344 17.492188 49.546875 17.492188 49.257812 L 17.492188 46.066406 C 17.492188 45.78125 17.257812 45.546875 16.972656 45.546875 C 16.683594 45.546875 16.453125 45.78125 16.453125 46.066406 L 16.453125 49.257812 C 16.453125 50.121094 17.152344 50.820312 18.011719 50.820312 L 21.355469 50.820312 L 21.355469 62.046875 C 21.355469 63.398438 22.449219 64.492188 23.800781 64.492188 L 55.347656 64.492188 C 56.695312 64.492188 57.792969 63.398438 57.792969 62.046875 L 57.792969 51.105469 L 67.601562 51.105469 C 67.882812 51.105469 68.113281 50.875 68.113281 50.589844 L 68.113281 34.960938 C 68.113281 34.675781 67.882812 34.445312 67.601562 34.445312 Z M 8.46875 43.964844 C 8.558594 43.957031 8.644531 43.941406 8.730469 43.925781 C 8.644531 43.941406 8.558594 43.957031 8.46875 43.964844 Z M 9.015625 43.863281 C 9.179688 43.816406 9.339844 43.757812 9.492188 43.6875 C 9.339844 43.757812 9.179688 43.816406 9.015625 43.863281 Z M 42.695312 2.085938 L 44.777344 2.085938 C 45.0625 2.085938 45.296875 2.316406 45.296875 2.605469 C 45.296875 2.894531 45.0625 3.125 44.777344 3.125 L 42.695312 3.125 C 42.40625 3.125 42.171875 2.894531 42.171875 2.605469 C 42.171875 2.316406 42.40625 2.085938 42.695312 2.085938 Z M 34.363281 2.085938 L 39.570312 2.085938 C 39.859375 2.085938 40.089844 2.316406 40.089844 2.605469 C 40.089844 2.894531 39.859375 3.125 39.570312 3.125 L 34.363281 3.125 C 34.078125 3.125 33.84375 2.894531 33.84375 2.605469 C 33.84375 2.316406 34.078125 2.085938 34.363281 2.085938 Z M 11.804688 42.921875 C 12.160156 42.304688 12.363281 41.585938 12.363281 40.820312 L 12.363281 11.453125 L 30.082031 11.453125 L 30.082031 41.285156 C 30.082031 42.1875 29.347656 42.925781 28.441406 42.925781 L 11.804688 42.925781 Z M 39.570312 61.964844 C 38.871094 61.964844 38.304688 61.398438 38.304688 60.699219 C 38.304688 60 38.871094 59.433594 39.570312 59.433594 C 40.265625 59.433594 40.832031 60 40.832031 60.699219 C 40.832031 61.398438 40.265625 61.964844 39.570312 61.964844 Z M 55.710938 56.425781 C 55.710938 56.894531 55.332031 57.269531 54.867188 57.269531 L 24.273438 57.269531 C 23.808594 57.269531 23.433594 56.894531 23.433594 56.425781 L 23.433594 50.820312 L 24.398438 50.820312 C 24.6875 50.820312 24.921875 50.585938 24.921875 50.300781 C 24.921875 50.011719 24.6875 49.777344 24.398438 49.777344 L 23.433594 49.777344 L 23.433594 43.964844 L 28.441406 43.964844 C 29.921875 43.964844 31.125 42.761719 31.125 41.285156 L 31.125 11.0625 C 31.125 10.703125 30.832031 10.410156 30.46875 10.410156 L 23.433594 10.410156 L 23.433594 7.089844 C 23.433594 6.625 23.808594 6.25 24.273438 6.25 L 54.867188 6.25 C 55.332031 6.25 55.710938 6.625 55.710938 7.089844 L 55.710938 34.445312 L 36.878906 34.445312 L 36.878906 33.398438 C 36.878906 32.824219 36.414062 32.359375 35.839844 32.359375 C 35.261719 32.359375 34.796875 32.824219 34.796875 33.398438 L 34.796875 52.140625 C 34.796875 52.714844 35.261719 53.183594 35.839844 53.183594 C 36.414062 53.183594 36.878906 52.714844 36.878906 52.140625 L 36.878906 51.105469 L 55.710938 51.105469 Z M 67.074219 49.8125 C 67.074219 49.953125 66.960938 50.0625 66.820312 50.0625 L 36.878906 50.0625 L 36.878906 49.023438 L 42.011719 49.023438 L 42.011719 47.980469 L 36.878906 47.980469 L 36.878906 35.488281 L 66.820312 35.488281 C 66.960938 35.488281 67.074219 35.601562 67.074219 35.738281 Z M 67.074219 49.8125 " fill-opacity="1" fill-rule="nonzero"/></g><path fill="#0e521a" d="M 51.453125 37.621094 C 48.332031 37.621094 45.800781 40.152344 45.800781 43.273438 C 45.800781 46.394531 48.332031 48.925781 51.453125 48.925781 C 54.578125 48.925781 57.109375 46.394531 57.109375 43.273438 C 57.109375 40.152344 54.578125 37.621094 51.453125 37.621094 Z M 51.9375 45.703125 L 51.9375 46.65625 L 51.023438 46.65625 L 51.023438 45.703125 C 50.160156 45.570312 49.660156 45.046875 49.601562 44.3125 L 50.691406 44.3125 C 50.773438 44.699219 51.066406 44.9375 51.507812 44.9375 C 52.050781 44.9375 52.210938 44.675781 52.210938 44.386719 C 52.210938 44.023438 52.019531 43.847656 51.335938 43.644531 C 50.074219 43.273438 49.703125 42.808594 49.703125 42.101562 C 49.703125 41.335938 50.257812 40.863281 50.972656 40.726562 L 50.972656 39.890625 L 51.882812 39.890625 L 51.882812 40.722656 C 52.796875 40.867188 53.140625 41.429688 53.191406 42.03125 L 52.101562 42.03125 C 52.054688 41.824219 51.964844 41.488281 51.402344 41.488281 C 50.945312 41.488281 50.804688 41.757812 50.804688 41.992188 C 50.804688 42.3125 50.976562 42.457031 51.773438 42.6875 C 52.878906 43.003906 53.308594 43.457031 53.308594 44.253906 C 53.308594 45.109375 52.757812 45.578125 51.9375 45.703125 Z M 51.9375 45.703125 " fill-opacity="1" fill-rule="nonzero"/><path fill="#0e521a" d="M 60.195312 36.957031 L 65.40625 36.957031 L 65.40625 38 L 60.195312 38 Z M 60.195312 36.957031 " fill-opacity="1" fill-rule="nonzero"/><path fill="#0e521a" d="M 13.804688 26.910156 L 19.449219 26.910156 C 19.734375 26.910156 19.96875 26.679688 19.96875 26.390625 C 19.96875 26.105469 19.734375 25.871094 19.449219 25.871094 L 13.804688 25.871094 C 13.515625 25.871094 13.285156 26.105469 13.285156 26.390625 C 13.285156 26.679688 13.515625 26.910156 13.804688 26.910156 Z M 13.804688 26.910156 " fill-opacity="1" fill-rule="nonzero"/><path fill="#0e521a" d="M 23.222656 29.039062 L 13.804688 29.039062 C 13.515625 29.039062 13.285156 29.269531 13.285156 29.558594 C 13.285156 29.847656 13.515625 30.078125 13.804688 30.078125 L 23.222656 30.078125 C 23.507812 30.078125 23.742188 29.847656 23.742188 29.558594 C 23.742188 29.269531 23.507812 29.039062 23.222656 29.039062 Z M 23.222656 29.039062 " fill-opacity="1" fill-rule="nonzero"/><path fill="#0e521a" d="M 13.804688 33.246094 L 19.449219 33.246094 C 19.734375 33.246094 19.96875 33.015625 19.96875 32.726562 C 19.96875 32.4375 19.734375 32.207031 19.449219 32.207031 L 13.804688 32.207031 C 13.515625 32.207031 13.285156 32.4375 13.285156 32.726562 C 13.285156 33.015625 13.515625 33.246094 13.804688 33.246094 Z M 13.804688 33.246094 " fill-opacity="1" fill-rule="nonzero"/><path fill="#0e521a" d="M 23.222656 35.375 L 13.804688 35.375 C 13.515625 35.375 13.285156 35.605469 13.285156 35.894531 C 13.285156 36.179688 13.515625 36.414062 13.804688 36.414062 L 23.222656 36.414062 C 23.507812 36.414062 23.742188 36.179688 23.742188 35.894531 C 23.742188 35.605469 23.507812 35.375 23.222656 35.375 Z M 23.222656 35.375 " fill-opacity="1" fill-rule="nonzero"/><path fill="#0e521a" d="M 25.390625 26.390625 C 25.390625 26.679688 25.621094 26.910156 25.910156 26.910156 L 28.386719 26.910156 C 28.671875 26.910156 28.90625 26.679688 28.90625 26.390625 C 28.90625 26.105469 28.671875 25.871094 28.386719 25.871094 L 25.910156 25.871094 C 25.621094 25.871094 25.390625 26.105469 25.390625 26.390625 Z M 25.390625 26.390625 " fill-opacity="1" fill-rule="nonzero"/><path fill="#0e521a" d="M 28.386719 29.039062 L 25.910156 29.039062 C 25.621094 29.039062 25.390625 29.269531 25.390625 29.558594 C 25.390625 29.847656 25.621094 30.078125 25.910156 30.078125 L 28.386719 30.078125 C 28.671875 30.078125 28.90625 29.847656 28.90625 29.558594 C 28.90625 29.269531 28.671875 29.039062 28.386719 29.039062 Z M 28.386719 29.039062 " fill-opacity="1" fill-rule="nonzero"/><path fill="#0e521a" d="M 23.222656 38.539062 L 13.804688 38.539062 C 13.515625 38.539062 13.285156 38.773438 13.285156 39.0625 C 13.285156 39.347656 13.515625 39.582031 13.804688 39.582031 L 23.222656 39.582031 C 23.507812 39.582031 23.742188 39.347656 23.742188 39.0625 C 23.742188 38.773438 23.507812 38.539062 23.222656 38.539062 Z M 23.222656 38.539062 " fill-opacity="1" fill-rule="nonzero"/><path fill="#0e521a" d="M 28.90625 39.0625 C 28.90625 38.773438 28.671875 38.539062 28.386719 38.539062 L 25.910156 38.539062 C 25.621094 38.539062 25.390625 38.773438 25.390625 39.0625 C 25.390625 39.347656 25.621094 39.582031 25.910156 39.582031 L 28.386719 39.582031 C 28.671875 39.582031 28.90625 39.347656 28.90625 39.0625 Z M 28.90625 39.0625 " fill-opacity="1" fill-rule="nonzero"/><path fill="#0e521a" d="M 28.386719 32.207031 L 25.910156 32.207031 C 25.621094 32.207031 25.390625 32.4375 25.390625 32.726562 C 25.390625 33.015625 25.621094 33.246094 25.910156 33.246094 L 28.386719 33.246094 C 28.671875 33.246094 28.90625 33.015625 28.90625 32.726562 C 28.90625 32.4375 28.671875 32.207031 28.386719 32.207031 Z M 28.386719 32.207031 " fill-opacity="1" fill-rule="nonzero"/><path fill="#0e521a" d="M 28.386719 35.375 L 25.910156 35.375 C 25.621094 35.375 25.390625 35.605469 25.390625 35.894531 C 25.390625 36.179688 25.621094 36.414062 25.910156 36.414062 L 28.386719 36.414062 C 28.671875 36.414062 28.90625 36.179688 28.90625 35.894531 C 28.90625 35.605469 28.671875 35.375 28.386719 35.375 Z M 28.386719 35.375 " fill-opacity="1" fill-rule="nonzero"/><path fill="#0e521a" d="M 30.707031 49.777344 L 27.550781 49.777344 C 27.265625 49.777344 27.03125 50.011719 27.03125 50.300781 C 27.03125 50.585938 27.265625 50.820312 27.550781 50.820312 L 30.707031 50.820312 C 30.992188 50.820312 31.226562 50.585938 31.226562 50.300781 C 31.226562 50.011719 30.992188 49.777344 30.707031 49.777344 Z M 30.707031 49.777344 " fill-opacity="1" fill-rule="nonzero"/><path fill="#0e521a" d="M 25.605469 21.238281 C 25.917969 20.808594 25.476562 19.980469 25.644531 19.464844 C 25.808594 18.96875 26.65625 18.558594 26.65625 18.003906 C 26.65625 17.453125 25.808594 17.042969 25.644531 16.546875 C 25.476562 16.03125 25.917969 15.203125 25.605469 14.773438 C 25.289062 14.339844 24.363281 14.503906 23.929688 14.1875 C 23.5 13.875 23.371094 12.941406 22.855469 12.773438 C 22.359375 12.613281 21.707031 13.285156 21.15625 13.285156 C 20.605469 13.285156 19.953125 12.613281 19.457031 12.773438 C 18.941406 12.941406 18.8125 13.875 18.382812 14.1875 C 17.949219 14.503906 17.019531 14.339844 16.707031 14.773438 C 16.394531 15.203125 16.832031 16.03125 16.664062 16.546875 C 16.503906 17.042969 15.65625 17.453125 15.65625 18.003906 C 15.65625 18.558594 16.503906 18.96875 16.664062 19.464844 C 16.832031 19.980469 16.394531 20.808594 16.707031 21.238281 C 17.019531 21.671875 17.949219 21.507812 18.382812 21.824219 C 18.808594 22.136719 18.941406 23.070312 19.457031 23.238281 C 19.953125 23.398438 20.605469 22.726562 21.15625 22.726562 C 21.707031 22.726562 22.359375 23.398438 22.855469 23.238281 C 23.371094 23.070312 23.5 22.136719 23.929688 21.824219 C 24.363281 21.507812 25.289062 21.671875 25.605469 21.238281 Z M 21.640625 20.433594 L 21.640625 21.390625 L 20.722656 21.390625 L 20.722656 20.433594 C 19.859375 20.300781 19.363281 19.777344 19.304688 19.042969 L 20.390625 19.042969 C 20.476562 19.429688 20.765625 19.667969 21.207031 19.667969 C 21.75 19.667969 21.914062 19.40625 21.914062 19.117188 C 21.914062 18.753906 21.71875 18.578125 21.035156 18.378906 C 19.773438 18.007812 19.40625 17.539062 19.40625 16.832031 C 19.40625 16.066406 19.960938 15.59375 20.671875 15.460938 L 20.671875 14.621094 L 21.582031 14.621094 L 21.582031 15.453125 C 22.496094 15.597656 22.839844 16.160156 22.894531 16.765625 L 21.804688 16.765625 C 21.753906 16.558594 21.664062 16.21875 21.101562 16.21875 C 20.644531 16.21875 20.503906 16.492188 20.503906 16.722656 C 20.503906 17.042969 20.675781 17.1875 21.472656 17.421875 C 22.578125 17.738281 23.007812 18.1875 23.007812 18.984375 C 23.007812 19.839844 22.457031 20.3125 21.640625 20.433594 Z M 21.640625 20.433594 " fill-opacity="1" fill-rule="nonzero"/></svg>