<svg xmlns="http://www.w3.org/2000/svg" xmlns:xlink="http://www.w3.org/1999/xlink" width="100" zoomAndPan="magnify" viewBox="0 0 75 65.249999" height="87" preserveAspectRatio="xMidYMid meet" version="1.0"><defs><clipPath id="618ee20dad"><path d="M 8.472656 0 L 66.304688 0 L 66.304688 64.507812 L 8.472656 64.507812 Z M 8.472656 0 " clip-rule="nonzero"/></clipPath><clipPath id="2ae69e8d53"><path d="M 8.472656 46 L 11 46 L 11 49 L 8.472656 49 Z M 8.472656 46 " clip-rule="nonzero"/></clipPath></defs><path fill="#0e521a" d="M 15.996094 31.171875 L 20.296875 31.171875 C 20.582031 31.171875 20.855469 31.117188 21.121094 31.007812 C 21.382812 30.898438 21.617188 30.746094 21.816406 30.542969 C 22.019531 30.339844 22.175781 30.109375 22.285156 29.84375 C 22.394531 29.582031 22.449219 29.308594 22.449219 29.023438 L 22.449219 24.722656 C 22.449219 24.4375 22.394531 24.164062 22.285156 23.898438 C 22.175781 23.636719 22.019531 23.402344 21.816406 23.203125 C 21.617188 23 21.382812 22.84375 21.121094 22.734375 C 20.855469 22.625 20.582031 22.570312 20.296875 22.570312 L 15.996094 22.570312 C 15.710938 22.570312 15.4375 22.625 15.175781 22.734375 C 14.910156 22.84375 14.679688 23 14.476562 23.203125 C 14.273438 23.402344 14.121094 23.636719 14.011719 23.898438 C 13.902344 24.164062 13.847656 24.4375 13.847656 24.722656 L 13.847656 29.023438 C 13.847656 29.308594 13.902344 29.582031 14.011719 29.84375 C 14.121094 30.109375 14.273438 30.339844 14.476562 30.542969 C 14.679688 30.746094 14.910156 30.898438 15.175781 31.007812 C 15.4375 31.117188 15.710938 31.171875 15.996094 31.171875 Z M 15.996094 24.722656 L 20.296875 24.722656 L 20.296875 29.023438 L 15.996094 29.023438 Z M 15.996094 24.722656 " fill-opacity="1" fill-rule="nonzero"/><path fill="#0e521a" d="M 28.898438 31.171875 L 33.199219 31.171875 C 33.484375 31.171875 33.757812 31.117188 34.019531 31.007812 C 34.285156 30.898438 34.515625 30.746094 34.71875 30.542969 C 34.921875 30.339844 35.074219 30.109375 35.183594 29.84375 C 35.292969 29.582031 35.347656 29.308594 35.347656 29.023438 L 35.347656 24.722656 C 35.347656 24.4375 35.292969 24.164062 35.183594 23.898438 C 35.074219 23.636719 34.921875 23.402344 34.71875 23.203125 C 34.515625 23 34.285156 22.84375 34.019531 22.734375 C 33.757812 22.625 33.484375 22.570312 33.199219 22.570312 L 28.898438 22.570312 C 28.613281 22.570312 28.339844 22.625 28.074219 22.734375 C 27.8125 22.84375 27.578125 23 27.378906 23.203125 C 27.175781 23.402344 27.019531 23.636719 26.910156 23.898438 C 26.800781 24.164062 26.746094 24.4375 26.746094 24.722656 L 26.746094 29.023438 C 26.746094 29.308594 26.800781 29.582031 26.910156 29.84375 C 27.019531 30.109375 27.175781 30.339844 27.378906 30.542969 C 27.578125 30.746094 27.8125 30.898438 28.074219 31.007812 C 28.339844 31.117188 28.613281 31.171875 28.898438 31.171875 Z M 28.898438 24.722656 L 33.199219 24.722656 L 33.199219 29.023438 L 28.898438 29.023438 Z M 28.898438 24.722656 " fill-opacity="1" fill-rule="nonzero"/><path fill="#0e521a" d="M 41.800781 31.171875 L 46.101562 31.171875 C 46.386719 31.171875 46.660156 31.117188 46.921875 31.007812 C 47.1875 30.898438 47.417969 30.746094 47.621094 30.542969 C 47.820312 30.339844 47.976562 30.109375 48.085938 29.84375 C 48.195312 29.582031 48.25 29.308594 48.25 29.023438 L 48.25 24.722656 C 48.25 24.4375 48.195312 24.164062 48.085938 23.898438 C 47.976562 23.636719 47.820312 23.402344 47.621094 23.203125 C 47.417969 23 47.1875 22.84375 46.921875 22.734375 C 46.660156 22.625 46.386719 22.570312 46.101562 22.570312 L 41.800781 22.570312 C 41.515625 22.570312 41.238281 22.625 40.976562 22.734375 C 40.714844 22.84375 40.480469 23 40.277344 23.203125 C 40.078125 23.402344 39.921875 23.636719 39.8125 23.898438 C 39.703125 24.164062 39.648438 24.4375 39.648438 24.722656 L 39.648438 29.023438 C 39.648438 29.308594 39.703125 29.582031 39.8125 29.84375 C 39.921875 30.109375 40.078125 30.339844 40.277344 30.542969 C 40.480469 30.746094 40.714844 30.898438 40.976562 31.007812 C 41.238281 31.117188 41.515625 31.171875 41.800781 31.171875 Z M 41.800781 24.722656 L 46.101562 24.722656 L 46.101562 29.023438 L 41.800781 29.023438 Z M 41.800781 24.722656 " fill-opacity="1" fill-rule="nonzero"/><path fill="#0e521a" d="M 54.699219 31.171875 L 59 31.171875 C 59.285156 31.171875 59.558594 31.117188 59.824219 31.007812 C 60.085938 30.898438 60.320312 30.746094 60.519531 30.542969 C 60.722656 30.339844 60.878906 30.109375 60.988281 29.84375 C 61.097656 29.582031 61.152344 29.308594 61.152344 29.023438 L 61.152344 24.722656 C 61.152344 24.4375 61.097656 24.164062 60.988281 23.898438 C 60.878906 23.636719 60.722656 23.402344 60.519531 23.203125 C 60.320312 23 60.085938 22.84375 59.824219 22.734375 C 59.558594 22.625 59.285156 22.570312 59 22.570312 L 54.699219 22.570312 C 54.414062 22.570312 54.140625 22.625 53.878906 22.734375 C 53.613281 22.84375 53.382812 23 53.179688 23.203125 C 52.976562 23.402344 52.824219 23.636719 52.714844 23.898438 C 52.605469 24.164062 52.550781 24.4375 52.550781 24.722656 L 52.550781 29.023438 C 52.550781 29.308594 52.605469 29.582031 52.714844 29.84375 C 52.824219 30.109375 52.976562 30.339844 53.179688 30.542969 C 53.382812 30.746094 53.613281 30.898438 53.878906 31.007812 C 54.140625 31.117188 54.414062 31.171875 54.699219 31.171875 Z M 54.699219 24.722656 L 59 24.722656 L 59 29.023438 L 54.699219 29.023438 Z M 54.699219 24.722656 " fill-opacity="1" fill-rule="nonzero"/><path fill="#0e521a" d="M 13.847656 40.847656 C 13.847656 41.132812 13.902344 41.40625 14.011719 41.671875 C 14.121094 41.933594 14.273438 42.167969 14.476562 42.367188 C 14.679688 42.570312 14.910156 42.726562 15.175781 42.835938 C 15.4375 42.945312 15.710938 43 15.996094 43 L 20.296875 43 C 20.582031 43 20.855469 42.945312 21.121094 42.835938 C 21.382812 42.726562 21.617188 42.570312 21.816406 42.367188 C 22.019531 42.167969 22.175781 41.933594 22.285156 41.671875 C 22.394531 41.40625 22.449219 41.132812 22.449219 40.847656 L 22.449219 36.546875 C 22.449219 36.261719 22.394531 35.988281 22.285156 35.726562 C 22.175781 35.460938 22.019531 35.230469 21.816406 35.027344 C 21.617188 34.824219 21.382812 34.671875 21.121094 34.5625 C 20.855469 34.453125 20.582031 34.398438 20.296875 34.398438 L 15.996094 34.398438 C 15.710938 34.398438 15.4375 34.453125 15.175781 34.5625 C 14.910156 34.671875 14.679688 34.824219 14.476562 35.027344 C 14.273438 35.230469 14.121094 35.460938 14.011719 35.726562 C 13.902344 35.988281 13.847656 36.261719 13.847656 36.546875 Z M 15.996094 36.546875 L 20.296875 36.546875 L 20.296875 40.847656 L 15.996094 40.847656 Z M 15.996094 36.546875 " fill-opacity="1" fill-rule="nonzero"/><path fill="#0e521a" d="M 26.746094 40.3125 C 26.746094 40.597656 26.800781 40.871094 26.910156 41.132812 C 27.019531 41.398438 27.175781 41.628906 27.378906 41.832031 C 27.578125 42.03125 27.8125 42.1875 28.074219 42.296875 C 28.339844 42.40625 28.613281 42.460938 28.898438 42.460938 L 33.199219 42.460938 C 33.484375 42.460938 33.757812 42.40625 34.019531 42.296875 C 34.285156 42.1875 34.515625 42.03125 34.71875 41.832031 C 34.921875 41.628906 35.074219 41.398438 35.183594 41.132812 C 35.292969 40.871094 35.347656 40.597656 35.347656 40.3125 L 35.347656 36.011719 C 35.347656 35.726562 35.292969 35.449219 35.183594 35.1875 C 35.074219 34.925781 34.921875 34.691406 34.71875 34.488281 C 34.515625 34.289062 34.285156 34.132812 34.019531 34.023438 C 33.757812 33.914062 33.484375 33.859375 33.199219 33.859375 L 28.898438 33.859375 C 28.613281 33.859375 28.339844 33.914062 28.074219 34.023438 C 27.8125 34.132812 27.578125 34.289062 27.378906 34.488281 C 27.175781 34.691406 27.019531 34.925781 26.910156 35.1875 C 26.800781 35.449219 26.746094 35.726562 26.746094 36.011719 Z M 28.898438 36.011719 L 33.199219 36.011719 L 33.199219 40.3125 L 28.898438 40.3125 Z M 28.898438 36.011719 " fill-opacity="1" fill-rule="nonzero"/><path fill="#0e521a" d="M 39.648438 40.3125 C 39.648438 40.597656 39.703125 40.871094 39.8125 41.132812 C 39.921875 41.398438 40.078125 41.628906 40.277344 41.832031 C 40.480469 42.03125 40.714844 42.1875 40.976562 42.296875 C 41.238281 42.40625 41.515625 42.460938 41.800781 42.460938 L 46.101562 42.460938 C 46.386719 42.460938 46.660156 42.40625 46.921875 42.296875 C 47.1875 42.1875 47.417969 42.03125 47.621094 41.832031 C 47.820312 41.628906 47.976562 41.398438 48.085938 41.132812 C 48.195312 40.871094 48.25 40.597656 48.25 40.3125 L 48.25 36.011719 C 48.25 35.726562 48.195312 35.449219 48.085938 35.1875 C 47.976562 34.925781 47.820312 34.691406 47.621094 34.488281 C 47.417969 34.289062 47.1875 34.132812 46.921875 34.023438 C 46.660156 33.914062 46.386719 33.859375 46.101562 33.859375 L 41.800781 33.859375 C 41.515625 33.859375 41.238281 33.914062 40.976562 34.023438 C 40.714844 34.132812 40.480469 34.289062 40.277344 34.488281 C 40.078125 34.691406 39.921875 34.925781 39.8125 35.1875 C 39.703125 35.449219 39.648438 35.726562 39.648438 36.011719 Z M 41.800781 36.011719 L 46.101562 36.011719 L 46.101562 40.3125 L 41.800781 40.3125 Z M 41.800781 36.011719 " fill-opacity="1" fill-rule="nonzero"/><path fill="#0e521a" d="M 52.550781 40.3125 C 52.550781 40.597656 52.605469 40.871094 52.714844 41.132812 C 52.824219 41.398438 52.976562 41.628906 53.179688 41.832031 C 53.382812 42.03125 53.613281 42.1875 53.878906 42.296875 C 54.140625 42.40625 54.414062 42.460938 54.699219 42.460938 L 59 42.460938 C 59.285156 42.460938 59.558594 42.40625 59.824219 42.296875 C 60.085938 42.1875 60.320312 42.03125 60.519531 41.832031 C 60.722656 41.628906 60.878906 41.398438 60.988281 41.132812 C 61.097656 40.871094 61.152344 40.597656 61.152344 40.3125 L 61.152344 36.011719 C 61.152344 35.726562 61.097656 35.449219 60.988281 35.1875 C 60.878906 34.925781 60.722656 34.691406 60.519531 34.488281 C 60.320312 34.289062 60.085938 34.132812 59.824219 34.023438 C 59.558594 33.914062 59.285156 33.859375 59 33.859375 L 54.699219 33.859375 C 54.414062 33.859375 54.140625 33.914062 53.878906 34.023438 C 53.613281 34.132812 53.382812 34.289062 53.179688 34.488281 C 52.976562 34.691406 52.824219 34.925781 52.714844 35.1875 C 52.605469 35.449219 52.550781 35.726562 52.550781 36.011719 Z M 54.699219 36.011719 L 59 36.011719 L 59 40.3125 L 54.699219 40.3125 Z M 54.699219 36.011719 " fill-opacity="1" fill-rule="nonzero"/><path fill="#0e521a" d="M 13.847656 51.597656 C 13.847656 51.882812 13.902344 52.160156 14.011719 52.421875 C 14.121094 52.6875 14.273438 52.917969 14.476562 53.121094 C 14.679688 53.320312 14.910156 53.476562 15.175781 53.585938 C 15.4375 53.695312 15.710938 53.75 15.996094 53.75 L 20.296875 53.75 C 20.582031 53.75 20.855469 53.695312 21.121094 53.585938 C 21.382812 53.476562 21.617188 53.320312 21.816406 53.121094 C 22.019531 52.917969 22.175781 52.6875 22.285156 52.421875 C 22.394531 52.160156 22.449219 51.882812 22.449219 51.597656 L 22.449219 47.300781 C 22.449219 47.015625 22.394531 46.738281 22.285156 46.476562 C 22.175781 46.210938 22.019531 45.980469 21.816406 45.777344 C 21.617188 45.578125 21.382812 45.421875 21.121094 45.3125 C 20.855469 45.203125 20.582031 45.148438 20.296875 45.148438 L 15.996094 45.148438 C 15.710938 45.148438 15.4375 45.203125 15.175781 45.3125 C 14.910156 45.421875 14.679688 45.578125 14.476562 45.777344 C 14.273438 45.980469 14.121094 46.210938 14.011719 46.476562 C 13.902344 46.738281 13.847656 47.015625 13.847656 47.300781 Z M 15.996094 47.300781 L 20.296875 47.300781 L 20.296875 51.597656 L 15.996094 51.597656 Z M 15.996094 47.300781 " fill-opacity="1" fill-rule="nonzero"/><path fill="#0e521a" d="M 26.746094 51.597656 C 26.746094 51.882812 26.800781 52.160156 26.910156 52.421875 C 27.019531 52.6875 27.175781 52.917969 27.378906 53.121094 C 27.578125 53.320312 27.8125 53.476562 28.074219 53.585938 C 28.339844 53.695312 28.613281 53.75 28.898438 53.75 L 33.199219 53.75 C 33.484375 53.75 33.757812 53.695312 34.019531 53.585938 C 34.285156 53.476562 34.515625 53.320312 34.71875 53.121094 C 34.921875 52.917969 35.074219 52.6875 35.183594 52.421875 C 35.292969 52.160156 35.347656 51.882812 35.347656 51.597656 L 35.347656 47.300781 C 35.347656 47.015625 35.292969 46.738281 35.183594 46.476562 C 35.074219 46.210938 34.921875 45.980469 34.71875 45.777344 C 34.515625 45.578125 34.285156 45.421875 34.019531 45.3125 C 33.757812 45.203125 33.484375 45.148438 33.199219 45.148438 L 28.898438 45.148438 C 28.613281 45.148438 28.339844 45.203125 28.074219 45.3125 C 27.8125 45.421875 27.578125 45.578125 27.378906 45.777344 C 27.175781 45.980469 27.019531 46.210938 26.910156 46.476562 C 26.800781 46.738281 26.746094 47.015625 26.746094 47.300781 Z M 28.898438 47.300781 L 33.199219 47.300781 L 33.199219 51.597656 L 28.898438 51.597656 Z M 28.898438 47.300781 " fill-opacity="1" fill-rule="nonzero"/><path fill="#0e521a" d="M 39.648438 51.597656 C 39.648438 51.882812 39.703125 52.160156 39.8125 52.421875 C 39.921875 52.6875 40.078125 52.917969 40.277344 53.121094 C 40.480469 53.320312 40.714844 53.476562 40.976562 53.585938 C 41.238281 53.695312 41.515625 53.75 41.800781 53.75 L 46.101562 53.75 C 46.386719 53.75 46.660156 53.695312 46.921875 53.585938 C 47.1875 53.476562 47.417969 53.320312 47.621094 53.121094 C 47.820312 52.917969 47.976562 52.6875 48.085938 52.421875 C 48.195312 52.160156 48.25 51.882812 48.25 51.597656 L 48.25 47.300781 C 48.25 47.015625 48.195312 46.738281 48.085938 46.476562 C 47.976562 46.210938 47.820312 45.980469 47.621094 45.777344 C 47.417969 45.578125 47.1875 45.421875 46.921875 45.3125 C 46.660156 45.203125 46.386719 45.148438 46.101562 45.148438 L 41.800781 45.148438 C 41.515625 45.148438 41.238281 45.203125 40.976562 45.3125 C 40.714844 45.421875 40.480469 45.578125 40.277344 45.777344 C 40.078125 45.980469 39.921875 46.210938 39.8125 46.476562 C 39.703125 46.738281 39.648438 47.015625 39.648438 47.300781 Z M 41.800781 47.300781 L 46.101562 47.300781 L 46.101562 51.597656 L 41.800781 51.597656 Z M 41.800781 47.300781 " fill-opacity="1" fill-rule="nonzero"/><g clip-path="url(#618ee20dad)"><path fill="#0e521a" d="M 61.152344 4.296875 L 57.925781 4.296875 L 57.925781 3.757812 C 57.925781 3.257812 57.832031 2.777344 57.640625 2.316406 C 57.449219 1.855469 57.175781 1.449219 56.824219 1.097656 C 56.472656 0.742188 56.0625 0.472656 55.601562 0.28125 C 55.140625 0.0898438 54.660156 -0.00390625 54.164062 -0.00390625 C 53.664062 -0.00390625 53.183594 0.0898438 52.722656 0.28125 C 52.261719 0.472656 51.855469 0.742188 51.503906 1.097656 C 51.148438 1.449219 50.878906 1.855469 50.6875 2.316406 C 50.496094 2.777344 50.398438 3.257812 50.398438 3.757812 L 50.398438 4.296875 L 41.261719 4.296875 L 41.261719 3.757812 C 41.261719 3.257812 41.167969 2.777344 40.976562 2.316406 C 40.785156 1.855469 40.511719 1.449219 40.160156 1.097656 C 39.808594 0.742188 39.398438 0.472656 38.9375 0.28125 C 38.476562 0.0898438 37.996094 -0.00390625 37.5 -0.00390625 C 37 -0.00390625 36.519531 0.0898438 36.058594 0.28125 C 35.597656 0.472656 35.191406 0.742188 34.839844 1.097656 C 34.484375 1.449219 34.214844 1.855469 34.023438 2.316406 C 33.832031 2.777344 33.734375 3.257812 33.734375 3.757812 L 33.734375 4.296875 L 24.597656 4.296875 L 24.597656 3.757812 C 24.597656 3.257812 24.503906 2.777344 24.3125 2.316406 C 24.121094 1.855469 23.847656 1.449219 23.496094 1.097656 C 23.144531 0.742188 22.734375 0.472656 22.273438 0.28125 C 21.8125 0.0898438 21.332031 -0.00390625 20.835938 -0.00390625 C 20.335938 -0.00390625 19.855469 0.0898438 19.394531 0.28125 C 18.933594 0.472656 18.527344 0.742188 18.175781 1.097656 C 17.820312 1.449219 17.550781 1.855469 17.359375 2.316406 C 17.167969 2.777344 17.070312 3.257812 17.070312 3.757812 L 17.070312 4.296875 L 13.847656 4.296875 C 13.492188 4.296875 13.144531 4.332031 12.796875 4.398438 C 12.453125 4.46875 12.117188 4.570312 11.789062 4.707031 C 11.464844 4.839844 11.15625 5.007812 10.863281 5.203125 C 10.570312 5.398438 10.296875 5.621094 10.046875 5.871094 C 9.796875 6.121094 9.574219 6.390625 9.378906 6.6875 C 9.183594 6.980469 9.015625 7.289062 8.882812 7.613281 C 8.746094 7.941406 8.644531 8.277344 8.574219 8.621094 C 8.507812 8.96875 8.472656 9.316406 8.472656 9.671875 L 8.472656 43 C 8.472656 43.140625 8.5 43.277344 8.554688 43.410156 C 8.609375 43.542969 8.683594 43.65625 8.785156 43.757812 C 8.886719 43.859375 9.003906 43.9375 9.136719 43.992188 C 9.265625 44.046875 9.402344 44.074219 9.546875 44.074219 C 9.6875 44.074219 9.824219 44.046875 9.957031 43.992188 C 10.089844 43.9375 10.207031 43.859375 10.304688 43.757812 C 10.40625 43.65625 10.484375 43.542969 10.539062 43.410156 C 10.59375 43.277344 10.621094 43.140625 10.621094 43 L 10.621094 19.347656 L 64.375 19.347656 L 64.375 45.148438 C 64.375 45.292969 64.347656 45.429688 64.292969 45.558594 C 64.238281 45.691406 64.164062 45.808594 64.0625 45.910156 C 63.960938 46.007812 63.84375 46.085938 63.710938 46.140625 C 63.582031 46.195312 63.445312 46.222656 63.300781 46.222656 L 57.925781 46.222656 C 57.574219 46.222656 57.222656 46.257812 56.878906 46.328125 C 56.53125 46.398438 56.195312 46.5 55.871094 46.636719 C 55.542969 46.769531 55.234375 46.9375 54.941406 47.132812 C 54.648438 47.328125 54.375 47.550781 54.125 47.800781 C 53.878906 48.050781 53.65625 48.320312 53.457031 48.613281 C 53.261719 48.90625 53.097656 49.21875 52.960938 49.542969 C 52.824219 49.871094 52.722656 50.207031 52.65625 50.550781 C 52.585938 50.898438 52.550781 51.246094 52.550781 51.597656 L 52.550781 56.976562 C 52.550781 57.117188 52.523438 57.253906 52.46875 57.386719 C 52.414062 57.519531 52.335938 57.632812 52.234375 57.734375 C 52.132812 57.835938 52.019531 57.914062 51.886719 57.96875 C 51.753906 58.023438 51.617188 58.050781 51.476562 58.050781 L 13.847656 57.984375 C 13.417969 57.984375 13.007812 57.902344 12.613281 57.738281 C 12.21875 57.574219 11.867188 57.34375 11.566406 57.039062 C 11.261719 56.738281 11.03125 56.386719 10.867188 55.992188 C 10.703125 55.597656 10.621094 55.1875 10.621094 54.757812 L 10.621094 51.597656 C 10.621094 51.457031 10.59375 51.320312 10.539062 51.1875 C 10.484375 51.054688 10.40625 50.941406 10.304688 50.839844 C 10.207031 50.738281 10.089844 50.660156 9.957031 50.605469 C 9.824219 50.550781 9.6875 50.523438 9.546875 50.523438 C 9.402344 50.523438 9.265625 50.550781 9.136719 50.605469 C 9.003906 50.660156 8.886719 50.738281 8.785156 50.839844 C 8.683594 50.941406 8.609375 51.054688 8.554688 51.1875 C 8.5 51.320312 8.472656 51.457031 8.472656 51.597656 L 8.472656 59.125 C 8.472656 59.476562 8.507812 59.828125 8.574219 60.171875 C 8.644531 60.519531 8.746094 60.855469 8.882812 61.179688 C 9.015625 61.507812 9.183594 61.816406 9.378906 62.109375 C 9.574219 62.402344 9.796875 62.675781 10.046875 62.925781 C 10.296875 63.171875 10.570312 63.394531 10.863281 63.59375 C 11.15625 63.789062 11.464844 63.953125 11.789062 64.089844 C 12.117188 64.226562 12.453125 64.328125 12.796875 64.394531 C 13.144531 64.464844 13.492188 64.5 13.847656 64.5 L 61.152344 64.5 C 61.503906 64.5 61.851562 64.464844 62.199219 64.394531 C 62.546875 64.328125 62.882812 64.226562 63.207031 64.089844 C 63.53125 63.953125 63.84375 63.789062 64.136719 63.59375 C 64.429688 63.394531 64.699219 63.171875 64.949219 62.925781 C 65.199219 62.675781 65.421875 62.402344 65.617188 62.109375 C 65.816406 61.816406 65.980469 61.507812 66.117188 61.179688 C 66.25 60.855469 66.351562 60.519531 66.421875 60.171875 C 66.492188 59.828125 66.527344 59.476562 66.527344 59.125 L 66.527344 9.671875 C 66.527344 9.316406 66.492188 8.96875 66.421875 8.621094 C 66.351562 8.277344 66.25 7.941406 66.117188 7.613281 C 65.980469 7.289062 65.816406 6.980469 65.617188 6.6875 C 65.421875 6.390625 65.199219 6.121094 64.949219 5.871094 C 64.699219 5.621094 64.429688 5.398438 64.136719 5.203125 C 63.84375 5.007812 63.53125 4.839844 63.207031 4.707031 C 62.882812 4.570312 62.546875 4.46875 62.199219 4.398438 C 61.851562 4.332031 61.503906 4.296875 61.152344 4.296875 Z M 52.550781 3.757812 C 52.550781 3.542969 52.589844 3.335938 52.671875 3.140625 C 52.753906 2.941406 52.871094 2.769531 53.023438 2.617188 C 53.171875 2.464844 53.347656 2.347656 53.546875 2.265625 C 53.742188 2.1875 53.949219 2.144531 54.164062 2.144531 C 54.375 2.144531 54.582031 2.1875 54.78125 2.265625 C 54.976562 2.347656 55.152344 2.464844 55.304688 2.617188 C 55.453125 2.769531 55.570312 2.941406 55.652344 3.140625 C 55.734375 3.335938 55.777344 3.542969 55.777344 3.757812 L 55.777344 8.058594 C 55.777344 8.273438 55.734375 8.476562 55.652344 8.675781 C 55.570312 8.871094 55.453125 9.046875 55.304688 9.199219 C 55.152344 9.347656 54.976562 9.464844 54.78125 9.546875 C 54.582031 9.628906 54.375 9.671875 54.164062 9.671875 C 53.949219 9.671875 53.742188 9.628906 53.546875 9.546875 C 53.347656 9.464844 53.171875 9.347656 53.023438 9.199219 C 52.871094 9.046875 52.753906 8.871094 52.671875 8.675781 C 52.589844 8.476562 52.550781 8.273438 52.550781 8.058594 Z M 35.886719 3.757812 C 35.886719 3.542969 35.925781 3.335938 36.007812 3.140625 C 36.089844 2.941406 36.207031 2.769531 36.359375 2.617188 C 36.507812 2.464844 36.683594 2.347656 36.882812 2.265625 C 37.078125 2.1875 37.285156 2.144531 37.5 2.144531 C 37.710938 2.144531 37.917969 2.1875 38.117188 2.265625 C 38.3125 2.347656 38.488281 2.464844 38.640625 2.617188 C 38.789062 2.769531 38.90625 2.941406 38.988281 3.140625 C 39.070312 3.335938 39.113281 3.542969 39.113281 3.757812 L 39.113281 8.058594 C 39.113281 8.273438 39.070312 8.476562 38.988281 8.675781 C 38.90625 8.871094 38.789062 9.046875 38.640625 9.199219 C 38.488281 9.347656 38.3125 9.464844 38.117188 9.546875 C 37.917969 9.628906 37.710938 9.671875 37.5 9.671875 C 37.285156 9.671875 37.078125 9.628906 36.882812 9.546875 C 36.683594 9.464844 36.507812 9.347656 36.359375 9.199219 C 36.207031 9.046875 36.089844 8.871094 36.007812 8.675781 C 35.925781 8.476562 35.886719 8.273438 35.886719 8.058594 Z M 19.222656 3.757812 C 19.222656 3.542969 19.261719 3.335938 19.34375 3.140625 C 19.425781 2.941406 19.542969 2.769531 19.695312 2.617188 C 19.847656 2.464844 20.019531 2.347656 20.21875 2.265625 C 20.414062 2.1875 20.621094 2.144531 20.835938 2.144531 C 21.046875 2.144531 21.253906 2.1875 21.453125 2.265625 C 21.648438 2.347656 21.824219 2.464844 21.976562 2.617188 C 22.125 2.769531 22.242188 2.941406 22.324219 3.140625 C 22.40625 3.335938 22.449219 3.542969 22.449219 3.757812 L 22.449219 8.058594 C 22.449219 8.273438 22.40625 8.476562 22.324219 8.675781 C 22.242188 8.871094 22.125 9.046875 21.976562 9.199219 C 21.824219 9.347656 21.648438 9.464844 21.453125 9.546875 C 21.253906 9.628906 21.046875 9.671875 20.835938 9.671875 C 20.621094 9.671875 20.414062 9.628906 20.21875 9.546875 C 20.019531 9.464844 19.847656 9.347656 19.695312 9.199219 C 19.542969 9.046875 19.425781 8.871094 19.34375 8.675781 C 19.261719 8.476562 19.222656 8.273438 19.222656 8.058594 Z M 10.621094 17.195312 L 10.621094 9.671875 C 10.621094 9.242188 10.703125 8.832031 10.867188 8.4375 C 11.03125 8.042969 11.261719 7.691406 11.566406 7.390625 C 11.867188 7.085938 12.21875 6.855469 12.613281 6.691406 C 13.007812 6.527344 13.417969 6.445312 13.847656 6.445312 L 17.070312 6.445312 L 17.070312 8.058594 C 17.070312 8.558594 17.167969 9.035156 17.359375 9.496094 C 17.550781 9.957031 17.820312 10.367188 18.175781 10.71875 C 18.527344 11.070312 18.933594 11.34375 19.394531 11.535156 C 19.855469 11.726562 20.335938 11.820312 20.835938 11.820312 C 21.332031 11.820312 21.8125 11.726562 22.273438 11.535156 C 22.734375 11.34375 23.144531 11.070312 23.496094 10.71875 C 23.847656 10.367188 24.121094 9.957031 24.3125 9.496094 C 24.503906 9.035156 24.597656 8.558594 24.597656 8.058594 L 24.597656 6.445312 L 33.734375 6.445312 L 33.734375 8.058594 C 33.734375 8.558594 33.832031 9.035156 34.023438 9.496094 C 34.214844 9.957031 34.484375 10.367188 34.839844 10.71875 C 35.191406 11.070312 35.597656 11.34375 36.058594 11.535156 C 36.519531 11.726562 37 11.820312 37.5 11.820312 C 37.996094 11.820312 38.476562 11.726562 38.9375 11.535156 C 39.398438 11.34375 39.808594 11.070312 40.160156 10.71875 C 40.511719 10.367188 40.785156 9.957031 40.976562 9.496094 C 41.167969 9.035156 41.261719 8.558594 41.261719 8.058594 L 41.261719 6.445312 L 50.398438 6.445312 L 50.398438 8.058594 C 50.398438 8.558594 50.496094 9.035156 50.6875 9.496094 C 50.878906 9.957031 51.148438 10.367188 51.503906 10.71875 C 51.855469 11.070312 52.261719 11.34375 52.722656 11.535156 C 53.183594 11.726562 53.664062 11.820312 54.164062 11.820312 C 54.660156 11.820312 55.140625 11.726562 55.601562 11.535156 C 56.0625 11.34375 56.472656 11.070312 56.824219 10.71875 C 57.175781 10.367188 57.449219 9.957031 57.640625 9.496094 C 57.832031 9.035156 57.925781 8.558594 57.925781 8.058594 L 57.925781 6.445312 L 61.152344 6.445312 C 61.578125 6.445312 61.988281 6.527344 62.386719 6.691406 C 62.78125 6.855469 63.128906 7.085938 63.433594 7.390625 C 63.734375 7.691406 63.96875 8.042969 64.128906 8.4375 C 64.292969 8.832031 64.375 9.242188 64.375 9.671875 L 64.375 17.195312 Z M 54.699219 51.597656 C 54.699219 51.171875 54.78125 50.761719 54.945312 50.363281 C 55.109375 49.96875 55.34375 49.621094 55.644531 49.320312 C 55.949219 49.015625 56.296875 48.785156 56.691406 48.621094 C 57.085938 48.457031 57.496094 48.375 57.925781 48.375 L 62.859375 48.375 L 54.699219 56.53125 Z M 61.152344 62.351562 L 13.847656 62.351562 C 13.410156 62.347656 12.992188 62.265625 12.589844 62.09375 C 12.191406 61.925781 11.839844 61.683594 11.535156 61.371094 C 11.230469 61.058594 11 60.699219 10.839844 60.292969 C 10.683594 59.886719 10.609375 59.464844 10.621094 59.03125 C 11.570312 59.757812 12.640625 60.128906 13.835938 60.132812 L 51.828125 60.199219 C 52.546875 60.199219 53.234375 60.0625 53.898438 59.789062 C 54.558594 59.515625 55.144531 59.128906 55.652344 58.621094 L 64.375 49.898438 L 64.375 59.125 C 64.375 59.550781 64.292969 59.964844 64.128906 60.359375 C 63.96875 60.753906 63.734375 61.101562 63.433594 61.40625 C 63.128906 61.707031 62.78125 61.941406 62.386719 62.105469 C 61.988281 62.269531 61.578125 62.351562 61.152344 62.351562 Z M 61.152344 62.351562 " fill-opacity="1" fill-rule="nonzero"/></g><g clip-path="url(#2ae69e8d53)"><path fill="#0e521a" d="M 10.621094 47.300781 C 10.621094 47.441406 10.59375 47.578125 10.539062 47.710938 C 10.484375 47.84375 10.40625 47.957031 10.304688 48.058594 C 10.207031 48.160156 10.089844 48.238281 9.957031 48.292969 C 9.824219 48.347656 9.6875 48.375 9.546875 48.375 C 9.402344 48.375 9.265625 48.347656 9.136719 48.292969 C 9.003906 48.238281 8.886719 48.160156 8.785156 48.058594 C 8.683594 47.957031 8.609375 47.84375 8.554688 47.710938 C 8.5 47.578125 8.472656 47.441406 8.472656 47.300781 C 8.472656 47.15625 8.5 47.019531 8.554688 46.886719 C 8.609375 46.753906 8.683594 46.640625 8.785156 46.539062 C 8.886719 46.4375 9.003906 46.359375 9.136719 46.304688 C 9.265625 46.25 9.402344 46.222656 9.546875 46.222656 C 9.6875 46.222656 9.824219 46.25 9.957031 46.304688 C 10.089844 46.359375 10.207031 46.4375 10.304688 46.539062 C 10.40625 46.640625 10.484375 46.753906 10.539062 46.886719 C 10.59375 47.019531 10.621094 47.15625 10.621094 47.300781 Z M 10.621094 47.300781 " fill-opacity="1" fill-rule="nonzero"/></g></svg>