<svg xmlns="http://www.w3.org/2000/svg" xmlns:xlink="http://www.w3.org/1999/xlink" width="100" zoomAndPan="magnify" viewBox="0 0 75 65.249999" height="87" preserveAspectRatio="xMidYMid meet" version="1.0"><defs><clipPath id="adbbe3687e"><path d="M 39 4 L 69.671875 4 L 69.671875 38 L 39 38 Z M 39 4 " clip-rule="nonzero"/></clipPath><clipPath id="4288600590"><path d="M 33 35 L 66 35 L 66 64.507812 L 33 64.507812 Z M 33 35 " clip-rule="nonzero"/></clipPath><clipPath id="797b13ddab"><path d="M 5.164062 26 L 35 26 L 35 61 L 5.164062 61 Z M 5.164062 26 " clip-rule="nonzero"/></clipPath></defs><g clip-path="url(#adbbe3687e)"><path fill="#0e521a" d="M 39.699219 11.46875 C 47.890625 12.328125 54.695312 17.925781 57.3125 25.464844 C 57.355469 25.582031 57.265625 25.703125 57.144531 25.703125 L 54.441406 25.703125 C 54.296875 25.703125 54.214844 25.863281 54.296875 25.984375 L 61.871094 37.019531 C 61.941406 37.125 62.09375 37.125 62.164062 37.019531 L 69.742188 25.984375 C 69.824219 25.867188 69.738281 25.703125 69.59375 25.703125 L 64.953125 25.703125 C 64.871094 25.703125 64.800781 25.648438 64.777344 25.566406 C 64.425781 24.144531 63.964844 22.75 63.386719 21.386719 C 62.683594 19.722656 61.8125 18.113281 60.792969 16.613281 C 59.789062 15.125 58.636719 13.726562 57.367188 12.457031 C 56.09375 11.183594 54.695312 10.03125 53.210938 9.027344 C 51.707031 8.011719 50.101562 7.140625 48.433594 6.433594 C 45.730469 5.292969 42.902344 4.589844 39.988281 4.332031 C 39.804688 4.316406 39.71875 4.554688 39.871094 4.660156 L 44.253906 7.667969 C 44.359375 7.738281 44.359375 7.890625 44.253906 7.964844 L 39.617188 11.144531 C 39.480469 11.238281 39.535156 11.453125 39.699219 11.46875 Z M 39.699219 11.46875 " fill-opacity="1" fill-rule="nonzero"/></g><g clip-path="url(#4288600590)"><path fill="#0e521a" d="M 58.191406 35.730469 C 56.996094 43.027344 52.015625 49.070312 45.34375 51.773438 C 45.226562 51.820312 45.097656 51.734375 45.097656 51.609375 L 45.097656 49.117188 C 45.097656 48.976562 44.9375 48.890625 44.816406 48.972656 L 33.78125 56.546875 C 33.675781 56.617188 33.675781 56.769531 33.78125 56.839844 L 44.816406 64.417969 C 44.9375 64.5 45.097656 64.414062 45.097656 64.269531 L 45.097656 59.523438 C 45.097656 59.441406 45.152344 59.371094 45.230469 59.351562 C 46.316406 59.039062 47.386719 58.664062 48.4375 58.21875 C 50.101562 57.511719 51.707031 56.640625 53.210938 55.625 C 54.699219 54.621094 56.097656 53.46875 57.367188 52.195312 C 58.636719 50.925781 59.792969 49.527344 60.796875 48.042969 C 61.8125 46.539062 62.683594 44.929688 63.386719 43.265625 C 64.292969 41.125 64.925781 38.90625 65.273438 36.625 C 65.300781 36.4375 65.054688 36.339844 64.949219 36.5 L 62.167969 40.550781 C 62.097656 40.652344 61.945312 40.652344 61.875 40.550781 L 58.511719 35.65625 C 58.421875 35.523438 58.21875 35.570312 58.191406 35.730469 Z M 58.191406 35.730469 " fill-opacity="1" fill-rule="nonzero"/></g><path fill="#0e521a" d="M 16.964844 28.039062 C 18.335938 21.464844 22.792969 16.011719 28.746094 13.269531 C 28.863281 13.214844 29 13.300781 29 13.429688 L 29 15.390625 C 29 15.535156 29.160156 15.621094 29.277344 15.539062 L 40.316406 7.960938 C 40.417969 7.890625 40.417969 7.738281 40.316406 7.667969 L 29.277344 0.0898438 C 29.160156 0.0078125 29 0.09375 29 0.238281 L 29 5.398438 C 29 5.476562 28.949219 5.546875 28.875 5.570312 C 28.09375 5.820312 27.316406 6.109375 26.554688 6.429688 C 24.890625 7.136719 23.285156 8.007812 21.78125 9.023438 C 20.292969 10.027344 18.894531 11.183594 17.625 12.453125 C 16.355469 13.722656 15.199219 15.121094 14.195312 16.609375 C 13.179688 18.113281 12.308594 19.71875 11.605469 21.382812 C 10.90625 23.03125 10.371094 24.734375 10.003906 26.46875 C 9.964844 26.660156 10.214844 26.769531 10.324219 26.605469 L 12.824219 22.964844 C 12.894531 22.863281 13.046875 22.863281 13.121094 22.964844 L 16.644531 28.101562 C 16.734375 28.234375 16.933594 28.191406 16.964844 28.039062 Z M 16.964844 28.039062 " fill-opacity="1" fill-rule="nonzero"/><g clip-path="url(#797b13ddab)"><path fill="#0e521a" d="M 34.511719 53.085938 C 26.144531 51.886719 19.351562 45.730469 17.222656 37.699219 C 17.191406 37.585938 17.277344 37.476562 17.394531 37.476562 L 20.546875 37.476562 C 20.691406 37.476562 20.777344 37.3125 20.695312 37.195312 L 13.117188 26.15625 C 13.046875 26.054688 12.894531 26.054688 12.824219 26.15625 L 5.246094 37.195312 C 5.164062 37.3125 5.25 37.476562 5.394531 37.476562 L 9.714844 37.476562 C 9.800781 37.476562 9.875 37.539062 9.890625 37.621094 C 10.257812 39.554688 10.828125 41.4375 11.601562 43.265625 C 12.308594 44.929688 13.179688 46.539062 14.195312 48.042969 C 15.199219 49.527344 16.351562 50.925781 17.625 52.195312 C 18.894531 53.46875 20.292969 54.621094 21.777344 55.625 C 23.28125 56.640625 24.890625 57.511719 26.554688 58.21875 C 28.882812 59.203125 31.308594 59.863281 33.796875 60.1875 C 33.984375 60.210938 34.078125 59.96875 33.921875 59.863281 L 29.765625 57.007812 C 29.664062 56.9375 29.664062 56.785156 29.765625 56.714844 L 34.585938 53.40625 C 34.722656 53.316406 34.671875 53.105469 34.511719 53.085938 Z M 34.511719 53.085938 " fill-opacity="1" fill-rule="nonzero"/></g><path fill="#0e521a" d="M 37.691406 47.417969 C 37.828125 47.621094 38.066406 47.722656 38.402344 47.722656 C 38.769531 47.722656 39.007812 47.597656 39.113281 47.34375 C 39.222656 47.09375 39.277344 46.691406 39.277344 46.140625 L 39.277344 42.660156 C 40.609375 42.546875 41.761719 42.195312 42.730469 41.609375 C 43.699219 41.023438 44.4375 40.265625 44.933594 39.335938 C 45.433594 38.410156 45.683594 37.414062 45.683594 36.351562 C 45.683594 35.503906 45.523438 34.71875 45.210938 34.007812 C 44.898438 33.292969 44.453125 32.679688 43.875 32.164062 C 43.335938 31.671875 42.722656 31.292969 42.035156 31.03125 C 41.351562 30.773438 40.429688 30.484375 39.273438 30.164062 L 39.273438 24.34375 C 40.449219 24.726562 41.191406 25.5 41.496094 26.664062 C 41.769531 27.648438 42.359375 28.140625 43.277344 28.140625 C 43.761719 28.140625 44.171875 27.972656 44.515625 27.632812 C 44.855469 27.292969 45.023438 26.890625 45.023438 26.421875 C 45.023438 26.003906 44.910156 25.542969 44.683594 25.039062 C 44.453125 24.535156 44.128906 24.046875 43.710938 23.574219 C 43.175781 22.949219 42.554688 22.484375 41.84375 22.175781 C 41.128906 21.871094 40.273438 21.664062 39.277344 21.5625 L 39.277344 20.054688 C 39.277344 19.289062 38.976562 18.90625 38.375 18.90625 C 37.785156 18.90625 37.488281 19.296875 37.488281 20.082031 L 37.488281 21.566406 C 35.5625 21.734375 34.089844 22.328125 33.070312 23.355469 C 32.050781 24.382812 31.542969 25.695312 31.542969 27.300781 C 31.542969 28.53125 31.800781 29.539062 32.324219 30.324219 C 32.84375 31.105469 33.523438 31.710938 34.363281 32.136719 C 35.199219 32.558594 36.242188 32.945312 37.488281 33.289062 L 37.488281 39.796875 C 36.863281 39.617188 36.363281 39.363281 35.988281 39.027344 C 35.609375 38.691406 35.328125 38.320312 35.140625 37.914062 C 34.953125 37.503906 34.734375 36.917969 34.484375 36.152344 C 34.371094 35.796875 34.171875 35.523438 33.882812 35.328125 C 33.597656 35.132812 33.242188 35.03125 32.824219 35.03125 C 32.300781 35.03125 31.867188 35.214844 31.519531 35.570312 C 31.171875 35.929688 30.996094 36.335938 30.996094 36.78125 C 30.996094 37.390625 31.125 38.007812 31.386719 38.636719 C 31.648438 39.265625 32.050781 39.871094 32.59375 40.457031 C 33.136719 41.039062 33.816406 41.527344 34.632812 41.917969 C 35.445312 42.3125 36.398438 42.566406 37.488281 42.6875 L 37.488281 46.464844 C 37.488281 46.894531 37.554688 47.210938 37.691406 47.417969 Z M 39.277344 33.800781 C 40.246094 34.105469 40.980469 34.480469 41.476562 34.925781 C 41.976562 35.367188 42.226562 35.992188 42.226562 36.800781 C 42.226562 37.558594 41.96875 38.21875 41.457031 38.785156 C 40.945312 39.351562 40.21875 39.730469 39.277344 39.917969 Z M 35.613281 28.617188 C 35.203125 28.242188 34.996094 27.683594 34.996094 26.949219 C 34.996094 26.175781 35.21875 25.601562 35.65625 25.21875 C 36.09375 24.839844 36.703125 24.53125 37.488281 24.300781 L 37.488281 29.640625 C 36.648438 29.335938 36.023438 28.992188 35.613281 28.617188 Z M 35.613281 28.617188 " fill-opacity="1" fill-rule="nonzero"/></svg>